<svg width="41" height="41" viewBox="0 0 41 41" fill="none" xmlns="http://www.w3.org/2000/svg">
<path d="M20.7785 40.5293C9.87154 40.5293 0.998535 31.6563 0.998535 20.7493C0.998535 9.84226 9.87154 0.968262 20.7785 0.968262C31.6855 0.968262 40.5585 9.84226 40.5585 20.7483C40.5595 31.6563 31.6865 40.5293 20.7785 40.5293ZM20.7785 2.46826C10.6985 2.46826 2.49854 10.6693 2.49854 20.7483C2.49854 30.8283 10.6985 39.0293 20.7785 39.0293C30.8585 39.0293 39.0585 30.8283 39.0585 20.7493C39.0595 10.6693 30.8585 2.46826 20.7785 2.46826Z" fill="white"/>
<path d="M17.8795 32.2513H22.5115V20.6513H25.7435L26.0885 16.7673H22.5115C22.5115 16.7673 22.5115 15.3173 22.5115 14.5553C22.5115 13.6393 22.6955 13.2773 23.5815 13.2773C24.2935 13.2773 26.0885 13.2773 26.0885 13.2773V9.24634C26.0885 9.24634 23.4455 9.24634 22.8805 9.24634C19.4335 9.24634 17.8795 10.7643 17.8795 13.6703C17.8795 16.2013 17.8795 16.7673 17.8795 16.7673H15.4695V20.7003H17.8795V32.2513Z" fill="white"/>
</svg>
