<svg xmlns="http://www.w3.org/2000/svg" viewBox="0 0 714 824.11"><defs><style>.cls-1{fill:#005fa0;}.cls-2,.cls-5{fill:#fff;}.cls-2,.cls-3,.cls-6{stroke:#1d2a37;}.cls-2,.cls-3{stroke-linecap:round;stroke-linejoin:round;stroke-width:10px;}.cls-3{fill:none;}.cls-4,.cls-6{fill:#1d2a37;}.cls-6{stroke-miterlimit:10;stroke-width:0.5px;}</style></defs><title>registrate y cotiza</title><g id="Capa_2" data-name="Capa 2"><g id="Capa_1-2" data-name="Capa 1"><path class="cls-1" d="M105.3,188.62,22.89,209,.2,118.89,141.67,76.52h78.41V562.31H105.3Z"/><path class="cls-2" d="M483.11,819.11h-201c-34.52,0-62.5-30.68-62.5-68.52V299.3c0-37.84,28-68.52,62.5-68.53H483.11c34.52,0,62.5,30.69,62.5,68.53V750.59C545.61,788.43,517.63,819.11,483.11,819.11Z"/><path class="cls-2" d="M323,276.35H442.14"/><circle class="cls-2" cx="382.59" cy="751.66" r="31.86"/><path class="cls-3" d="M272.45,441.15H494a20,20,0,0,1,20,20v48.94a0,0,0,0,1,0,0H252.45a0,0,0,0,1,0,0V461.15A20,20,0,0,1,272.45,441.15Z"/><path class="cls-3" d="M252.45,510.08H514a0,0,0,0,1,0,0V559a20,20,0,0,1-20,20H272.45a20,20,0,0,1-20-20V510.08a0,0,0,0,1,0,0Z"/><path class="cls-4" d="M693.84,594.93q-22.59-26.28-45.41-52.3a32.07,32.07,0,0,0-6.9-5.77c-8.45-5.34-21.19-3.64-27.82,3.83-2.57,2.9-4.44,6.42-6.74,9.8a23,23,0,0,0-19.87-.82c-6.83,2.85-11.22,8.07-13.49,15.25-6.46-3.25-12.93-4-19.57-1.52s-11.18,7.28-14.06,14.08L537.87,575c-5.57-6.33-10.92-12.89-16.78-18.95-7.72-8-21.42-8.53-30.18-1.65a23.43,23.43,0,0,0-3.16,33.94q23.1,26.76,46.34,53.4a5,5,0,0,1,1.35,4.07c-.39,3.94-.61,7.93-.89,11.89-1.18,17.51,3.74,33.1,15.3,46.32s26.06,20,43.38,21.29q17.16,1.24,34.3,2.44c14.94,1.05,29.19-1.46,42.53-8.36,4.36-2.25,8.43-5,12.64-7.59,2.4-2.09,4.82-4.17,7.22-6.27.5-.6,1-1.23,1.5-1.8A76.94,76.94,0,0,0,712.93,661C716.77,636.11,710.23,614,693.84,594.93Zm-64,121.17c-13.27-.71-26.55-1.55-39.77-3-27-2.94-47.16-29.17-43.49-56.77.77.89,1.29,1.47,1.78,2.06,6.27,7.22,12.5,14.45,18.79,21.64,2.57,2.94,6,3.37,8.68,1.21s2.75-5.48.55-8.55a28.08,28.08,0,0,0-2-2.39q-38.19-44-76.35-88.07a22.78,22.78,0,0,1-3.23-4.41c-2.57-5.07-.92-10.92,3.82-14.36a11.4,11.4,0,0,1,14.47,1.12c.74.72,1.41,1.53,2.08,2.3q23.64,27.24,47.26,54.51c1.68,1.94,3.57,3.38,6.35,3a5.78,5.78,0,0,0,4.35-8.31A17.91,17.91,0,0,0,571,613c-6-7-12.09-13.77-17.91-20.83a11.43,11.43,0,0,1,17.43-14.76c3.67,4.08,7.16,8.34,10.86,12.37a10.78,10.78,0,0,0,4,2.75,5.13,5.13,0,0,0,6-2,5.07,5.07,0,0,0,.61-6,68.47,68.47,0,0,0-4.77-6.23,11.33,11.33,0,0,1,.74-15.21c3.93-4.11,10.61-4.88,15-1.22,2.78,2.31,5,5.37,7.43,8.07a29.91,29.91,0,0,0,3.22,3.15,5.56,5.56,0,0,0,7.05-.1,5.67,5.67,0,0,0,1.65-6.87,16.77,16.77,0,0,0-1.48-2.43,11.51,11.51,0,0,1,2-15.51,11.31,11.31,0,0,1,15.36.66c.67.67,1.34,1.37,2,2.09q22.23,25.62,44.47,51.23c10.56,12.1,16.74,26,17.54,42.1.95,18.38-4.44,34.78-16.67,48.58C670.71,709.51,652,717.28,629.83,716.1Z"/><path class="cls-5" d="M685.44,692.85c-14.73,16.66-33.41,24.43-55.61,23.25-13.27-.71-26.55-1.55-39.77-3-27-2.94-47.16-29.17-43.49-56.77.77.89,1.29,1.47,1.78,2.06,6.27,7.22,12.5,14.45,18.79,21.64,2.57,2.94,6,3.37,8.68,1.21s2.75-5.48.55-8.55a28.08,28.08,0,0,0-2-2.39q-38.19-44-76.35-88.07a22.78,22.78,0,0,1-3.23-4.41c-2.57-5.07-.92-10.92,3.82-14.36a11.4,11.4,0,0,1,14.47,1.12c.74.72,1.41,1.53,2.08,2.3q23.64,27.24,47.26,54.51c1.68,1.94,3.57,3.38,6.35,3a5.78,5.78,0,0,0,4.35-8.31A17.91,17.91,0,0,0,571,613c-6-7-12.09-13.77-17.91-20.83a11.43,11.43,0,0,1,17.43-14.76c3.67,4.08,7.16,8.34,10.86,12.37a10.78,10.78,0,0,0,4,2.75,5.13,5.13,0,0,0,6-2,5.07,5.07,0,0,0,.61-6,68.47,68.47,0,0,0-4.77-6.23,11.33,11.33,0,0,1,.74-15.21c3.93-4.11,10.61-4.88,15-1.22,2.78,2.31,5,5.37,7.43,8.07a29.91,29.91,0,0,0,3.22,3.15,5.56,5.56,0,0,0,7.05-.1,5.67,5.67,0,0,0,1.65-6.87,16.77,16.77,0,0,0-1.48-2.43,11.51,11.51,0,0,1,2-15.51,11.31,11.31,0,0,1,15.36.66c.67.67,1.34,1.37,2,2.09q22.23,25.62,44.47,51.23c10.56,12.1,16.74,26,17.54,42.1C703.06,662.65,697.67,679.05,685.44,692.85Z"/><path class="cls-6" d="M273.42,484l1.66-3.67a12.32,12.32,0,0,0,6.95,2.2c2.89,0,4.06-1,4.06-2.26,0-3.94-12.25-1.23-12.25-9.06,0-3.58,2.89-6.56,8.88-6.56a14.11,14.11,0,0,1,7.32,1.87l-1.51,3.7a11.81,11.81,0,0,0-5.84-1.66c-2.89,0-4,1.09-4,2.41,0,3.88,12.25,1.2,12.25,8.94,0,3.52-2.92,6.53-8.94,6.53A15,15,0,0,1,273.42,484Z"/><path class="cls-6" d="M300.73,460.78h4.18L295,489.13H290.8Z"/><path class="cls-6" d="M301.79,483.41a2.92,2.92,0,0,1,5.84,0,2.92,2.92,0,1,1-5.84,0Z"/><path class="cls-6" d="M286.17,558v4.09h-3.66v-4c-3.61-.22-7.08-1.35-9.09-2.92l2-4.46a14.86,14.86,0,0,0,7.08,2.6v-6.1c-4.05-1-8.58-2.34-8.58-7.56,0-3.87,2.82-7.19,8.58-7.85v-4h3.66v4a16.53,16.53,0,0,1,7.41,2.22l-1.83,4.5a14.93,14.93,0,0,0-5.58-1.9v6.2c4.05,1,8.5,2.3,8.5,7.45C294.67,554,291.9,557.28,286.17,558Zm-3.66-16.14v-5.18c-1.93.43-2.7,1.49-2.7,2.7S280.91,541.32,282.51,541.83Zm6.29,8.8c0-1.28-1.06-2-2.63-2.52v5C288,552.75,288.8,551.8,288.8,550.63Z"/><path class="cls-1" d="M38.83,17.19c0,10.71-7.72,17.13-20.54,17.13H3.72V51H0V0H18.29C31.11,0,38.83,6.41,38.83,17.19Zm-3.79,0C35,8.38,29.22,3.35,18.29,3.35H3.72V31H18.29C29.22,31,35,25.94,35,17.19Z"/><path class="cls-1" d="M77.3,26.88V51H73.8V44.22c-2.41,4.38-7.07,7.07-13.7,7.07-8.52,0-13.69-4.37-13.69-10.85,0-5.76,3.64-10.64,14.2-10.64h13V26.74c0-7.07-3.86-10.86-11.29-10.86a19.72,19.72,0,0,0-13.11,4.81l-1.83-2.62a23.22,23.22,0,0,1,15.23-5.39C72.05,12.68,77.3,17.49,77.3,26.88Zm-3.65,12.9V32.64h-13c-7.86,0-10.63,3.28-10.63,7.65,0,5,3.86,8,10.56,8C67,48.3,71.47,45.24,73.65,39.78Z"/><path class="cls-1" d="M86.69,46.41l1.68-2.91a22.14,22.14,0,0,0,13.69,4.58c8,0,11.22-2.84,11.22-7.14,0-11.07-25.21-2.91-25.21-17.84,0-5.76,4.81-10.42,14.43-10.42,4.81,0,10,1.45,13,3.71l-1.67,2.92a19.62,19.62,0,0,0-11.44-3.43C95,15.88,91.72,18.94,91.72,23c0,11.44,25.21,3.35,25.21,17.85,0,6.2-5.32,10.42-15,10.42C95.65,51.29,89.68,49.18,86.69,46.41Z"/><path class="cls-1" d="M123,32c0-11.29,8.09-19.3,19-19.3s19,8,19,19.3-8.09,19.31-19,19.31S123,43.28,123,32Zm34.31,0c0-9.54-6.55-16-15.3-16s-15.3,6.48-15.3,16,6.56,16,15.3,16S157.28,41.53,157.28,32Z"/></g></g></svg>