<?xml version="1.0" encoding="utf-8"?>
<!-- Generator: Adobe Illustrator 24.0.2, SVG Export Plug-In . SVG Version: 6.00 Build 0)  -->
<svg version="1.1" id="Capa_1" xmlns="http://www.w3.org/2000/svg" xmlns:xlink="http://www.w3.org/1999/xlink" x="0px" y="0px"
	 viewBox="0 0 383.4 383.2" style="enable-background:new 0 0 383.4 383.2;" xml:space="preserve">
<style type="text/css">
	.st0{fill:#1D2A37;}
</style>
<title>vocacion de servicio</title>
<g id="Capa_2_1_">
	<g id="Capa_1-2">
		<path class="st0" d="M376.5,0c5.2,2.6,7.2,6.7,6.8,12.4c-0.3,4.8,0,9.7-0.1,14.6c-0.1,6.7-3.8,10.3-10.5,10.4c-3.8,0-7.7,0-11.7,0
			v209c2.8,1.2,5.8,2.2,8.4,3.8c8.8,5.4,13.7,13.4,13.8,23.8c0.2,15,0,29.9,0,44.9c0,17.9-8.4,28.9-26.2,34c0,5.7,0,11.5,0,17.3
			c0,2.6,0.2,5.3-0.1,7.9c-0.1,2.9-2.4,5.1-5.3,5.1c-0.1,0-0.1,0-0.2,0c-3,0.1-4.9-1.7-5.5-4.6c-0.2-1.1-0.2-2.2-0.1-3.4
			c0-22.1,0-44.2,0-66.3c0-0.6,0-1.3,0-1.9c0.2-3.7,2.4-6.2,5.6-6.2s5.5,2.5,5.5,6.2c0.1,9.9,0,19.7,0,29.6v4.1
			c8-1.4,14.7-9.4,14.8-18.1c0.2-16.5,0.2-32.9,0-49.4c-0.1-7-4.8-13.1-11.6-15c-7.4-2-15-3.6-22.6-5.2c-1-0.2-2,0.2-2.7,0.9
			c-4.9,9.2-12.6,14.6-22.9,16.9v10.5c0,12.8,0,25.7,0,38.5c0,4.4-2,7-5.5,7.1s-5.7-2.6-5.7-7.2c0-16.2,0-32.4,0-48.7
			c-0.7-0.3-1.4-0.6-2.1-0.9c-8.8-2.3-16.2-8.2-20.4-16.3c-1.1-2.1-2.3-2.7-4.6-2.5c-13.6,1.1-25.9,5.3-37,13.6
			c-13.1,10-26.7,19.3-40.1,28.8c-4.7,3.4-5.9,3.4-10.6-0.2c-8.8-6.7-17.7-13.4-26.8-20.3L149,285.9c2.6,2.3,5.1,4.5,7.6,6.7
			c9.7,8.5,19.3,16.9,29,25.4c4.6,4,8,4.4,13.3,1.5c17.5-9.7,35.1-19.5,52.6-29.3l1.6-0.9c6.6-3.6,10.4-1.4,10.4,6c0,16,0,32,0,47.9
			c0,11,0,22,0,32.9c0,4.6-2.2,7.3-5.8,7.1s-5.4-2.7-5.4-7.1c0-22.8,0-45.7,0-68.5v-4.8c-1.5,0.8-2.7,1.3-3.8,1.9
			c-14.7,8.2-29.1,16.9-44.2,24.3c-6.1,3-7.7,6.3-7.1,12.3c0.3,3.3,0.5,5.5,4,7.3c7.6,3.9,10.8,13,8.4,21.2
			c-2.9,9.9-13.3,15.5-23.2,12.6c-6.4-1.9-11.4-7.1-12.9-13.6c-2.1-8.2,1.7-16.7,9.2-20.6c2.6-1.4,3.3-2.9,3.5-5.7
			c0.4-6.6-0.8-11.2-6.9-15.7c-11.8-8.7-22.3-19.2-33.5-28.7c-1.8-1.5-3.9-2.3-6.2-2.4c-39.2-0.1-78.3-0.1-117.5-0.1
			c-8.5,0-11.8-3.2-11.8-11.7c0-2.9,0-5.7,0-8.6c0-10.2,2-12.5,12.4-13.7v-85.2c-0.1-1.2,0-2.5,0.1-3.7c0.5-3,2.4-4.8,5.3-4.8
			c3.1-0.1,5.1,1.7,5.7,4.9c0.1,1.2,0.2,2.5,0.1,3.7c0,26.9,0,53.9,0,80.8v4.4h79.5c0.9-2.6,1.6-5.2,2.2-7.9c0.1-1.4-0.2-2.8-0.9-4
			c-10.9-20.3-21.8-40.6-32.7-60.9c-0.7-1.1-1.2-2.2-1.6-3.4c-0.8-2.9,0-5.2,2.7-6.6s5.1-0.7,7,1.6c0.7,1,1.4,2.1,1.9,3.2l31,57.6
			c0.6,1.1,1.2,2.1,1.9,3.4c8.4-3.4,15.3-0.6,21.8,4.8c4.6,3.8,9.4,7.4,14.3,10.8c1.4,1,3,1.5,4.7,1.6c18,0.1,35.9,0.1,53.9,0
			c1.9-0.1,3.8-0.7,5.4-1.9c9.8-7.1,19.5-14.5,31.7-17c8-1.6,16.2-2.5,24.4-3.6c5.3-0.7,5.3-0.7,5.3-5.9c-0.1-2.5-0.1-5,0-7.5
			c0.4-3.7-1.2-4.5-4.5-4.3c-3.4,0.2-6.7,0.2-10.1,0c-10.6-0.5-19-9.2-19.2-19.8c-0.2-14.5-0.1-28.9,0-43.4c0-1.6,0.3-3.2,0.6-4.8
			c0.5-3,3.2-5,6.2-4.7c3,0.5,5,3.2,4.8,6.2c-0.2,15.1-0.4,30.2-0.5,45.3c0,7.3,5.1,11.1,13,9.5c-6.4-11.3-5.7-23.6-5.5-35.8
			c0.4-16.5,16-28.9,31.8-25.3c5.5,1.2,10.4,4.5,13.6,9.2c4.8,6.9,11.3,10.7,19.8,11.1c3.9,0.2,5.8,2.3,5.9,6.3
			c0.2,11.7,0.7,23.5-5.4,34.3c6.9,2,12.7-1.8,12.8-8.4c0.2-14.3,0.5-28.7-0.1-43c-0.8-18.3-20.3-30.2-37.3-23
			c-3.9,1.6-7.1,1.9-11,0.1c-7.9-3.6-15.8-2.8-23.4,1.1c-0.7,0.4-1.3,0.8-1.9,1.1c-3.2,1.7-6.2,1.1-7.9-1.6s-0.9-6.1,2.2-8
			c10.5-6.4,21.6-7.8,33.4-4c2.1,0.6,4.3,0.6,6.3,0c13.4-4.2,25.6-2,36.7,6.5c0.9,0.7,1.7,1.4,2.9,2.4V37.4H137.4
			c-1.2,0.1-2.5,0-3.7-0.1c-3.1-0.5-5-2.3-5-5.5s1.9-5.1,4.9-5.6c1.4-0.1,2.7-0.2,4.1-0.1h234.1V11.4H11.5v14.8H105
			c1.2-0.1,2.5,0,3.7,0.1c2.8,0.2,4.9,2.6,4.8,5.4c0.1,3.1-1.7,5.1-4.9,5.7c-1.1,0.1-2.2,0.2-3.4,0.1H33.7v106.7
			c0,1.1,0.1,2.3,0,3.4c-0.1,3-2.7,5.4-5.7,5.3c-3-0.1-5.2-2.2-5.5-5.5c-0.1-1.1,0-2.3,0-3.4V37.4c-3.4,0-6.7-0.2-10,0
			C6.7,38,2.6,35.9,0,30.7v-24L6.7,0H376.5z M330.6,180c-10.2-2-17.9-7.4-23.7-15.8c-2.4-3.5-6.6-5.3-10.8-4.7
			c-7.8,0.8-13.7,7.3-13.9,15.1c-0.1,4.6-0.2,9.2,0,13.8c0.5,12.9,6.2,22.8,16.8,30.1c5,3.4,9.7,3.5,14.8,0.1
			C327.6,209.5,332.1,196.3,330.6,180z M21.5,284.1h108.3c-3.7-3.2-6.7-6.2-10-8.8c-1.5-1.2-3.3-1.9-5.2-2
			c-29.8-0.1-59.6-0.1-89.4-0.1h-3.7V284.1z M316.1,230.3c-6,2.9-13,2.9-19.1,0.1c1,8.4-0.1,15.4-8.5,19c5.1,7,11.1,11.1,19.5,10.4
			c7-0.5,12.3-3.9,16.3-10.1C315.9,245.9,315.6,238.7,316.1,230.3z M349.4,221c-6.4,0.3-12.7,0.6-19,0.8c-1.7,0.1-3.3,0-3.2,2.4
			c0.1,4.1-0.1,8.2,0.1,12.3c0,1,0.9,2.6,1.7,2.8c6.7,1.7,13.4,3.2,20.4,4.8V221z M150.3,266.6c-4.9-3.7-9.5-7.4-14.3-10.7
			c-2.9-2.3-7.1-1.7-9.4,1.2c-2.5,2.9-2.2,7.2,0.6,9.7c0,0,0,0,0,0c4.2,4,8.7,7.7,13.2,11.7L150.3,266.6z M199.1,364.7
			c0.1-4.1-3.2-7.5-7.3-7.6s-7.5,3.2-7.6,7.3c-0.1,4,3.1,7.4,7.1,7.6C195.4,372.1,198.9,368.9,199.1,364.7L199.1,364.7z
			 M177.9,273.4l13.7,10.4l14.5-10.4H177.9z"/>
		<path class="st0" d="M191.6,50.2h124.6c6.8,0,8.3,1.5,8.3,8.4c0,6.4,0.1,12.7,0,19.1c-0.1,5.1-2,7-7.1,7c-83.8,0-167.6,0-251.4,0
			c-5.2,0-7.1-1.9-7.2-7.3c-0.1-6.6-0.1-13.2,0-19.8c0-5.5,1.9-7.3,7.5-7.3L191.6,50.2z M70.1,73.1H313V61.7H70.1V73.1z"/>
		<path class="st0" d="M128.4,110.8c-20.3,0-40.7,0-61,0c-1.2,0.1-2.5,0-3.7-0.2c-2.9-0.7-4.5-2.6-4.5-5.7c0-2.6,1.9-4.9,4.5-5.3
			c1.2-0.2,2.5-0.2,3.7-0.2c40.7,0,81.3,0,122,0c1.1-0.1,2.2,0,3.4,0.1c2.9,0.6,4.7,2.4,4.8,5.3c0.1,3.2-1.8,5.1-4.9,5.7
			c-1.1,0.1-2.2,0.2-3.4,0.1L128.4,110.8z"/>
		<path class="st0" d="M128.4,137h-61c-1.1,0.1-2.2,0-3.4-0.1c-3.1-0.6-4.9-2.5-4.8-5.7c0.1-3,1.9-4.8,4.8-5.3
			c1.1-0.1,2.2-0.2,3.4-0.1c40.7,0,81.3,0,122,0c1.2-0.1,2.5,0,3.7,0.2c2.6,0.4,4.5,2.6,4.5,5.3c0.1,3-1.6,4.9-4.4,5.6
			c-1.2,0.2-2.5,0.3-3.7,0.2H128.4z"/>
		<path class="st0" d="M178.6,189.4c-4,0-8,0.1-12,0c-4.3-0.1-6.4-2.1-6.4-6.5c-0.1-8.2-0.1-16.5,0-24.7c0-4.1,2.1-6.2,6.3-6.2
			c8.3-0.1,16.7-0.1,25,0c3.9,0,6,2.2,6,6.1c0.1,8.3,0.1,16.7,0,25.1c0,4.1-2.1,6.2-6.3,6.2S182.8,189.4,178.6,189.4z M171.7,163.3
			V178h14.4v-14.7H171.7z"/>
		<path class="st0" d="M197.6,219.4c0,4.1,0.1,8.2,0,12.3s-2.1,6.3-6.2,6.3c-8.4,0.1-16.7,0.1-25.1,0c-4.1,0-6.1-2.2-6.1-6.4
			c-0.1-8.2-0.1-16.5,0-24.7c0-4.1,2.1-6.3,6.2-6.3c8.4-0.1,16.7-0.1,25,0c4.1,0,6.1,2.2,6.1,6.4S197.6,215.2,197.6,219.4z
			 M186.2,226.7v-14.6h-14.5v14.6L186.2,226.7z"/>
		<path class="st0" d="M102.2,163.2c-12,0-23.9,0-35.9,0c-4.6,0-7.2-2.2-7.1-5.8c0.1-3.4,2.7-5.4,7.1-5.4c23.9,0,47.9,0,71.8,0
			c4.6,0,7.2,2.2,7.1,5.8s-2.7,5.4-7.1,5.4C126.1,163.2,114.2,163.2,102.2,163.2z"/>
		<path class="st0" d="M312.1,362.3c0,4.7,0,9.5,0,14.2c-0.1,3.8-2.2,6.2-5.5,6.3c-3.4,0.1-5.7-2.3-5.7-6.4c0-9.3,0-18.7,0-28
			c0-3.8,2.2-6.2,5.5-6.3s5.7,2.4,5.7,6.4C312.2,353.1,312.1,357.7,312.1,362.3z"/>
		<path class="st0" d="M127.6,189.4c-3.6,0-7.2,0-10.8,0c-4.4,0-6.9-2-7-5.5s2.4-5.7,6.8-5.7c7.3,0,14.7,0,22,0
			c4.1,0,6.6,2.2,6.6,5.5s-2.5,5.6-6.8,5.7C134.8,189.4,131.2,189.4,127.6,189.4z"/>
	</g>
</g>
</svg>
