<?xml version="1.0" encoding="utf-8"?>
<!-- Generator: Adobe Illustrator 24.0.2, SVG Export Plug-In . SVG Version: 6.00 Build 0)  -->
<svg version="1.1" id="Capa_1" xmlns="http://www.w3.org/2000/svg" xmlns:xlink="http://www.w3.org/1999/xlink" x="0px" y="0px"
	 viewBox="0 0 347.2 348" style="enable-background:new 0 0 347.2 348;" xml:space="preserve">
<style type="text/css">
	.st0{fill:#1D2A37;}
</style>
<title>integridad</title>
<g id="Capa_2_1_">
	<g id="Capa_1-2">
		<path class="st0" d="M344.4,153c-5.9-14-11-28.4-16.4-42.6c-4.1-10.8-8.2-21.7-12.4-32.6c1.4-0.7,2.7-1.3,3.9-2
			c9.9-5.6,15.4-14,15.9-25.4c0.2-4.6-2.6-7.7-6.7-7.9s-7.1,2.4-7.6,7c-0.9,8.7-5.8,14.2-13.4,15.2c-7.6,1-13.8-3.1-16.7-11.3
			c-2.7-7.5-7.1-10.8-15.1-10.9c-9-0.1-18,0-26.9,0h-4.7c0-5.2,0.3-10-0.1-14.6c-0.8-11.1-9.8-19.8-20.9-20.4
			c-4.8-0.2-9.6,1.4-14.9,2.2c-9.9-12.9-27.7-13-38.5,1c-5.1-3.2-11.3-4.2-17.2-2.9c-6.1,1.3-10.7,5-14.4,9.9
			c-8.9-4.8-17.5-4.8-25.7,0.9s-10.2,14.3-9.8,24h-4.6c-8.9,0-17.7-0.1-26.6,0c-8.2,0-12.6,3.3-15.4,11c-2.8,7.9-8.9,12.1-16.4,11.2
			c-7.7-0.9-12.6-6.4-13.5-15c-0.5-4.8-3.4-7.5-7.8-7.2c-4.1,0.3-6.7,3.4-6.5,8C12.5,62,18,70.4,28,75.9c1.2,0.6,2.3,1.2,3.6,1.9
			c-0.5,1.3-0.8,2.3-1.2,3.4c-9.5,25.1-19.1,50.1-28.6,75.2c-0.9,2.1-1.5,4.2-1.7,6.5c-1,19.3,11.5,36.7,30.1,42.1
			c18.7,5.5,38.7-2.9,47.8-20.1c5.3-10.1,7-20.4,2.3-31.6c-5.7-13.3-10.4-27-15.6-40.5c-4.4-11.5-8.7-23-13.1-34.5
			C64,70.4,64,70.4,69.7,58.5c0.4-0.8,1.2-1.4,2.1-1.5c10.2-0.1,20.4-0.1,31-0.1c0,9,0.1,17.6,0,26.1c-0.3,12.3,2.5,24.5,8.3,35.3
			c4.8,9,6.3,18.6,5.7,28.7c-0.1,1.1-0.5,2.1-1.3,2.8c-4.4,3.6-5.6,8.2-5.6,13.6c0,35.2,0.1,70.4,0.1,105.6v6.9
			c1.9,4,6.7,5.7,10.7,3.8c1.7-0.8,3-2.1,3.8-3.8V161.6h96.2v34.1h-3.8c-14.4,0-28.7,0-43.1,0c-4.9,0-8,2.7-8.3,6.8
			c-0.3,4.4,3.1,7.6,8.2,7.6c14.2,0,28.4,0,42.7,0h4.3v123h-96.3v-36.5c-1.9-4-6.7-5.7-10.7-3.8c-1.7,0.8-3,2.1-3.8,3.8v6.8
			c0,11.5,0,23,0,34.5c0,7.8,2.2,10,10,10h104.5c9.1,0,11.1-2,11.1-10.9V230.5c0-22.4,0-44.8,0-67.1c0-5.4-1.4-10.1-5.7-13.6
			c-0.9-1-1.3-2.2-1.3-3.5c0-8.8,2.3-17.4,6.6-25.1c9.9-17.2,9.3-35.9,8.5-54.7c-0.1-3.1,0-6.2,0-9.4H276c2.8,4.5,4.9,9,8.1,12.5
			s7.5,5.9,11.5,8.9c-0.2,0.6-0.5,1.5-0.9,2.4c-9.5,25.1-19.1,50.1-28.6,75.2c-0.9,2-1.5,4.2-1.8,6.4c-1,18.7,10.6,35.8,28.3,41.8
			c17.7,6,37.2-0.7,47.4-16.3C347.1,177.4,349.7,165.8,344.4,153z M42.3,192c-13.7,0.3-25.6-9.6-27.1-22.4h52.6
			C66.8,181.6,55.1,191.8,42.3,192L42.3,192z M65.2,154.7H17.9l23.7-62.2C49.6,113.8,57.3,134.1,65.2,154.7z M181.2,21.4
			c0.2-4,4.4-6.9,8.6-6.8c4.3,0.1,7.9,3.4,8.3,7.7c0.2,2.9,0.3,5.7,0.2,8.6c0,5.5,0,10.9,0,16.7h-17.1
			C181.1,38.8,180.9,30.1,181.2,21.4L181.2,21.4z M149.3,29.2c0.3-4.8,4.5-7.8,9.1-7.5c4.4,0.3,7.7,3.7,7.9,8.4c0.1,3.1,0,6.3,0,9.4
			l0,0c0,3.3,0.1,6.5,0,9.7c-0.1,4.5-3.6,8.1-8.1,8.3c-4.3,0.3-8.6-2.9-8.9-7.4C148.9,43.1,148.9,36.1,149.3,29.2L149.3,29.2z
			 M117.4,37.1c0.1-4.6,3.7-8.3,8.3-8.5c4.6-0.1,8.5,3.4,8.9,7.9c0.2,2.6,0.2,5.2,0.1,7.9c-0.3,5.1-4.2,8.9-8.9,8.7
			s-8.1-3.8-8.3-8.9c0-1.1,0-2.2,0-3.4l0,0C117.4,39.6,117.3,38.3,117.4,37.1z M228.6,96.2c-0.5,4.7-1.9,9.3-4.1,13.5
			c-5.9,11.6-10.5,23.4-10.5,37h-82c-0.7-6.1-0.9-12.4-2.3-18.4c-1.5-5.9-3.6-11.7-6.2-17.2c-4-8.4-6.3-17-6.1-26.4
			c0.1-6.1,0-12.2,0-18.7c8,2.7,15.3,1.8,22.1-2.8c7.9,8.6,17.2,11.2,28.3,6.6c0.5,1.1,0.9,2.1,1.3,3.1
			c5.3,13.4,18.2,22.2,32.6,22.3c2.5,0,5,0.1,7.5,0c4.4-0.2,7.5-3.2,7.5-7.2s-2.9-7-7.5-7.2c-3.7-0.2-7.5,0-11.2-0.5
			c-9-1.4-15.9-8.8-16.7-17.9h17.1c7.7,0,15.5,0,23.2,0c4.5,0,7.5,2.2,7.5,6.2C229.3,77.7,229.4,87,228.6,96.2z M229.8,48.2H213
			c0-7-0.4-13.6,0.1-20.1c0.4-4.2,4.5-6.7,8.8-6.4c3.9,0.2,7.7,3.3,7.8,7.2C230,35.4,229.8,42,229.8,48.2L229.8,48.2z M305.8,92.5
			c8,21.2,15.8,41.6,23.7,62.4H282L305.8,92.5z M306.5,192c-13.4,0.4-25-9.2-27.1-22.4h52.8C330.5,182.1,319.3,191.9,306.5,192
			L306.5,192z"/>
		<path class="st0" d="M204.3,178.7c-0.2,4.2-3.7,7.4-7.8,7.4c-4-0.2-7.2-3.5-7.2-7.6c0.1-4,3.3-7.3,7.4-7.5
			C200.8,171.1,204.2,174.5,204.3,178.7z"/>
	</g>
</g>
</svg>
