<?xml version="1.0" encoding="UTF-8"?>
<svg width="46px" height="46px" viewBox="0 0 46 46" version="1.1" xmlns="http://www.w3.org/2000/svg" xmlns:xlink="http://www.w3.org/1999/xlink">
    <title>transferencia int-12</title>
    <g id="Page-1" stroke="none" stroke-width="1" fill="none" fill-rule="evenodd">
        <g id="transferencia-int-12" fill="#FFFFFF" fill-rule="nonzero">
            <path d="M3.68,23 C3.6654412,15.813628 7.59276435,9.19799643 13.9086701,5.76966017 C20.2245758,2.3413239 27.9118149,2.65245588 33.93,6.58 L31.11,9.4 C30.7049614,9.79901311 30.583765,10.4044759 30.8040072,10.9286524 C31.0242495,11.452829 31.5415221,11.7900274 32.11,11.78 L40.49,11.78 C41.2593102,11.7800196 41.8845049,11.1592906 41.89,10.39 L41.89,2 C41.89,1.43626373 41.5520335,0.927473725 41.0323099,0.709102478 C40.5125863,0.490731231 39.9125882,0.605384601 39.51,1 L35.94,4.56999814 C32.2226851,1.96962673 27.7965582,0.573372199 23.26,0.569998142 C16.1775424,0.567117689 9.51209907,3.91833768 5.29011101,9.60481553 C1.06812295,15.2912934 -0.211602233,22.6411991 1.84,29.42 C1.97934404,29.9051734 2.3690827,30.2777656 2.86003063,30.3951545 C3.35097856,30.5125435 3.86710561,30.3565498 4.2108471,29.9868854 C4.55458859,29.6172209 4.67271136,29.0911333 4.52,28.61 C3.97110111,26.7902542 3.6881747,24.9007099 3.68,23 L3.68,23 Z" id="Path"></path>
            <path d="M44.65,16.5 C44.5395263,15.9834409 44.1477074,15.5730419 43.6368167,15.4387715 C43.1259261,15.304501 42.5829562,15.4692222 42.2327803,15.8647151 C41.8826044,16.2602079 41.784849,16.8191295 41.98,17.31 C43.7625481,23.2360487 42.6387001,29.6559748 38.9490621,34.6240834 C35.259424,39.5921919 29.4383351,42.5236437 23.25,42.53 C19.4635309,42.535721 15.7580703,41.4338157 12.59,39.36 L15.39,36.52 C15.7846154,36.1174118 15.8992688,35.5174137 15.6808975,34.9976901 C15.4625263,34.4779665 14.9537363,34.1399195 14.39,34.14 L6,34.14 C5.62331454,34.1376494 5.26203983,34.2893848 5,34.56 C4.7347346,34.824085 4.59003882,35.1858244 4.6,35.56 L4.69,43.95 C4.68588615,44.5181003 5.02549475,45.0323605 5.54958384,45.2516446 C6.07367293,45.4709288 6.67831726,45.3517535 7.08,44.95 L10.58,41.41 C14.2874833,44.0074381 18.7031825,45.4037066 23.23,45.4101037 C30.3314847,45.4316054 37.0202144,42.0755515 41.2478941,36.3695656 C45.4755737,30.6635796 46.7385275,23.2874593 44.65,16.5 Z" id="Path"></path>
            <path d="M17.23,23.5 L22.23,23.5 L21.79,25.74 L12.79,25.74 L13.15,24 L18.55,19.77 C19.061357,19.3863235 19.5187904,18.9356171 19.91,18.43 C20.1546192,18.1038569 20.2878467,17.7076803 20.29,17.3 C20.3230113,16.9135182 20.1572422,16.5367702 19.85,16.3 C19.4714304,16.0330779 19.0119472,15.9058364 18.55,15.94 C18.0736093,15.9396638 17.6039877,16.0527844 17.18,16.27 C16.736049,16.4876794 16.3439089,16.7979816 16.03,17.18 L14.19,15.84 C14.7089817,15.1494032 15.3980364,14.60505 16.19,14.26 C17.0731774,13.8651222 18.0327619,13.6704734 19,13.69 C19.7431091,13.6731255 20.481747,13.80928 21.17,14.09 C21.7535981,14.326164 22.2593727,14.721084 22.63,15.23 C22.9694602,15.7088269 23.1480472,16.2831067 23.14,16.87 C23.1419277,17.6014634 22.929891,18.3175217 22.53,18.93 C21.9533591,19.7580322 21.2398093,20.4817273 20.42,21.07 L17.23,23.5 Z" id="Path"></path>
            <polygon id="Path" points="34.07 23.25 32.13 23.25 31.63 25.74 29 25.74 29.51 23.25 23.09 23.25 23.44 21.41 30.44 13.89 33.44 13.89 26.91 21 30 21 30.44 18.78 33 18.78 32.58 21 34.58 21"></polygon>
            <path d="M21,29.11 C21.320008,29.4161417 21.4883778,29.8480469 21.46,30.29 C21.4593187,30.4749288 21.4392083,30.6592742 21.4,30.84 L20.88,33.41 L19.49,33.41 L19.99,30.92 C20.0013343,30.8136344 20.0013343,30.7063656 19.99,30.6 C20.0017407,30.3969733 19.9294096,30.1980629 19.79,30.05 C19.6242591,29.9146613 19.4135713,29.8468127 19.2,29.86 C18.8858057,29.8482832 18.5787353,29.9554008 18.34,30.16 C18.092375,30.3975674 17.9305867,30.7105926 17.88,31.05 L17.41,33.41 L16.1,33.41 L17.37,27 L18.72,27 L18.29,29.18 C18.6911885,28.8481492 19.1995971,28.6739393 19.72,28.69 C20.1853477,28.6558126 20.6453714,28.8067579 21,29.11 L21,29.11 Z" id="Path"></path>
            <path d="M24.87,28.85 C25.192445,28.7437784 25.5305805,28.6930581 25.87,28.7 L25.63,29.94 L25.32,29.94 C24.9598054,29.9161557 24.6035476,30.0265956 24.32,30.25 C24.0505749,30.4954746 23.8769486,30.8285536 23.83,31.19 L23.38,33.43 L22.05,33.43 L23,28.77 L24.27,28.77 L24.16,29.32 C24.3505245,29.1028275 24.5956587,28.9405556 24.87,28.85 Z" id="Path"></path>
            <path d="M26.3,33.34 C25.9999455,33.2789323 25.7146426,33.1600561 25.46,32.99 L26,32 C26.2253644,32.1436942 26.471613,32.2516388 26.73,32.32 C27.0165361,32.3997124 27.3125828,32.4400824 27.61,32.44 C27.8429144,32.4534259 28.0757497,32.4123373 28.29,32.32 C28.4227781,32.2639541 28.5093338,32.1341205 28.51,31.99 C28.5086289,31.8706352 28.4261525,31.7675397 28.31,31.74 C28.1054688,31.6670722 27.8945436,31.6135039 27.68,31.58 C27.3998733,31.5244654 27.1228309,31.4543704 26.85,31.37 C26.6374611,31.2911802 26.445868,31.1645919 26.29,31 C26.1294438,30.8070221 26.0473418,30.560716 26.06,30.31 C26.0457175,29.8248744 26.2891708,29.3683994 26.7,29.11 C27.205459,28.8044082 27.7898802,28.6548242 28.38,28.68 C28.6958494,28.6825173 29.0106902,28.7160111 29.32,28.78 C29.5922097,28.8399616 29.8547347,28.9375671 30.1,29.07 L29.61,30.07 C29.1952488,29.8270273 28.7204693,29.7057332 28.24,29.72 C28.0124348,29.7051471 27.7849343,29.7499578 27.58,29.85 C27.4448615,29.8992709 27.3536273,30.0262054 27.35,30.17 C27.3492576,30.294445 27.4307397,30.4044459 27.55,30.44 C27.7650819,30.514285 27.9857947,30.5711353 28.21,30.61 C28.4846964,30.6604405 28.7553983,30.7306225 29.02,30.82 C29.2264872,30.8895687 29.412176,31.0099225 29.56,31.17 C29.7217859,31.3589301 29.8073541,31.6013734 29.8,31.85 C29.8164568,32.3407068 29.5632292,32.8011205 29.14,33.05 C28.6334595,33.3520959 28.0491103,33.4981832 27.46,33.47 C27.0694285,33.4751409 26.6797445,33.4314694 26.3,33.34 L26.3,33.34 Z" id="Path"></path>
        </g>
    </g>
</svg>