<?xml version="1.0" encoding="utf-8"?>
<!-- Generator: Adobe Illustrator 24.0.2, SVG Export Plug-In . SVG Version: 6.00 Build 0)  -->
<svg version="1.1" id="Capa_1" xmlns="http://www.w3.org/2000/svg" xmlns:xlink="http://www.w3.org/1999/xlink" x="0px" y="0px"
	 viewBox="0 0 383.3 237.1" style="enable-background:new 0 0 383.3 237.1;" xml:space="preserve">
<style type="text/css">
	.st0{fill:#1D2A37;}
</style>
<title>Recurso 1</title>
<g id="Capa_2_1_">
	<g id="Capa_1-2">
		<path class="st0" d="M383.3,111.8c-2.1,4.9-5.9,7.6-10.9,9.3c-8.3,3-16.5,6.3-24.7,9.7c-5,2.1-9.6,2.3-14.1-1.2
			c-0.9-0.5-2-0.5-2.9,0c-6.7,4.1-13.2,8.4-19.8,12.6c4.3,21.3-5.4,33-26.1,31.6c-4.2,15.4-10.1,20-26.9,20.6
			c-0.7,7.3-3.6,13.6-10,17.8c-6.2,4.1-13,4.7-20.3,2.6c-2.1,10.4-7.9,17.2-18.4,19.4c-10.6,2.3-18-4-25.8-10.2
			c-1.8,2-3.4,4-5.2,5.9c-5.7,6.1-12.6,8.4-20.7,6.3s-12.9-7.6-14.8-15.8c-0.4-1.2-1.3-2.2-2.5-2.6c-11.7-1.3-17.5-6.3-20.3-17.6
			c-0.1-0.5-0.3-0.9-0.4-1.3c-14.3-1.8-20.1-6.7-22.5-19.3c-19.6-3-27.1-14.8-19.6-31.7c-1.3-0.9-2.6-2-4-2.9
			c-7.3-4.6-14.5-9.3-21.9-13.7c-1.1-0.6-2.8-0.3-4.2-0.2c-3.3,0.1-6.8,1.3-9.7,0.3c-10.2-3.5-20.3-7.7-30.3-11.8
			c-6.3-2.6-9-8.8-6.5-15.1C13.6,72.2,26.3,39.8,39.2,7.4c2.5-6.3,8.7-9,15.1-6.5c10,3.8,19.9,7.8,29.9,11.8c5.2,2.1,7.6,6,7.8,11.6
			c0.1,1.2,0.8,2.3,1.8,2.9c7,3.5,14.8,5.3,22.6,5.3c15.6,0.3,31.5,0,46.7,4.9c1.1,0.3,3-0.7,3.9-1.7c5.1-5.1,10.2-10.4,17.6-11.3
			c5.8-0.7,11.9,0,17.8,0.5c4.3,0.3,8.6,1.3,12.9,2s6.6,3.1,6.2,6.5c-0.4,3.6-3.4,5.4-7.9,4.7c-6.3-0.9-12.6-1.9-18.8-3
			c-6.8-1.2-12.2,1-16.9,5.8c-13.2,13.5-27.5,25.8-42.8,36.9c-2.7,2-5.6,3.8-8.3,5.7c-3.6,2.6-3.6,4.5-0.1,7.3
			c6.5,5.2,13.7,5.5,21.3,3.2c9.8-3,17.8-8.9,25.4-15.4c8.1-6.9,13.8-6.7,21.4,0.7c15.7,15.2,34.2,21.9,56,18.8
			c2.8-0.5,5.8,0.3,8,2.1c14.9,11.1,29.9,22.1,45,33.3l24.1-15.5c-10.6-27-21.2-53.8-31.9-81c-2.2,0.6-4.3,1.3-6.3,2.2
			c-14.3,7.1-29.2,7.7-44.4,4c-1.3-0.3-2.7-0.3-4.1-0.7c-3.3-0.8-4.9-3.2-4.6-6.3c0.3-2.9,2.9-5,5.7-4.7c0.1,0,0.3,0,0.4,0.1
			c5.4,0.6,10.9,1.4,16.3,2.4c5.8,1,11.8,0.4,17.3-1.8c5.1-1.9,10.2-3.8,15.3-5.7c-0.1-8.6,1.9-11.5,9.7-14.6
			c9-3.6,18-7.2,27.1-10.7c7.4-2.9,13.3-0.3,16.2,7.2c4.6,11.6,9.2,23.2,13.7,34.8c1.7,4.4,0.9,7.4-2.5,8.9s-6.1-0.2-7.9-4.6
			c-4.7-11.9-9.4-23.9-14.3-36.2l-31,12.2l38.5,97.9l31-12.2l-12.9-33c-0.4-0.9-0.8-1.8-1.1-2.8c-0.9-3.1,0.5-6.1,3.2-7.1
			c2.8-1.2,6,0.2,7.1,3c0,0,0,0,0,0c1.4,2.9,2.4,6,3.7,9c3.7,9.2,7.5,18.4,11.2,27.6L383.3,111.8z M54.8,119.9L85,139.1
			c3.2-3.8,6-7.2,9-10.4c5.5-5.8,12.4-7.8,20.1-5.8c7.9,2.1,12.8,7.4,14.7,15.3c0.3,1.1,0.6,2.1,0.9,3.2c5.5-0.4,10.9,1.4,15.2,4.9
			c4.4,3.7,6.4,8.7,7.3,14.1c13.4,0.8,18.9,5.4,22.8,19.2c19.6-0.6,29.7,21.2,15.7,36.4c4,2.4,7.7,5.3,11.9,6.9
			c4.9,1.9,10.5-1,12.8-5.8s1.1-9.5-3.3-12.9c-2.6-2-5.1-4-7.7-6c-4-3.1-4.8-6.2-2.5-9.1s5.4-2.7,9.2,0.2c0.9,0.7,1.8,1.4,2.7,2.1
			c5.1,3.8,10,7.9,15.3,11.4c5,3.5,11.9,2.3,15.5-2.7c0,0,0.1-0.1,0.1-0.1c3.4-5,2.3-11.2-2.9-15.1c-4.6-3.6-9.3-7.1-13.9-10.8
			c-3.2-2.5-3.8-5.8-1.7-8.4s5.2-2.9,8.6-0.4c1.5,1.1,3,2.3,4.4,3.4c5.4,4.1,10.6,8.3,16.1,12.2c5,3.7,12,2.8,15.7-2.2
			c0.1-0.1,0.1-0.2,0.2-0.3c3.4-5.1,2.1-11.9-2.9-15.4c0,0-0.1,0-0.1-0.1c-5.7-3.8-11.1-8-16.3-12.6c-1.5-1.5-2.3-3.6-2.2-5.8
			c0.6-1.9,2.2-3.5,4.1-4.1c1.7-0.4,4.1,0.7,5.7,1.8c7.7,5.7,15.3,11.7,23,17.4c6,4.5,12.5,3.8,16.6-1.5c3.9-5,2.6-12.2-3.1-16.5
			c-13.9-10.4-27.9-20.6-41.9-30.8c-1.5-1-3.3-1.5-5.1-1.4c-24.3,2.2-44.9-5.8-62.2-22.6c-2.3-2.3-3.7-2.3-6.1-0.2
			c-8.5,7.6-17.8,14.1-28.8,17.6s-21.7,2.8-31.3-4.2c-10.7-7.9-10.2-19,0.6-26.7s20.9-16.1,31.3-24.3c0.8-0.7,1.5-1.4,2.1-2.2
			l-0.3-1.4c-13.3-0.7-26.6-1.7-39.9-2c-6.8-0.2-13.4-0.9-19.6-3.8c-2.3-1.1-4.8-1.9-7.4-3L54.8,119.9z M42.2,121.3
			C55.1,88.4,67.8,56,80.7,23.4l-31-12.2C36.8,44,24,76.4,11.2,109.1L42.2,121.3z M96.1,168.2c1-0.5,3.5-0.9,4.9-2.4
			c5.5-6,10.8-12.1,15.7-18.5c2.8-3.7,1.6-8.8-1.9-11.8s-8.8-3-11.9,0.3c-5.4,5.9-10.6,12-15.5,18.2c-2.2,2.7-2,6.1-0.3,9.2
			S91.3,168,96.1,168.2z M140.7,163c0-4.9-2.3-8.4-5.7-9.7c-3.9-1.4-7.5-0.8-10.3,2.3c-4.9,5.5-9.7,11.1-14.3,16.8
			c-3.2,3.8-2.6,9.5,1.2,12.7c0,0,0,0,0.1,0.1c3.6,3.2,9.2,2.9,12.4-0.7c0,0,0-0.1,0.1-0.1c5-5.5,9.8-11.3,14.5-17.1
			C139.7,166,140.3,164.5,140.7,163z M186.5,200.6c-0.3-3.8-2.6-7.2-6.1-8.7c-3.7-1.6-8-0.6-10.5,2.5c-4.6,5.2-9.1,10.5-13.6,15.9
			c-3.6,4.4-3.2,10,0.8,13.4s9.4,2.9,13.3-1.5c4.5-5.1,9-10.4,13.3-15.7C184.9,204.8,185.5,202.6,186.5,200.6L186.5,200.6z
			 M163.8,181.2c-0.6-4-2.7-7.2-6.3-8.6c-3.6-1.5-7.7-0.5-10.2,2.5c-4.7,5.3-9.3,10.7-13.8,16.2c-3.6,4.4-3.2,9.6,0.7,13.1
			s9.6,3,13.3-1.2c4.6-5.2,9.2-10.5,13.5-16C162.4,185.4,162.9,183.2,163.8,181.2L163.8,181.2z"/>
	</g>
</g>
</svg>
