<?xml version="1.0" encoding="utf-8"?>
<!-- Generator: Adobe Illustrator 24.0.2, SVG Export Plug-In . SVG Version: 6.00 Build 0)  -->
<svg version="1.1" id="Capa_1" xmlns="http://www.w3.org/2000/svg" xmlns:xlink="http://www.w3.org/1999/xlink" x="0px" y="0px"
	 viewBox="0 0 372 383.3" style="enable-background:new 0 0 372 383.3;" xml:space="preserve">
<style type="text/css">
	.st0{fill:#1D2A37;}
</style>
<title>innovacion</title>
<g id="Capa_2_1_">
	<g id="Capa_1-2">
		<path class="st0" d="M188.2,0c2.9,2.1,3.7,5,3.6,8.4c-0.2,5.2,0,10.4-0.1,15.7c-0.1,4.5-2.3,7.3-5.9,7.1s-5.4-2.7-5.5-7.1
			c-0.1-5.2,0.1-10.5-0.1-15.7c-0.1-3.4,0.6-6.3,3.4-8.5H188.2z"/>
		<path class="st0" d="M278.9,134.4c1.1,6.8,2.5,13.4,3.1,20s0.1,13.4,0.1,20.8h4c12.1,0,24.3-0.1,36.4,0.1c2.8,0,4-0.8,5.1-3.4
			c4.1-10,14.7-15.7,25.3-13.8c10.6,1.9,18.5,10.8,19.2,21.6c0.6,12.8-9.2,23.6-22,24.2c-9.9,0.5-19-5.4-22.6-14.6
			c-0.9-2.3-2-2.9-4.3-2.9c-13.3,0.1-26.5,0-39.8,0.1c-1.2,0-3.2,0.9-3.4,1.7c-4.6,17.7-15.2,31.8-26.7,45.4
			c-0.6,0.8-1.2,1.6-2.2,2.9c1.7,0.1,3,0.2,4.3,0.2h48.4c12.3,0,18.2,5.8,18.2,18.1c0,9.1,0.1,18.2-0.1,27.3c0,2.7,0.5,4.1,3.3,5.2
			c10.3,4.1,16.1,15,13.9,25.8c-2.6,12.6-15,20.6-27.5,17.9c-8.7-1.8-15.6-8.5-17.7-17.1c-2.8-11.1,3.1-22.6,13.8-26.8
			c2.4-1,3.2-2,3.1-4.6c-0.2-9.6,0-19.2-0.1-28.8c0-4.5-1.1-5.7-5.5-5.7c-20.2,0-40.5,0-60.7,0c-1.1,0-2.7,0.4-3.3,1.1
			c-7.6,10.6-12.5,22.3-13.4,35.8c2.5,0,4.7-0.1,6.9,0c9,0.4,15.9,7.1,16.1,16c0.2,10.4,0.2,20.7,0,31.1c0,8.7-6.9,15.8-15.6,16
			c-4.1,0.2-8.2,0-12.9,0c0,3.8,0,7.2,0,10.7c-0.1,14.5-9.8,24.2-24.2,24.2c-8.1,0-16.3,0-24.4,0c-13.6-0.1-23.4-9.7-23.7-23.2
			c-0.1-3.7,0-7.4,0-11.6c-3.9,0-7.4,0-10.8,0c-11-0.1-17.7-6.7-17.8-17.8c-0.1-9,0-18,0-26.9c0-12,6.6-18.5,18.6-18.5h4.6
			c-0.8-13.5-5.6-25-13.2-35.6c-0.8-0.9-2-1.4-3.2-1.4c-20.5-0.1-41-0.1-61.5-0.1c-3.4,0-5,1.6-5,5c0,10.1,0.1,20.2-0.1,30.3
			c0,2.6,1.5,3,3.2,3.7c11.8,4.9,17.4,18.4,12.5,30.2c-4.9,11.8-18.4,17.4-30.2,12.5c-6.7-2.8-11.7-8.6-13.5-15.6
			c-2.9-11.3,3.1-22.9,14-27c2.3-0.9,2.9-2,2.9-4.3c-0.1-9.9-0.1-19.7,0-29.6c0-10.1,6.2-16.4,16.4-16.4c16.6-0.1,33.2,0,49.9,0h4.8
			c-2.4-3-4.3-5.4-6.3-7.8c-10-12.1-18.7-25-22.8-40.4c-0.5-1.1-1.6-1.8-2.8-2c-13.9-0.1-27.7-0.2-41.6,0.1c-1.1,0-2.6,1.8-3.2,3.1
			c-4.9,11.8-18.4,17.5-30.3,12.6C2.7,197.5-3,183.9,1.9,172.1c2.9-7.1,9.1-12.3,16.6-13.8c10.8-2.3,21.8,3.4,26,13.6
			c1.1,2.6,2.3,3.4,5.1,3.4c12.1-0.2,24.2-0.1,36.4-0.1h4c-1.4-14,0.1-27.4,3.7-41h-4.6c-16.6,0-33.2,0-49.9,0
			c-11.6,0-17.5-6-17.5-17.5c0-10.5,0-20.9,0-31.6c-1.2-0.5-2.4-0.9-3.5-1.4C6.6,78.5,1.4,64.9,6.5,53.2s18.8-17,30.5-11.8
			c6.7,2.9,11.5,8.8,13.2,15.9c2.5,10.8-3.1,21.8-13.2,26.1c-3.1,1.3-4,2.8-3.9,6c0.2,9,0.1,18,0.1,26.9c0,5.4,1,6.4,6.2,6.4
			c18.4,0,36.7-0.1,55.1,0.1c2.7,0,3.7-1.1,5-3.2c4-6.6,8.2-13.1,12.7-19.3c3-4.2,6.3-4.7,9.2-2.2s2.6,5.5-0.6,9.5
			c-19.3,24.1-24.4,51.3-16.5,80.9c3.4,12.9,11.5,23.4,19.8,33.6c5.7,7.1,11.5,14.1,16.9,21.5c8.2,11.1,13.3,24.2,14.6,37.9
			c0.1,1.1,0.3,2.2,0.6,3.5h24v-83c-4.9,0-9.9,0.1-14.9,0c-4.5-0.1-7.3-3.6-6-7.4c0.9-2.6,3-3.9,5.8-3.9c14,0,28,0,42,0
			c3.9,0,6.1,2.2,6.2,5.5s-2.3,5.7-6.1,5.7c-5,0.1-9.9,0-15.1,0v82.9h23.3c2-7.6,3.5-15.4,6-22.7c4-11.7,11.6-21.4,19.3-31
			c6-7.5,12-15,17.7-22.8c27-37.4,14.5-111.4-50.8-127.5c-23.7-5.8-46.4-2.5-67.4,10.2c-4,2.4-7.3,2-9.1-1.1s-0.7-6.1,3.3-8.6
			c45.4-28.1,112.4-15.4,138.7,38.8c1,2.1,2.2,2.6,4.3,2.6c18.6-0.1,37.2,0,55.9,0c4.7,0,5.9-1.2,5.9-6.1c0-9.5-0.1-19,0.1-28.4
			c0-2.6-0.8-3.6-3.1-4.6c-8.9-3.5-14.7-12.1-14.5-21.6c0.2-12.8,10.7-23.1,23.6-22.9c9.4,0.1,17.8,5.9,21.2,14.6
			c4.7,11.6-0.8,24.7-12.3,29.6c-2.9,1.2-3.6,2.5-3.6,5.4c0.2,9.6,0.1,19.2,0,28.8c0,10.1-6.3,16.4-16.4,16.4
			c-17.4,0.1-34.7,0-52.1,0C280.7,134.2,279.7,134.3,278.9,134.4z M239.3,311.2v-6.9c0-6.5-1.4-7.9-7.9-7.9h-90.3
			c-1.3,0-2.8-0.4-3.7,0.2c-1.7,1.1-4.1,2.5-4.5,4.2c-0.7,3.2-0.2,6.6-0.2,10.4h4.3c10.5,0,21,0,31.5,0c3.2,0,5.6,1,6.5,4.4
			c1,3.8-1.8,6.9-6.5,7c-10.6,0.1-21.2,0-31.9,0h-4.1c0,2.1,0,3.6,0,5.1c0,8.8,0.6,9.5,9.3,9.5h88.8c1.4,0,3,0.4,4.1-0.2
			c1.7-0.9,4-2.4,4.3-3.9c0.7-3.3,0.2-6.8,0.2-10.4h-31.5c-2.5,0-5,0.1-7.5-0.1c-3.1-0.1-5.6-2.6-5.6-5.8c0,0,0-0.1,0-0.1
			c0.1-3,2.3-5.1,5.6-5.3c1.5-0.1,3,0,4.5,0L239.3,311.2z M161.1,348.6c0,4-0.1,7.9,0,11.7c0,6.3,5,11.5,11.4,11.6
			c9,0.2,18,0.2,26.9,0c5.6-0.1,10.6-4.4,11.1-9.8c0.4-4.4,0.1-8.9,0.1-13.5H161.1z M23.1,192.6c6.5-0.1,11.7-5.4,11.6-11.8
			s-5.4-11.7-11.8-11.6c-6.5,0.1-11.7,5.4-11.6,11.8c0,0,0,0,0,0C11.5,187.4,16.7,192.5,23.1,192.6L23.1,192.6z M348.7,192.6
			c6.5,0,11.7-5.3,11.7-11.7c0-6.5-5.3-11.7-11.7-11.7c-6.5,0-11.7,5.3-11.7,11.7c0,0,0,0,0,0C337.1,187.3,342.2,192.5,348.7,192.6
			L348.7,192.6z M356.3,62.5c0.1-6.5-5.2-11.9-11.7-12s-11.9,5.2-12,11.7c-0.1,6.5,5.2,11.9,11.7,12c0.1,0,0.2,0,0.4,0
			C351.1,74.1,356.3,68.9,356.3,62.5L356.3,62.5z M27.6,74.2c6.5-0.1,11.6-5.4,11.5-11.9s-5.4-11.6-11.9-11.5
			c-6.4,0.1-11.5,5.3-11.5,11.6c0,6.5,5.2,11.8,11.6,11.8C27.4,74.2,27.5,74.2,27.6,74.2z M67.6,308.7c0-6.5-5.2-11.8-11.7-11.8
			c-6.5,0-11.8,5.2-11.8,11.7c0,6.4,5.1,11.7,11.5,11.8c6.5,0.1,11.9-5,12-11.6C67.6,308.8,67.6,308.7,67.6,308.7L67.6,308.7z
			 M327.9,308.6c0-6.5-5.3-11.8-11.8-11.8s-11.8,5.3-11.8,11.8c0,6.5,5.2,11.7,11.7,11.8C322.5,320.4,327.8,315.2,327.9,308.6
			C327.9,308.7,327.9,308.6,327.9,308.6L327.9,308.6z"/>
		<path class="st0" d="M265.3,23.2c1.4,1.1,3.6,1.9,4.2,3.4c0.7,1.7,0.7,4.6-0.3,5.8c-4.8,5.4-9.9,10.5-15.2,15.4
			c-2.1,2-5,1.6-7.1-0.4s-2.6-5.1-0.5-7.4c4.8-5.2,9.9-10.1,15-15.1C262.1,24.1,263.5,23.9,265.3,23.2z"/>
		<path class="st0" d="M127.4,44.1c-1,1.3-1.9,3.5-3.4,4c-1.7,0.7-4.6,0.7-5.8-0.4c-5.4-4.8-10.5-10-15.3-15.3c-2-2.1-1.6-5,0.5-7.1
			s5-2.6,7.1-0.6c5.4,5,10.5,10.3,15.6,15.6C126.7,41,126.8,42.3,127.4,44.1z"/>
	</g>
</g>
</svg>
