<svg xmlns="http://www.w3.org/2000/svg" viewBox="0 0 384 375.84"><defs><style>.cls-1{fill:#1d2a37;}</style></defs><title>ahorro</title><g id="Capa_2" data-name="Capa 2"><g id="Capa_1-2" data-name="Capa 1"><path class="cls-1" d="M384,250.08c-3.06,10.08-10.31,15.25-20.2,17.74a185.43,185.43,0,0,0-18.51,5.95,10.56,10.56,0,0,0-5.1,3.94c-11.43,18.87-27.41,32.82-46.52,43.42a6.43,6.43,0,0,0-3.77,5c-2.21,12.51-4.65,25-7.08,37.44-1.56,8-6.57,12.17-14.59,12.23s-16.24.06-24.36,0C236,375.73,231,371.72,229.32,364c-1.42-6.69-2.62-13.42-3.83-19.66l-59.32,1.15c-1,5.13-2.21,11.2-3.36,17.27-1.67,8.88-6.52,13-15.43,13.06q-11.61,0-23.23,0c-8.65,0-13.67-4.27-15.32-12.82-2.24-11.61-4.4-23.25-6.82-34.83a7,7,0,0,0-2.92-4.21C68.69,306.27,49.65,280.57,44,245.7c-1.61-9.91-1.68-20.07-2.51-30.83-1.38-1-2.28.42-3.4,2.18-5.88,9.23-13.51,16.31-24.46,19a48.74,48.74,0,0,1-5.92.83,7.18,7.18,0,0,1-7.72-4v-3.75a8.92,8.92,0,0,1,7.11-4c8.56-.75,15.2-5,20.43-12.25-1.39-.4-2.46-.64-3.48-1-3.39-1.24-6.93-2.2-10.12-3.84C4.34,203.09,1.82,194.84,7,186.34c5.67-9.23,15.48-11.38,24.08-5.14,6.68,4.86,9.89,11.69,10.83,19.73a4.15,4.15,0,0,0,1.3,2.83,28.93,28.93,0,0,0,.94-3.19c5.82-33.09,23.4-58,52.17-75.27,3.71-2.22,7.06-1.69,8.79,1.3s.72,6-3.18,8.33c-19.12,11.5-33.84,27-41.39,48.14-11,30.85-10.39,61.49,4.45,91.11,8.69,17.34,22.31,30.26,39.23,39.56,5.47,3,8.15,6.93,9.12,13,1.83,11.44,4.38,22.76,6.47,34.16.51,2.75,1.73,3.79,4.49,3.75,7.63-.11,15.26-.15,22.88,0,3,.06,4.21-1.22,4.68-4,1-6.15,2.29-12.25,3.42-18.38,1.32-7.17,4.38-9.8,11.57-9.11a245.23,245.23,0,0,0,58.69-1.33c5.58-.81,9.39,2.31,10.55,8.19,1.32,6.73,2.7,13.45,3.76,20.22.5,3.17,1.73,4.52,5.09,4.43,7.37-.19,14.75-.22,22.12,0,3.43.11,4.56-1.42,5.11-4.46,2.39-13.11,5-26.19,7.37-39.32a10.63,10.63,0,0,1,5.94-8c18.93-10,34.75-23.37,45.7-42,2.4-4.08,6.12-6.45,10.57-7.84q11.09-3.47,22.12-7c6.78-2.16,8.88-5,8.89-12,0-7.74,0-15.48,0-23.21,0-5.7-2.23-8.76-7.65-10.59-4.49-1.52-9-3-13.54-4.34a18.86,18.86,0,0,1-13.27-13.06,87.84,87.84,0,0,0-14.73-27.56c-.74-.94-1.57-1.82-2.64-3.06-.68,1.5-1.23,2.57-1.66,3.69-5.25,13.36-15.54,18.87-29.39,18.8-25.56-.13-44.15-18.21-44.58-43.67-.11-6.68.75-13.38,1.19-20.64-2.53-.59-5.5-1.37-8.51-1.92a2.63,2.63,0,0,0-2.14,1,79.38,79.38,0,0,1-22.15,21.27c3.43,1.08,6.26,1.92,9,2.87,4,1.36,5.54,4,4.52,7.3-1,3.17-4,4.55-8,3.27a149.26,149.26,0,0,0-45.68-7.32A147.31,147.31,0,0,0,129,153.43c-1.19.37-2.39.75-3.6,1A5.5,5.5,0,0,1,122.08,144c3.11-1.18,6.35-2,10-3.17-1.08-.86-1.78-1.48-2.54-2-25.67-18.07-37.85-49.17-31-79.14A76.42,76.42,0,0,1,161.38.93c31.33-5,63.28,10.73,78.55,38.74q3.84,7-1.22,9.74c-3.2,1.69-5.92.28-8.55-4.21-13.32-22.78-33.22-34.31-59.64-33.86-30,.51-56.14,23.36-61.6,53.22-5.48,30.05,11.19,60.61,39.2,71.62a12.55,12.55,0,0,0,5.81.6,160.16,160.16,0,0,1,38.15,0,12.18,12.18,0,0,0,6.15-.73c23.58-10.7,36.91-28.89,39.61-54.7a24.61,24.61,0,0,1,.38-3c.76-3.12,2.81-4.7,6-4.35s5.29,2.45,4.77,5.56c-1.36,8.06-3.18,16-4.89,24.06a30.14,30.14,0,0,1-1.6,4.22c5.51.8,10.06,3.47,16.14.44,14.28-7.12,29.11-13.16,44.86-16.47,1.1-.23,2.21-.41,3.32-.56,12.85-1.63,18.25,2.45,20.16,15.39,2,13.37.63,26.61-1.71,39.82a6.49,6.49,0,0,0,1.26,4.87,103.23,103.23,0,0,1,22.28,37.72,8.73,8.73,0,0,0,6.34,6.24c2.88.8,5.67,2,8.58,2.64,9.95,2.29,17.19,7.58,20.25,17.69Zm-66.95-129.5c-.43-4.45-.66-8.94-1.33-13.36-.83-5.39-1.84-6-7.26-5-16.44,3.12-31.6,9.86-46.64,16.82a7.63,7.63,0,0,0-3.73,5.1c-.86,6.52-1.81,13.16-1.36,19.67,1,15,10.38,25.91,25.13,28.63,19.41,3.58,24.15-1.71,29-15.86C314.83,144.94,316.55,132.9,317.05,120.58Zm-286.11,82c-1.13-6.36-3-10.88-8.15-13.23-3.4-1.55-5,.94-6.46,3.31s-.24,4.15,1.88,5.07C22.1,199.38,26.14,200.74,30.94,202.55Z"/><path class="cls-1" d="M304.13,222.61a18.3,18.3,0,0,1-18.2-16.9c-.26-3.69,1.75-6.39,5-6.69s5.5,1.55,6.12,5.14c.83,4.77,3.21,7.23,7,7.3s6.3-2.33,7.25-7.43c.64-3.46,3-5.37,6.28-5,3,.34,4.86,2.7,4.87,6.06C322.46,214.54,314,222.64,304.13,222.61Z"/><path class="cls-1" d="M176.1,29.33v5.16a29.85,29.85,0,0,1,8.77,2.11,17.29,17.29,0,0,1,6.39,4.78,20.49,20.49,0,0,1,3.32,5,11.58,11.58,0,0,1,1.17,4.73A5.65,5.65,0,0,1,194,55.27,5.8,5.8,0,0,1,189.78,57c-3.13,0-5.15-1.69-6.08-5.07A10.82,10.82,0,0,0,176.1,44V63.9c4,1.09,7.1,2.07,9.44,3a19.45,19.45,0,0,1,6.29,3.87A17.86,17.86,0,0,1,196.4,77a19.72,19.72,0,0,1,1.6,8,21.22,21.22,0,0,1-2.56,10.21,20.16,20.16,0,0,1-7.53,7.77,26.89,26.89,0,0,1-11.81,3.58v11.91a11.17,11.17,0,0,1-.55,4.11,2.33,2.33,0,0,1-2.41,1.29,2.68,2.68,0,0,1-2.42-1,6,6,0,0,1-.69-3.25V106.7a30.33,30.33,0,0,1-9.78-2.63,23.14,23.14,0,0,1-7-5,20.59,20.59,0,0,1-4.14-6.22,16.48,16.48,0,0,1-1.34-6.33,5.79,5.79,0,0,1,1.8-4.14,6,6,0,0,1,4.47-1.84,6.33,6.33,0,0,1,3.63,1,5.21,5.21,0,0,1,2.06,2.82,63.44,63.44,0,0,0,2.24,6,11.72,11.72,0,0,0,2.9,3.8A12.91,12.91,0,0,0,170,96.8V74.56a57.68,57.68,0,0,1-10.71-3.94,18.06,18.06,0,0,1-7-6.19,18.32,18.32,0,0,1-2.67-10.33,18.32,18.32,0,0,1,5.23-13.49q5.24-5.25,15.14-6.12V29.43q0-4,3-4T176.1,29.33ZM170,62.13V43.82A16.86,16.86,0,0,0,163.76,47c-1.5,1.31-2.24,3.29-2.24,5.93a7.4,7.4,0,0,0,2.1,5.72A19.32,19.32,0,0,0,170,62.13Zm6.07,14.2v21a13.1,13.1,0,0,0,7.46-3.88,9.82,9.82,0,0,0,2.63-6.79,8.15,8.15,0,0,0-2.56-6.43A20.91,20.91,0,0,0,176.1,76.33Z"/></g></g></svg>