<svg xmlns="http://www.w3.org/2000/svg" viewBox="0 0 47.23 47.23"><defs><style>.cls-1{fill:#fd0;}.cls-2{fill:#1b2d54;}</style></defs><title>banco pichincha icono</title><g id="Capa_2" data-name="Capa 2"><g id="Capa_1-2" data-name="Capa 1"><rect class="cls-1" width="47.23" height="47.23" rx="9.69"/><path class="cls-2" d="M3.53,19.41v5.95a2.85,2.85,0,0,0,2.68,2.48h5.7V19.41Zm7,4.22H9.28V22.09H7.72V20.9h2.83Z"/><path class="cls-2" d="M31.38,24.36v2.37l-1.32-2.17a.4.4,0,0,0-.24-.2H29V27.8h.75V25.45l1.33,2.18c.11.18.23.17.23.17h.71V24.36ZM24.2,19.53V21.9l-1.32-2.17a.44.44,0,0,0-.25-.2h-.79V23h.76V20.62l1.33,2.18c.11.18.23.17.23.17h.7V19.53Zm15,4.77a.23.23,0,0,0-.22.24v1.1H37.44V24.3h-.67v3.5h.7V26.35H39V27.8h.68V24.3ZM26,24.3a.22.22,0,0,0-.21.24v1.1H24.18V24.3h-.67v3.5h.7V26.35h1.55V27.8h.66V24.3Zm-8.49,1.17a1.12,1.12,0,0,0-1-1.17H14.74v3.5h.68V26.62h1.1A1.11,1.11,0,0,0,17.48,25.47Zm-.69,0c0,.43-.5.53-.5.53h-.87V25h.93C16.82,25,16.79,25.49,16.79,25.49Zm1.36-1.19v3.5h.67V24.3Zm9.26,0v3.5h.67V24.3Zm3.65-4.91a1.83,1.83,0,1,0,1.83,1.83A1.83,1.83,0,0,0,31.06,19.39Zm0,3a1.15,1.15,0,1,1,1.14-1.14A1.14,1.14,0,0,1,31.06,22.36Zm4.55,4.36a1.14,1.14,0,0,1-1,.46A1.11,1.11,0,0,1,33.53,26a1.11,1.11,0,0,1,1.95-.75l.49-.45a1.69,1.69,0,0,0-1.32-.59,1.77,1.77,0,0,0-1.9,1.84,1.68,1.68,0,0,0,1.9,1.72,1.63,1.63,0,0,0,1.4-.63Zm-13.22,0a1.14,1.14,0,0,1-1,.46A1.11,1.11,0,0,1,20.31,26a1.11,1.11,0,0,1,2-.75l.49-.45a1.69,1.69,0,0,0-1.32-.59,1.77,1.77,0,0,0-1.9,1.84,1.68,1.68,0,0,0,1.9,1.72,1.63,1.63,0,0,0,1.4-.63Zm6-4.82a1.16,1.16,0,0,1-1,.46,1.12,1.12,0,0,1-1.08-1.17,1.11,1.11,0,0,1,1.95-.74l.49-.45a1.69,1.69,0,0,0-1.32-.59,1.76,1.76,0,0,0-1.9,1.84A1.68,1.68,0,0,0,27.46,23a1.62,1.62,0,0,0,1.4-.64Zm13.94,2.43h-.73l-1.34,3.44H41l.32-.71h1.33l.28.71h.75Zm-.85,2.14L42,25.32l.49,1.15ZM19.94,19.53h-.73L17.87,23h.74l.32-.71h1.33l.28.71h.75Zm-.85,2.14.49-1.15.49,1.15Zm-2-.48s.46-.41.37-.8a.87.87,0,0,0-.71-.86H14.69V23h2s1-.15.92-1C17.56,22,17.56,21.31,17.1,21.19Zm-1.68-1.05h1c.34,0,.37.38.37.38,0,.3-.33.38-.33.38h-1Zm1,2.19h-1v-.87h1.06a.42.42,0,0,1,.42.4C16.87,22.28,16.41,22.33,16.41,22.33Z"/></g></g></svg>