<svg xmlns="http://www.w3.org/2000/svg" viewBox="0 0 47.23 47.23"><defs><style>.cls-1{fill:#08346f;}.cls-2{fill:#fff;}</style></defs><title>bbva icono</title><g id="Capa_2" data-name="Capa 2"><g id="Capa_1-2" data-name="Capa 1"><rect class="cls-1" width="47.23" height="47.23" rx="9.69"/><path class="cls-2" d="M38.16,18.17h.12a.81.81,0,0,1,.28.4l3.31,6.05,1.61,2.93h0a.14.14,0,0,1-.15.14h-1.6c-.13,0-.16-.14-.21-.22s-.21-.37-.29-.55-.27-.51-.42-.76-.26-.47-.38-.71a4.24,4.24,0,0,0-.25-.44c-.07-.15-.24-.42-.33-.65a6.38,6.38,0,0,0-.44-.79,5.75,5.75,0,0,1-.36-.69c-.11-.24-.19-.3-.26-.46s-.23-.41-.33-.62-.08-.19-.18-.23a.3.3,0,0,0-.19,0c-.16.27-.28.54-.45.81a4.11,4.11,0,0,0-.37.72l-.23.42-.17.31c-.06.11-.2.38-.31.56s-.17.33-.26.49-.17.34-.27.5-.19.39-.31.57-.16.33-.26.49-.18.35-.28.51-.18.36-.29.54,0,.12-.13.14a1.71,1.71,0,0,1-.32,0H33.23a.32.32,0,0,1-.22-.07.34.34,0,0,1,0-.2l5-9.14a.25.25,0,0,1,.12-.11ZM6.21,19.63c.11-.12.29-.08.44-.08h4.48a3.4,3.4,0,0,1,1.3.2,2.44,2.44,0,0,1,1.51,1.48,2.5,2.5,0,0,1,.13.81,2.47,2.47,0,0,1-.17.89,2,2,0,0,1-.63.84c-.07.06-.18.09-.23.17a2.39,2.39,0,0,1,1,.73,2.63,2.63,0,0,1,.48,1.9,2.84,2.84,0,0,1-.4,1.21,2.45,2.45,0,0,1-.58.62,3.83,3.83,0,0,1-1.76.61,1.27,1.27,0,0,0-.39,0h-5l-.11-.11V19.63ZM7.88,21v2.31a.2.2,0,0,0,.2.09H10.9a2.67,2.67,0,0,0,.4,0,1.38,1.38,0,0,0,.81-.39,1.28,1.28,0,0,0,.26-.52,1.14,1.14,0,0,0,0-.45,1.12,1.12,0,0,0-.31-.69,1.59,1.59,0,0,0-.91-.36H10.9a1.28,1.28,0,0,0-.39,0H8.09a.4.4,0,0,0-.24.07Zm0,3.82a.07.07,0,0,0-.07.07.69.69,0,0,0,0,.35v2.18c0,.11,0,.25.18.24h3.07a1.5,1.5,0,0,0,.3,0,2,2,0,0,0,1-.3,1.06,1.06,0,0,0,.44-.72,1.82,1.82,0,0,0-.06-1,1.11,1.11,0,0,0-.49-.58,2.59,2.59,0,0,0-1-.24H7.93Zm8.22-5.26h5.09a3.11,3.11,0,0,1,2,.77,2.36,2.36,0,0,1,.67,1.43v.65a2.11,2.11,0,0,1-.6,1.21,1.59,1.59,0,0,1-.33.25s-.08,0-.06.07a2.51,2.51,0,0,1,1,.78,2.68,2.68,0,0,1,.26.47,3,3,0,0,1,.2,1,4.48,4.48,0,0,1-.1.81,2.45,2.45,0,0,1-.69,1.21,3.61,3.61,0,0,1-.44.33,3.81,3.81,0,0,1-1.47.45H16.12c-.07,0-.16-.11-.15-.22V19.72a.23.23,0,0,1,.13-.21Zm1.69,1.38a.22.22,0,0,0-.13.08v2.17a.28.28,0,0,0,.12.21h3.11a1.91,1.91,0,0,0,.81-.21.93.93,0,0,0,.5-.6,1.62,1.62,0,0,0,0-.62,1,1,0,0,0-.13-.42,1.35,1.35,0,0,0-1-.57H17.79Zm0,3.89a.16.16,0,0,0-.11.17v2.29a1.4,1.4,0,0,0,0,.29c0,.06.1.07.16.08h3.52a2,2,0,0,0,1-.37,1.25,1.25,0,0,0,.33-.79,1.09,1.09,0,0,0,0-.44,1.22,1.22,0,0,0-.41-.87,2.42,2.42,0,0,0-1.21-.34H18a.81.81,0,0,0-.22,0Zm6.64-5.08a.16.16,0,0,1,.1-.2h1.58a.17.17,0,0,1,.16.06,3.91,3.91,0,0,1,.31.57c0,.12.15.24.21.36s.25.46.36.7a8.63,8.63,0,0,0,.43.77c.14.25.29.52.42.78s.21.38.3.57a6.61,6.61,0,0,0,.35.63c.14.21.15.3.25.45s.19.4.3.58.19.39.31.57a.19.19,0,0,0,.26,0l0,0c.12-.18.2-.39.31-.57s.17-.34.27-.51.2-.38.31-.57.21-.4.33-.59a8.31,8.31,0,0,0,.43-.85,4,4,0,0,0,.32-.57c.12-.19.21-.4.33-.59l.28-.52c.1-.17.18-.35.27-.52s.26-.48.4-.7c0-.06.11,0,.17,0h1.5a.15.15,0,0,1,.16.09.3.3,0,0,1-.07.24l-4.77,8.71a2.11,2.11,0,0,1-.32.48h-.12c-.18-.11-.24-.33-.34-.5L24.43,19.8Z"/></g></g></svg>