<svg xmlns="http://www.w3.org/2000/svg" viewBox="0 0 47.23 47.23"><defs><style>.cls-1{fill:#cc2229;}.cls-2{fill:#f5c400;}.cls-2,.cls-3,.cls-5{fill-rule:evenodd;}.cls-3{fill:#fcfcfc;}.cls-4,.cls-5{fill:#fff;}</style></defs><title>caja trujillo icono</title><g id="Capa_2" data-name="Capa 2"><g id="Capa_1-2" data-name="Capa 1"><rect class="cls-1" width="47.23" height="47.23" rx="9.69"/><path class="cls-2" d="M10.36,16.71A1.15,1.15,0,1,1,9.2,17.86,1.21,1.21,0,0,1,10.36,16.71Z"/><path class="cls-3" d="M15.11,19.9H5.58a1.77,1.77,0,0,0-1.35,1.39v5.9c0,.4,0,.54.24.76h2.8c-.61-.46-.62-1-.55-2.42H14a2.41,2.41,0,0,1-.56,2.36H16.2c.26-.08.17-.34.2-.57V21.23A1.55,1.55,0,0,0,15.11,19.9ZM14,23.53H6.71V22.2a.89.89,0,0,1,.87-.67H13.3A.59.59,0,0,1,14,22a1.09,1.09,0,0,1,0,.18Z"/><path class="cls-2" d="M4.6,29.59c-.76-.14-.09-.6.34-.66,3.78-.35,8-.76,11.81,0,.59.15,1.1.62.15.45-.56-.06-.51.23-.26.23.68,0,1.6.49.75.58-.29,0-.63-.6-1-.36-.1.08,0,.13.06.13.54.11.25.4-.5.17A43.19,43.19,0,0,0,4.6,29.55Z"/><path class="cls-4" d="M31.57,19.93H30.36l-1.28,3.64h1.2l.17-.61h1.21l.17.61h1.1Zm-1,2.26L31,20.88l.39,1.31Zm-2.74-2.26v2.26a1,1,0,0,1-.09.47.26.26,0,0,1-.25.13.25.25,0,0,1-.17,0,.42.42,0,0,1-.14-.18,2.16,2.16,0,0,1,0-.36l-1,.14a1.51,1.51,0,0,0,.18.72,1,1,0,0,0,.44.43,1.81,1.81,0,0,0,.8.15,1.39,1.39,0,0,0,.81-.23,1.09,1.09,0,0,0,.41-.55A3.27,3.27,0,0,0,29,22v-2Zm-3,0H23.6l-1.28,3.64H23.4l.17-.61h1.21l.17.61h1.1Zm-1,2.26.37-1.31.38,1.31Z"/><path class="cls-4" d="M42.7,24.82a1.73,1.73,0,0,0-2.42,0,2,2,0,0,0-.43,1.38,2.26,2.26,0,0,0,.21,1.06,1.55,1.55,0,0,0,.57.62,1.88,1.88,0,0,0,.9.2,1.73,1.73,0,0,0,.86-.23,1.43,1.43,0,0,0,.54-.65,2.3,2.3,0,0,0,.2-1A1.94,1.94,0,0,0,42.7,24.82ZM42,27a.56.56,0,0,1-.49.24A.62.62,0,0,1,41,27a1.29,1.29,0,0,1-.19-.79,1.32,1.32,0,0,1,.19-.8.6.6,0,0,1,.48-.24.64.64,0,0,1,.5.24,1.33,1.33,0,0,1,.18.75A1.46,1.46,0,0,1,42,27Zm-3.93.12V24.39h-1V28h2.53v-.9Zm-3,0V24.39h-1V28h2.52v-.9ZM32.4,24.39V28h1V24.39Zm-1.69,0v2.25a1.1,1.1,0,0,1-.07.48.27.27,0,0,1-.24.14.25.25,0,0,1-.17,0,.31.31,0,0,1-.11-.19,1,1,0,0,1,0-.35l-.94.14a1.51,1.51,0,0,0,.17.7.92.92,0,0,0,.41.44,1.6,1.6,0,0,0,.75.15,1.24,1.24,0,0,0,.74-.22,1.09,1.09,0,0,0,.38-.56,3,3,0,0,0,.11-.94v-2Zm-3,0v2.25a.71.71,0,0,1-.15.48.59.59,0,0,1-.8,0,.75.75,0,0,1-.16-.48V24.39h-1v2.17a2.59,2.59,0,0,0,.1.62,1.07,1.07,0,0,0,.21.41,1.13,1.13,0,0,0,.34.31,1.19,1.19,0,0,0,.46.15,2.09,2.09,0,0,0,.5,0,1.6,1.6,0,0,0,.69-.12,1.14,1.14,0,0,0,.39-.29,1.28,1.28,0,0,0,.28-.51,2.11,2.11,0,0,0,.1-.61V24.39ZM25,27l-.13-.23-.16-.18a.68.68,0,0,0-.27-.13,1.14,1.14,0,0,0,.36-.15,1,1,0,0,0,.42-.88,1,1,0,0,0-.15-.58.71.71,0,0,0-.4-.34,2,2,0,0,0-.69-.09H22.3V28h1V26.55h.08a.44.44,0,0,1,.25.08,1.67,1.67,0,0,1,.18.28L24.32,28h1.11Zm-.83-1.27a.31.31,0,0,1-.16.12h-.68v-.74h.44a.59.59,0,0,1,.36.09.42.42,0,0,1,0,.48Zm-5.29-1.31v.9h1V28h1V25.29h1v-.9Z"/><path class="cls-5" d="M21.62,21.09V20c-4.05-.84-3.32,4.84,0,3.52V22.26c-2.42,1.51-2.29-2.42,0-1.21Z"/></g></g></svg>