<?xml version="1.0" encoding="UTF-8"?>
<svg width="49px" height="49px" viewBox="0 0 49 49" version="1.1" xmlns="http://www.w3.org/2000/svg" xmlns:xlink="http://www.w3.org/1999/xlink">
    <title>Group 2</title>
    <g id="Page-1" stroke="none" stroke-width="1" fill="none" fill-rule="evenodd">
        <g id="sbs-BLANCO" transform="translate(-1.000000, 1.000000)" fill="#FFFFFF" fill-rule="nonzero" stroke="#FFFFFF" stroke-width="0.75">
            <g id="Group-2" transform="translate(2.979594, 0.298822)">
                <path d="M1.54040558,31.9811781 L3.66040558,30.3811781 L12.1404056,43.0511781 L10.4704056,44.7011781 L1.54040558,44.7011781 L1.54040558,31.9811781 Z M10.0504056,26.9811781 C11.2480125,25.5271601 13.0367125,24.68974 14.9204056,24.7010624 L26.9204056,24.7010624 C26.5230875,26.4743084 24.9373331,27.7262197 23.1204056,27.7011781 L16.9504056,27.7011781 C16.125122,27.701178 15.3625286,28.1414615 14.9498868,28.856178 C14.537245,29.5708945 14.537245,30.4514616 14.9498868,31.1661781 C15.3625286,31.8808946 16.125122,32.3211781 16.9504056,32.3211781 L30.5104056,32.3211781 C30.8226089,32.3214448 31.1318143,32.2602832 31.4204056,32.1411781 L42.4204056,27.4411781 C43.1632286,26.9993503 44.1235778,27.2433551 44.5654056,27.9861781 C45.0072334,28.729001 44.7632286,29.6893503 44.0204056,30.1311781 L44.0204056,30.1311781 L33.2604056,35.7011781 C32.486084,36.0931073 31.6666403,36.3886444 30.8204056,36.5811781 L12.4404056,40.7811781 L6.35040558,31.6311781 L10.0204056,26.9711781 L10.0504056,26.9811781 Z M22.3504056,18.5511781 L21.4804056,18.2211781 C21.0726596,18.0556707 20.8044303,17.6612158 20.8004056,17.2211781 C20.7866998,16.9474095 20.8859744,16.6800166 21.0750168,16.4815221 C21.2640592,16.2830276 21.5262943,16.1708352 21.8004056,16.1711773 L22.3004056,16.1711773 L22.3004056,18.5311781 L22.3504056,18.5511781 Z M24.3504056,23.1211781 L23.8604056,23.1211781 L23.8604056,20.7611781 L24.7204056,21.0811781 C25.1336307,21.239838 25.404763,21.638562 25.4004056,22.0811781 C25.4004056,22.6334628 24.9526903,23.0811781 24.4004056,23.0811781 L24.3504056,23.1211781 Z M11.5604056,16.1811781 C11.5604056,11.0764468 15.6956773,6.93669669 20.8004056,6.93117806 L25.4304056,6.93117806 C30.5351338,6.93669669 34.6704086,11.0764468 34.6704056,16.1811781 L34.6704056,24.7011781 C34.6793751,25.2976295 34.8193445,25.8848182 35.0804056,26.4211781 L36.0804056,28.5111781 L30.7804056,30.7611781 C30.6854255,30.801043 30.5834122,30.8214457 30.4804056,30.8211807 L16.9504056,30.8211807 C16.5251463,30.8211807 16.1804056,30.4764373 16.1804056,30.0511781 C16.1804056,29.6259188 16.5251463,29.2811781 16.9504056,29.2811781 L23.1204056,29.2811781 C24.5516568,29.2811805 25.924142,28.7119346 26.935251,27.6989497 C27.9463601,26.6859648 28.513061,25.3124268 28.5104056,23.8811781 C28.5104056,23.4559188 28.1656648,23.1111781 27.7404056,23.1111781 L26.7404056,23.1111781 C26.8778073,22.7952374 26.9525246,22.4556133 26.9604056,22.1111781 C26.9596619,21.0308041 26.2908836,20.0634641 25.2804056,19.6811781 L23.8804056,19.1511781 L23.8804056,16.1811781 L24.3704056,16.1811781 C24.6445168,16.1808352 24.9067519,16.2930276 25.0957943,16.4915221 C25.2848367,16.6900166 25.3841114,16.9574095 25.3704056,17.2311781 L25.3704056,17.2311781 L25.3704056,17.7011781 L27.0204056,17.7011781 L27.0204056,17.2111781 C27.0149232,15.7830376 25.8585461,14.6266604 24.4304056,14.6211781 L23.9404056,14.6211781 L23.9404056,13.1011781 L22.3504056,13.1011781 L22.3504056,14.6411781 L21.8504056,14.6411781 C20.597797,14.6335544 19.5206949,15.5267718 19.2964004,16.7591591 C19.0721059,17.9915464 19.7654332,19.2069819 20.9404056,19.6411781 L22.3504056,20.1711781 L22.3504056,23.1011781 L21.8504056,23.1011781 C21.2981208,23.1011781 20.8504056,22.6534628 20.8504056,22.1011781 L20.8504056,22.1011781 L20.8504056,21.6011781 L19.2604056,21.6011781 L19.2604056,22.1011781 C19.271697,22.4462467 19.3498058,22.7858503 19.4904056,23.1011781 L14.9204056,23.1011781 C13.7568804,23.1030339 12.6086263,23.3661755 11.5604056,23.8711781 L11.5604056,16.1711781 L11.5604056,16.1811781 Z M27.7904056,1.54117806 L25.0204056,5.39117806 L21.1804056,5.39117806 L18.4504056,1.54117806 L27.7904056,1.54117806 Z M0.790405583,46.2312448 L10.7904056,46.2312448 C10.9922858,46.2312448 11.1862055,46.1524651 11.3304056,46.0111781 L13.6504056,43.7011781 C13.9118852,43.4305083 13.9493542,43.0141864 13.7404056,42.7011781 L13.3504056,42.1311781 L31.1804056,38.0311781 C32.1432648,37.8086404 33.0764164,37.4729744 33.9604056,37.0311781 L44.7504056,31.4711781 C46.238813,30.6427509 46.7738327,28.7645855 45.9454056,27.2761781 C45.1169785,25.7877707 43.238813,25.2527509 41.7504056,26.0811781 L41.7504056,26.0811781 L37.5404056,27.8911781 L36.4604056,25.7011781 C36.3056253,25.3903512 36.2235561,25.048396 36.2204056,24.7011781 L36.2204056,16.1811781 C36.2123143,10.7770283 32.2075594,6.21237694 26.8504056,5.50117806 L29.9404056,1.21117806 C30.1789456,0.864369011 30.0992883,0.390850568 29.7604056,0.141178061 C29.621129,0.0409818123 29.4517091,-0.00843233115 29.2804056,0.00117806067 L16.9504056,0.00117806067 C16.5251463,0.00117806067 16.1804056,0.345918803 16.1804056,0.771178061 C16.1890663,0.928833595 16.2409623,1.08106205 16.3304056,1.21117806 L19.4104056,5.50117806 C14.0431038,6.19907494 10.0254314,10.7686959 10.0204056,16.1811781 L10.0204056,24.8611781 C9.59144285,25.2101653 9.19939283,25.6022153 8.85040558,26.0311781 L5.45040558,30.2911781 L4.45040558,28.8511781 C4.33567132,28.6712773 4.1505964,28.547894 3.94040558,28.5111781 C3.73307484,28.4807425 3.52195902,28.5308378 3.35040558,28.6511781 L0.310405583,30.9711781 C0.110680947,31.1136755 -0.00543127572,31.3458999 0.000195527145,31.5911781 L0.000195527145,45.4611781 C-0.00231050145,45.6662153 0.0779417846,45.8636499 0.222937757,46.0086459 C0.367933729,46.1536419 0.565368302,46.2338941 0.770405583,46.2312448 L0.790405583,46.2312448 Z" id="Shape"></path>
                <path d="M7.70040558,42.3811781 C7.27649173,42.3756722 6.93677556,42.0285317 6.94043426,41.6045979 C6.94409296,41.180664 7.28974997,40.8394385 7.71369571,40.8412428 C8.13764145,40.8430615 8.48036983,41.1872285 8.48040558,41.6111781 C8.47493242,42.0380499 8.12731247,42.3812131 7.70040558,42.3811781 L7.70040558,42.3811781 Z M7.70040558,39.3011564 C6.42594413,39.3066953 5.39674102,40.3433478 5.40040538,41.6178159 C5.40408934,42.892284 6.43925241,43.9229851 7.7137245,43.9211565 C8.98819658,43.9193229 10.0204056,42.8856515 10.0204056,41.6111781 C10.0204056,40.9967914 9.7756648,40.4077133 9.34029055,39.9742157 C8.90491629,39.540718 8.31478647,39.2985184 7.70040558,39.3011564 L7.70040558,39.3011564 Z" id="Shape"></path>
            </g>
        </g>
    </g>
</svg>