<svg xmlns="http://www.w3.org/2000/svg" viewBox="0 0 361.88 384"><defs><style>.cls-1{fill:#1d2a37;}</style></defs><title>confianza</title><g id="Capa_2" data-name="Capa 2"><g id="Capa_1-2" data-name="Capa 1"><path class="cls-1" d="M97.81,384H92.57c-2.58-1.89-5.46-3.48-7.7-5.71q-40.07-39.92-79.95-80c-6.59-6.59-6.56-12.32.09-19,2.29-2.3,4.47-4.73,6.91-6.86,2.07-1.79,2.43-3.39,1.47-6.1a154.8,154.8,0,0,1-2.81-96.79C33.94,88.68,119.44,40.6,200.52,62.75c6.09,1.66,12.07,3.74,18.37,5.71,0-1.55,0-2.9,0-4.24a120.84,120.84,0,0,1,6.94-43c1.86-5.3,5.8-8,10.89-6.83,5.82,1.38,11.09.14,16.38-1.93L285,0h10.48c7.56,2.76,15.15,5.44,22.67,8.3,4.07,1.55,7.88,4,12.06,5a42.88,42.88,0,0,0,13.13,1c5.31-.41,9.51,1.39,11.25,6.5,10.1,29.77,10.26,59.34-2.61,88.38-9.12,20.57-23.92,36.36-42.49,48.71-2.2,1.45-2.52,2.65-1.69,5.1q17.58,51.87-.66,103.55c-.89,2.51-.59,4,1.34,5.78,3.14,2.84,6.13,5.87,9,9,4,4.44,4.26,10.7.13,14.95C306.5,307.56,295.25,318.73,284,329.9a5.35,5.35,0,0,1-7.74.17c-2.33-2.19-2.4-5.37-.14-8,.65-.76,1.39-1.43,2.1-2.13q14.15-14.19,28.3-28.38c.85-.85,1.63-1.77,2.31-2.51L280,260.18l-82.84,83,29.15,29.23c1.77-2,3.71-4.23,5.81-6.35q12.26-12.37,24.6-24.66c3-2.95,6.1-3.2,8.56-.86s2.27,5.73-.71,8.85c-.6.64-1.23,1.24-1.85,1.86C253.86,360.18,245,369.17,236,378c-2.36,2.3-5.28,4-7.94,6h-5.24c-2.72-2.11-5.59-4-8.12-6.36-3.66-3.37-7.23-6.88-10.54-10.6-1.87-2.1-3.64-2.29-6.17-1.65a152,152,0,0,1-75.36,0c-2.83-.72-4.45-.05-6.46,1.88C110.2,373,104,378.44,97.81,384ZM174.3,148.56c2.78,2.65,5.92,5.31,8.68,8.33a21.72,21.72,0,0,1-10,35.56c-1.05.31-2.12.57-3.4.91,1.43,8.73-.48,16.34-7.37,22.06s-14.62,6.23-22.69,3.42c-5.92,15.32-15.41,19.59-32.08,14.75-6.76,14.83-14.26,18.22-30.84,14a2.86,2.86,0,0,0-2.31.43c-4.9,4.77-9.71,9.64-14.08,14l57.82,58c9.87-10,19.84-20.3,30.1-30.34a48.2,48.2,0,0,1,37.39-14.12c11,.56,21.67.66,31.63-5,2.83-1.6,5.45-.34,7,2.36s.88,5.46-1.71,7.22a38.89,38.89,0,0,1-6.67,3.35c-9.34,4-19.15,3.77-29.06,3.43-5.32-.19-10.67.72-16.35,1.16l32,32,58.27-58.39-8.71-8.92c-2.77,2.87-5.68,6.15-8.87,9.12-3.53,3.3-9.09,1.74-9.42-2.77-.15-2,1.17-4.58,2.65-6.1,12.3-12.59,24.81-25,37.22-37.48a22.49,22.49,0,0,0,3.56-4.31,10.57,10.57,0,0,0-1.91-13,10.3,10.3,0,0,0-12.79-.94c-3.08,2.23-5.94,4.54-9.55,1.23-2.45-2.25-2.13-4.42,1.18-9.55a10.52,10.52,0,0,0-1.43-13.39,10.12,10.12,0,0,0-13-1.21c-3.1,2.24-6,4.45-9.59,1.23-2.53-2.26-2.18-4.41,1.16-9.53a10.66,10.66,0,0,0-1.4-13.41,10.34,10.34,0,0,0-13.07-1.17c-3.09,2.22-5.95,4.54-9.56,1.2-2.41-2.23-2.07-4.47,1.21-9.55a10.5,10.5,0,0,0-1.72-13.64c-3.82-3.46-9.57-4-13.33-.46C186.81,135.2,180.86,141.77,174.3,148.56ZM66.68,238.89c-4.74-4.6-9.84-9.19-14.53-14.17A21.73,21.73,0,0,1,61,189c.79-.28,1.57-.59,2.51-.95-2.6-7.52-2-14.49,2.51-20.87s11-9.09,18.85-9.37a21.93,21.93,0,0,1,6.45-16.45c4.45-4.47,10-6.21,16.1-6.53,2-15.85,8.92-22,25-22.43a12.63,12.63,0,0,0,2.15-.44c3.24-.67,6.47-1.75,9.74-1.9,6.6-.3,13.23.13,19.83-.14,9.29-.38,18,.57,24.1,8.71,7.71-4.06,15.16-4.26,22.41,0S221.13,130,221.5,138.25c12.29.7,21.77,7.76,23,22.71,16,1.68,22,11.3,22.86,23.22.81.08,1.65.19,2.49.26a21.28,21.28,0,0,1,19.84,21,22.51,22.51,0,0,1-7.14,17.1c-7.24,7.18-14.43,14.41-21.16,21.14l9,9.25c8.06-6.87,12.31-6.66,20.17,1.26,2.09,2.1,4.08,4.29,6.64,7,10.68-32.56,10.53-64-.23-95.54-5.79,2.56-7.49,2.81-11.09.91C252.3,148.86,228.71,123.16,221,84.88c-.43-2.12-1.14-3.52-3.3-4.39C171.59,61.84,126.4,63.8,84.47,90.57c-52.61,33.57-74.6,82.93-67.3,145,1,8.4,3.61,16.6,5.48,24.89l1.5.36c3-3.2,5.75-6.56,8.91-9.54,4.55-4.3,10.48-4.18,15.17,0,1.17,1,2.29,2.11,3.16,2.91Zm169.63-213c-6.65,16.49-8.26,41.2-3.64,60.6,7.62,31.94,28,53.61,56.1,68.87a4.6,4.6,0,0,0,3.69-.32,120.14,120.14,0,0,0,30.41-22.82C345,109,353.19,81.11,349.73,49.6c-.87-8-3.05-15.78-4.68-23.88-9.93,1.81-18.1-1.09-26.14-4.72-5.34-2.4-10.69-4.77-16.08-7a31.1,31.1,0,0,0-25.08,0c-5.5,2.32-11,4.74-16.42,7.2C253.4,24.74,245.32,27.48,236.31,25.87ZM12,288.51l82.72,82.92L123,343.27l-82.78-83Zm180.29,66.7c-4.29-4.07-8.91-7.86-6.92-13.44,1.67-4.69,5.31-8.66,8-12.81-11.05-11-22.49-22.46-33.85-33.82l-32.87,33.71c2.53,3.55,6.48,7.47,8.39,12.22,2.38,5.92-2.43,10.1-6.78,14.14A144.49,144.49,0,0,0,192.3,355.21Zm-96.8-198c1.2,2.37,1.91,5.23,3.69,7.05,13.78,14.09,27.75,28,41.73,41.91a9.84,9.84,0,0,0,10,2.69c8.19-2.22,10.58-11.79,4.34-18.11-13.5-13.69-27.13-27.24-40.72-40.82a12.82,12.82,0,0,0-2.63-2.08,9.87,9.87,0,0,0-10.64,0C97.93,149.88,96.15,152.89,95.5,157.2ZM84.26,168.65c-4.69.65-8.58,3.06-10.18,6.95-1.86,4.54-.85,8.6,2.54,12q16.74,16.86,33.57,33.61c4.5,4.45,10.92,4.52,15.1.47,4.34-4.2,4.38-10.71-.21-15.38C114,195,102.8,183.8,91.47,172.75,89.55,170.88,86.69,170,84.26,168.65Zm43.27-44.88c-9.13,2.83-11.38,11.68-5,18.17,12,12.2,24.12,24.23,36.22,36.31a12.39,12.39,0,0,0,3,2.25c3.83,2,7.69,2.08,11.31-.45a9.5,9.5,0,0,0,4.17-10.12,13.24,13.24,0,0,0-2.67-5.62c-5.7-7-11.8-11.74-22.21-11.07-13.64.89-24.08-10.49-24.76-24.26C127.46,127.38,127.53,125.78,127.53,123.77ZM97.08,227.94c-.89-2.13-1.29-4.73-2.77-6.31-6.49-6.88-13.11-13.67-20-20.1-3.92-3.65-10.22-2.93-13.89.81s-4.33,9.95-.64,13.92c6.36,6.83,13,13.42,19.78,19.84,3.16,3,7.23,3.25,11.16,1.34C94.46,235.59,96.43,232.42,97.08,227.94Zm82.66-101.68c-2.06-3-4.5-4.84-7.84-4.89-9.85-.13-19.71-.17-29.56,0A4.55,4.55,0,0,0,139,124c-1.72,5.85,1.1,12.84,6.24,16.08,5.71,3.6,12.08,2.17,18.24,2.23a1.65,1.65,0,0,0,.95-.57C169.47,136.59,174.55,131.48,179.74,126.26Z"/><path class="cls-1" d="M245.9,79.76c0-25.18,15.64-43.9,36.45-47.46,21.54-3.68,42.3,8.15,49.54,28.42a9.75,9.75,0,0,1,.17,6.39c-1.61,3.91-7.17,3.94-9.43.27a28.52,28.52,0,0,1-1.73-4.13c-6.06-14.52-21-22.53-36.84-19.77C269.65,46,257.93,59.15,257.22,73.63c-.81,16.43,8.87,30.24,24.17,34.5a32.89,32.89,0,0,0,38.14-16.31c.64-1.21,1.15-2.5,1.84-3.68a5.54,5.54,0,0,1,7.4-2.36c2.7,1.55,3.82,4,2.65,7a40.48,40.48,0,0,1-13.14,17.9c-14.4,11.08-30.21,13.39-46.72,5.65C254.76,108.44,246.64,94.46,245.9,79.76Z"/><path class="cls-1" d="M287.43,80.12l14.87-15c1-1,1.9-2,2.95-2.85,2.59-2.11,5.64-2,7.7.28s2.34,5.2.19,7.45Q302.39,81.2,291.23,92c-2.24,2.16-5.16,2-7.43-.21q-8.19-7.93-16.1-16.13a5.48,5.48,0,0,1-.14-7.75,5.29,5.29,0,0,1,8-.11C279.55,71.67,283.32,75.82,287.43,80.12Z"/></g></g></svg>