<svg width="30" height="27" viewBox="0 0 30 27" fill="none" xmlns="http://www.w3.org/2000/svg">
<path d="M10.046 14.3041C9.48319 13.8986 8.58053 13.8986 8.0177 14.3041L0.424779 19.7733C0.159292 19.9645 0 20.2323 0 20.5C0 20.7677 0.148673 21.0355 0.424779 21.2267L8.0177 26.6959C8.58053 27.1014 9.48319 27.1014 10.046 26.6959C10.3221 26.4971 10.4708 26.2293 10.4708 25.9693C10.4708 25.7092 10.3327 25.4415 10.046 25.2426L4.89558 21.5327H28.5664C29.3628 21.5327 30 21.0737 30 20.5C30 19.9263 29.3628 19.4673 28.5664 19.4673H4.89558L10.046 15.7574C10.6089 15.3597 10.6089 14.7095 10.046 14.3041Z" fill="#fff"/>
<path d="M19.954 13.6726C20.5168 14.1092 21.4195 14.1092 21.9823 13.6726L29.5752 7.78258C29.8407 7.57664 30 7.28832 30 7C30 6.71168 29.8513 6.42336 29.5752 6.21742L21.9823 0.327449C21.4195 -0.10915 20.5168 -0.10915 19.954 0.327449C19.6779 0.54163 19.5292 0.82995 19.5292 1.11003C19.5292 1.39011 19.6673 1.67843 19.954 1.89262L25.1044 5.88791L1.43363 5.88791C0.637169 5.88791 0 6.38217 0 7C0 7.61783 0.637169 8.11209 1.43363 8.11209L25.1044 8.11209L19.954 12.1074C19.3911 12.5357 19.3911 13.236 19.954 13.6726Z" fill="#fff"/>
</svg>
