<svg width="41" height="41" viewBox="0 0 41 41" fill="none" xmlns="http://www.w3.org/2000/svg">
<path d="M20.7785 40.5293C9.87154 40.5293 0.998535 31.6563 0.998535 20.7493C0.998535 9.84226 9.87154 0.968262 20.7785 0.968262C31.6855 0.968262 40.5585 9.84226 40.5585 20.7483C40.5595 31.6563 31.6865 40.5293 20.7785 40.5293ZM20.7785 2.46826C10.6985 2.46826 2.49854 10.6693 2.49854 20.7483C2.49854 30.8283 10.6985 39.0293 20.7785 39.0293C30.8585 39.0293 39.0585 30.8283 39.0585 20.7493C39.0595 10.6693 30.8585 2.46826 20.7785 2.46826Z" fill="white"/>
<path d="M20.7785 12.1942C23.5645 12.1942 23.8945 12.2052 24.9945 12.2552C26.0115 12.3012 26.5645 12.4712 26.9325 12.6142C27.4195 12.8032 27.7675 13.0292 28.1325 13.3942C28.4975 13.7592 28.7235 14.1072 28.9125 14.5942C29.0555 14.9622 29.2255 15.5142 29.2715 16.5322C29.3215 17.6322 29.3325 17.9622 29.3325 20.7482C29.3325 23.5342 29.3215 23.8642 29.2715 24.9642C29.2245 25.9812 29.0555 26.5342 28.9125 26.9022C28.7235 27.3892 28.4975 27.7372 28.1325 28.1022C27.7675 28.4672 27.4195 28.6932 26.9325 28.8832C26.5645 29.0262 26.0125 29.1962 24.9945 29.2422C23.8945 29.2922 23.5645 29.3032 20.7785 29.3032C17.9925 29.3032 17.6625 29.2922 16.5625 29.2422C15.5455 29.1962 14.9925 29.0262 14.6255 28.8832C14.1385 28.6942 13.7905 28.4682 13.4255 28.1022C13.0605 27.7372 12.8345 27.3892 12.6445 26.9022C12.5015 26.5342 12.3315 25.9822 12.2855 24.9642C12.2355 23.8642 12.2245 23.5342 12.2245 20.7482C12.2245 17.9622 12.2355 17.6322 12.2855 16.5322C12.3325 15.5152 12.5025 14.9622 12.6445 14.5942C12.8335 14.1072 13.0595 13.7602 13.4255 13.3942C13.7905 13.0292 14.1385 12.8032 14.6255 12.6142C14.9935 12.4712 15.5455 12.3012 16.5625 12.2552C17.6625 12.2052 17.9925 12.1942 20.7785 12.1942ZM20.7785 10.3142C17.9445 10.3142 17.5895 10.3262 16.4765 10.3772C15.3655 10.4282 14.6075 10.6042 13.9435 10.8622C13.2575 11.1292 12.6755 11.4852 12.0955 12.0662C11.5155 12.6462 11.1585 13.2282 10.8925 13.9142C10.6345 14.5782 10.4575 15.3362 10.4075 16.4472C10.3565 17.5602 10.3445 17.9152 10.3445 20.7492C10.3445 23.5832 10.3565 23.9382 10.4075 25.0512C10.4575 26.1622 10.6345 26.9202 10.8925 27.5842C11.1585 28.2702 11.5155 28.8522 12.0955 29.4322C12.6755 30.0122 13.2575 30.3692 13.9435 30.6362C14.6075 30.8942 15.3655 31.0702 16.4765 31.1212C17.5895 31.1722 17.9445 31.1842 20.7785 31.1842C23.6125 31.1842 23.9675 31.1722 25.0805 31.1212C26.1915 31.0702 26.9495 30.8942 27.6135 30.6362C28.2995 30.3692 28.8815 30.0122 29.4615 29.4322C30.0415 28.8522 30.3985 28.2702 30.6655 27.5842C30.9235 26.9202 31.0995 26.1622 31.1505 25.0512C31.2015 23.9382 31.2135 23.5832 31.2135 20.7492C31.2135 17.9152 31.2015 17.5602 31.1505 16.4472C31.0995 15.3362 30.9235 14.5782 30.6655 13.9142C30.3985 13.2282 30.0415 12.6462 29.4615 12.0662C28.8815 11.4862 28.2995 11.1292 27.6135 10.8622C26.9495 10.6042 26.1915 10.4282 25.0805 10.3772C23.9675 10.3262 23.6125 10.3142 20.7785 10.3142Z" fill="white"/>
<path d="M20.7784 15.3904C17.8194 15.3904 15.4204 17.7894 15.4204 20.7484C15.4204 23.7074 17.8194 26.1064 20.7784 26.1064C23.7374 26.1064 26.1364 23.7074 26.1364 20.7484C26.1364 17.7894 23.7384 15.3904 20.7784 15.3904ZM20.7784 24.2274C18.8574 24.2274 17.3004 22.6704 17.3004 20.7494C17.3004 18.8284 18.8574 17.2714 20.7784 17.2714C22.6994 17.2714 24.2564 18.8284 24.2564 20.7494C24.2564 22.6694 22.6994 24.2274 20.7784 24.2274Z" fill="white"/>
<path d="M27.6004 15.1792C27.6004 15.8712 27.0394 16.4312 26.3484 16.4312C25.6564 16.4312 25.0964 15.8702 25.0964 15.1792C25.0964 14.4882 25.6574 13.9272 26.3484 13.9272C27.0404 13.9262 27.6004 14.4872 27.6004 15.1792Z" fill="white"/>
</svg>
