<svg xmlns="http://www.w3.org/2000/svg" viewBox="0 0 47.23 47.23"><defs><style>.cls-1{fill:#2ab52c;}.cls-2{fill:#001e94;}.cls-3{fill:#fff;}</style></defs><title>interbank icono</title><g id="Capa_2" data-name="Capa 2"><g id="Capa_1-2" data-name="Capa 1"><rect class="cls-1" width="47.23" height="47.23" rx="9.69"/><path class="cls-2" d="M4,19.16a1,1,0,0,0-.67.28.87.87,0,0,0-.28.66v6.06H9.34a1,1,0,0,0,.68-.28.92.92,0,0,0,.29-.66V19.16ZM8.6,24.22l-3.85.68V21.13l3.85-.67Z"/><path class="cls-3" d="M23.76,21.21a2,2,0,0,0,0,4A1.9,1.9,0,0,0,25,25v-.66a2.14,2.14,0,0,1-1,.2,1.08,1.08,0,0,1-1.21-.84h.72a3.67,3.67,0,0,0,1.43-.19.71.71,0,0,0,.42-.72,1.5,1.5,0,0,0-1.51-1.49h-.06Zm.46,1.69a3.38,3.38,0,0,1-.95.1h-.5v-.18a.89.89,0,0,1,.9-.87.93.93,0,0,1,.58.14.62.62,0,0,1,.17.22,1,1,0,0,1,0,.25.33.33,0,0,1-.26.34Zm1.61-.2v2.42h.94V22.88a.9.9,0,0,1,.19-.67A.7.7,0,0,1,27.5,22h.26v-.72a1.1,1.1,0,0,0-.47-.1,1.39,1.39,0,0,0-1.46,1.3v.23ZM14.5,25.12V20.21h-.94v4.93ZM17,21.21a1.62,1.62,0,0,0-1.79,1.44c0,.06,0,.13,0,.19v2.3h.94V22.91a1,1,0,0,1,.2-.67.73.73,0,0,1,.26-.2.81.81,0,0,1,.31-.06.86.86,0,0,1,.63.24,1.07,1.07,0,0,1,.23.77v2.15h.93V22.9a1.6,1.6,0,0,0-1.52-1.69.54.54,0,0,0-.18,0Zm3.34-1h-.92v3.56a1.31,1.31,0,0,0,1.15,1.45,1.82,1.82,0,0,0,.33,0,.79.79,0,0,0,.78-.36v-.57a1.51,1.51,0,0,1-.66.11.63.63,0,0,1-.51-.18.73.73,0,0,1-.18-.57V22h.81c.4,0,.55-.24.55-.42v-.37h-1.3Zm17.58,1a1.61,1.61,0,0,0-1.77,1.43,1.34,1.34,0,0,0,0,.2v2.3H37V22.91a1,1,0,0,1,.22-.67.73.73,0,0,1,.26-.2.87.87,0,0,1,.94.2,1.1,1.1,0,0,1,.32.77v2.16h.92V22.9a1.59,1.59,0,0,0-1.47-1.69.89.89,0,0,0-.23,0Zm-7.71,0a1.17,1.17,0,0,0-1,.58l-.08.09V20.21h-.92v3.07a1.76,1.76,0,0,0,1.57,1.93H30a1.93,1.93,0,0,0,1.94-1.91,1,1,0,0,0,0-.17,1.78,1.78,0,0,0-1.61-1.93Zm-.09,3.24a.93.93,0,0,1-.75-.3,1.6,1.6,0,0,1-.26-1,1.05,1.05,0,0,1,.87-1.2h0a.87.87,0,0,1,.72.3,1.55,1.55,0,0,1,.27,1c0,.66-.38,1.21-.9,1.21Zm3.83-3.24a1.86,1.86,0,0,0-1.21.34v.63a2.49,2.49,0,0,1,1-.22,1.24,1.24,0,0,1,.73.17.66.66,0,0,1,.23.59v.1h-.4c-1.49,0-2,.51-2,1.21s.63,1.21,1.58,1.21h.21A1.37,1.37,0,0,0,35.6,24c0-.05,0-.09,0-.14V23a1.51,1.51,0,0,0-1.7-1.75Zm.81,2.65a.62.62,0,0,1-.18.48.67.67,0,0,1-.51.16.92.92,0,0,1-.54-.13.55.55,0,0,1-.16-.18.81.81,0,0,1,0-.22.46.46,0,0,1,.06-.23.4.4,0,0,1,.17-.17,1.58,1.58,0,0,1,.8-.13h.41Zm7.61-.75h0a22.85,22.85,0,0,1,1.61-1.76h-.51a1,1,0,0,0-.77.26A11.64,11.64,0,0,0,41.44,23l-.07.1V20.21h-.93v4.93h.93v-2l.07.1a19,19,0,0,0,1.42,1.67,1,1,0,0,0,.63.26A.6.6,0,0,0,44,25l-1.65-1.88"/></g></g></svg>