<?xml version="1.0" encoding="UTF-8"?>
<svg width="53px" height="48px" viewBox="0 0 53 48" version="1.1" xmlns="http://www.w3.org/2000/svg" xmlns:xlink="http://www.w3.org/1999/xlink">
    <title>Group</title>
    <g id="Page-1" stroke="none" stroke-width="1" fill="none" fill-rule="evenodd">
        <g id="sbs-BLANCO" transform="translate(1.000000, -75.000000)" fill="#FFFFFF" fill-rule="nonzero">
            <g id="Group" transform="translate(0.549854, 76.059915)">
                <path d="M29.4501457,9.20008521 C29.2832994,9.01293596 29.1420631,8.80444438 29.0301457,8.58008521 C28.9476358,8.33083354 28.8972297,8.07208219 28.8801457,7.81008521 C28.8701432,7.27509698 28.6838397,6.75836837 28.3501457,6.34008521 C27.9306905,6.00158461 27.4091291,5.81480924 26.8701457,5.81008521 C26.6078178,5.78902363 26.3491484,5.73527414 26.1001457,5.65008521 C25.867312,5.54090787 25.648968,5.40318318 25.4501457,5.24008521 C25.1571753,4.97447757 24.818324,4.76438979 24.4501457,4.62008521 C24.310365,4.57987949 24.1655933,4.55967879 24.0201457,4.5600792 C23.8780292,4.56035231 23.7366524,4.580549 23.6001457,4.62008521 C23.4053662,4.68011771 23.2201619,4.76766883 23.0501457,4.88008521 C22.8801457,4.99008521 22.7201457,5.12008521 22.5701457,5.24008521 C22.3804409,5.40081728 22.1723164,5.538448 21.9501457,5.65008521 C21.7048153,5.73612406 21.4493417,5.78990799 21.1901457,5.81008521 C20.6508815,5.813226 20.1288129,6.00018298 19.7101457,6.34008521 C19.3723768,6.75607904 19.1855499,7.27425921 19.1801457,7.81008521 C19.1601545,8.07256553 19.1063772,8.3313691 19.0201457,8.58008521 C18.9121677,8.80435457 18.7742415,9.012926 18.6101457,9.20008521 C18.1740832,9.55520468 17.9209929,10.0877149 17.9209929,10.6500852 C17.9209929,11.2124555 18.1740832,11.7449657 18.6101457,12.1000852 C18.7742415,12.2872444 18.9121677,12.4958158 19.0201457,12.7200852 C19.1053346,12.9690879 19.1590841,13.2277573 19.1801457,13.4900852 C19.1855499,14.0259112 19.3723768,14.5440914 19.7101457,14.9600852 C20.1301991,15.2987803 20.6506745,15.4886835 21.1901457,15.5000852 C21.33474,15.5096736 21.4784496,15.5297261 21.6201457,15.5600792 L21.6201457,22.0100852 C21.6149339,22.2677674 21.7537696,22.5068734 21.9801457,22.6300852 C22.2065311,22.7485834 22.4817082,22.7210657 22.6801457,22.5600792 L23.5901457,21.8400852 L23.9101457,21.5700852 C23.9751773,21.5103517 24.0751141,21.5103517 24.1401457,21.5700852 L24.4501457,21.8400852 L25.3601457,22.5600792 C25.4778933,22.6502049 25.6218705,22.6993678 25.7701457,22.7000852 C25.8815658,22.6985402 25.9911068,22.671155 26.0901457,22.6200852 C26.3025567,22.4903945 26.4315558,22.2589549 26.4301457,22.0100852 L26.4301457,17.2800852 C26.4360452,17.0444904 26.2552709,16.8460797 26.0201457,16.8300852 C25.9036546,16.8217427 25.7889502,16.8622816 25.7035707,16.9419691 C25.6181912,17.0216566 25.5698474,17.1332962 25.5701457,17.2500852 L25.5701457,21.6300852 L24.4501457,20.7400852 C24.3331254,20.6486141 24.1886721,20.5992886 24.0401457,20.6000852 C23.8949163,20.600755 23.7540946,20.6500425 23.6401457,20.7400852 L22.5001457,21.6300852 L22.5001457,15.9900852 L22.5901457,16.0700852 C22.9854077,16.4502447 23.4951172,16.6892808 24.0401457,16.7500852 C24.588705,16.6914172 25.1022481,16.4522327 25.5001457,16.0700852 C25.6839115,15.9035998 25.8890517,15.7623557 26.1101457,15.6500852 C26.3583968,15.5638099 26.6176628,15.5133035 26.8801457,15.5000852 C27.4191972,15.4864595 27.9389812,15.2968085 28.3601457,14.9600852 C28.6938397,14.541802 28.8801432,14.0250734 28.8901457,13.4900852 C28.9081742,13.2282114 28.9585574,12.9695773 29.0401457,12.7200852 C29.1520631,12.495726 29.2932994,12.2872345 29.4601457,12.1000852 C29.8896647,11.7409864 30.1378751,11.209941 30.1378751,10.6500852 C30.1378751,10.0902294 29.8896647,9.55918401 29.4601457,9.20008521 L29.4501457,9.20008521 Z M28.7801457,11.5700852 C28.5638404,11.8177018 28.3821792,12.0935579 28.2401457,12.3900852 C28.1255618,12.7124771 28.0549267,13.0488347 28.0301457,13.3900852 C28.0317739,13.7443872 27.931075,14.0916249 27.7401457,14.3900852 C27.4420527,14.5807394 27.0939002,14.6782221 26.7401457,14.6700852 C26.3981506,14.6961996 26.0615239,14.7702575 25.7401457,14.8900852 C25.4426698,15.0262581 25.1664724,15.2047758 24.9201457,15.4200852 C24.6674727,15.6764721 24.3433688,15.8507215 23.9901457,15.9200852 C23.6398546,15.8506147 23.3189841,15.6762286 23.0701457,15.4200852 C22.823819,15.2047758 22.5476217,15.0262581 22.2501457,14.8900852 L22.1401457,14.8900852 C21.8539191,14.7994575 21.5589695,14.7391269 21.2601457,14.7100852 C20.9063146,14.718834 20.5579864,14.6213021 20.2601457,14.4300852 C20.0692165,14.1316249 19.9685175,13.7843872 19.9701457,13.4300852 C19.9453647,13.0888347 19.8747296,12.7524771 19.7601457,12.4300852 C19.614502,12.1356139 19.4331361,11.8602063 19.2201457,11.6100852 C18.9099899,11.4068009 18.7231382,11.0609236 18.7231382,10.6900852 C18.7231382,10.3192468 18.9099899,9.97336957 19.2201457,9.77008521 C19.4331361,9.51996408 19.614502,9.24455655 19.7601457,8.95008521 C19.8758105,8.62799833 19.946477,8.29149127 19.9701457,7.95008521 C19.9643672,7.59521568 20.0654064,7.24680457 20.2601457,6.95008521 C20.5546522,6.75058606 20.9045992,6.64910143 21.2601457,6.66008521 C21.9402389,6.6498384 22.593713,6.39413112 23.1001457,5.94008521 C23.3489841,5.68394183 23.6698546,5.50955568 24.0201457,5.44008521 L24.0201457,5.44008521 C24.3704368,5.50955568 24.6913073,5.68394183 24.9401457,5.94008521 C25.1864724,6.15539459 25.4626698,6.33391237 25.7601457,6.47008521 C26.0800972,6.5946879 26.4174415,6.66890364 26.7601457,6.69008521 C27.115606,6.67978153 27.4653482,6.78120679 27.7601457,6.98008521 C27.954885,7.27680457 28.0559242,7.62521568 28.0501457,7.98008521 C28.0738144,8.32149127 28.1444809,8.65799833 28.2601457,8.98008521 C28.4021792,9.27661255 28.5838404,9.55246858 28.8001457,9.80008521 C29.1058665,10.0064625 29.2890982,10.3512264 29.2890982,10.7200852 C29.2890982,11.088944 29.1058665,11.4337079 28.8001457,11.6400852 L28.7801457,11.5700852 Z" id="Shape" stroke="#FFFFFF" stroke-width="0.25"></path>
                <path d="M27.3701457,9.57008521 C27.2867347,9.32413412 27.0891219,9.13397836 26.8401457,9.06008521 L25.4501457,8.68008521 L24.6601457,7.49008521 C24.515899,7.27177967 24.2718027,7.14034319 24.0101457,7.14008521 C23.7515778,7.14189199 23.5111799,7.27335956 23.3701457,7.49008521 L22.5701457,8.68008521 L21.2001457,9.06008521 C20.9511695,9.13397836 20.7535567,9.32413412 20.6701457,9.57008521 C20.5912497,9.81678348 20.6399584,10.0865548 20.8001457,10.2900852 L21.6801457,11.4100852 L21.6801457,12.8400852 C21.6702662,13.0996433 21.7902401,13.3470896 22.0001457,13.5000852 C22.1318168,13.5938695 22.2885382,13.64611 22.4501457,13.6500852 C22.5395843,13.6643012 22.6307071,13.6643012 22.7201457,13.6500852 L24.0601457,13.1500852 L25.4101457,13.6500852 C25.6482584,13.7247599 25.9077947,13.6794103 26.106475,13.5284133 C26.3051553,13.3774162 26.4183397,13.1394982 26.4101457,12.8900852 L26.3501457,11.4600852 L27.2401457,10.3400852 C27.4180895,10.1251485 27.4676618,9.83152816 27.3701457,9.57008521 L27.3701457,9.57008521 Z M25.0601457,12.0800852 L24.2901457,11.7900852 C24.1186109,11.7298644 23.9316805,11.7298644 23.7601457,11.7900852 L22.9901457,12.0800852 L22.9901457,11.2600852 C22.9976898,11.0766585 22.9411164,10.8963308 22.8301457,10.7500852 L22.3201457,10.1100852 L23.1101457,9.89008521 C23.2849045,9.83935984 23.4367935,9.72985848 23.5401457,9.58008521 L23.9901457,8.90008521 L24.4501457,9.58008521 C24.5516288,9.73167662 24.7042526,9.84170776 24.8801457,9.89008521 L25.6601457,10.1100852 L25.1601457,10.7500852 C25.0510601,10.8978757 24.9915515,11.0764014 24.9901457,11.2600852 L25.0601457,12.0800852 Z" id="Shape"></path>
                <path d="M44.7901457,4.24433617e-05 L12.4501457,4.24433617e-05 C9.66770481,-0.0112140593 7.39394109,2.21796605 7.35014571,5.00008521 L7.14014571,33.5100852 L0.790145708,33.5100852 C0.343544616,33.5315941 -0.0057589135,33.9030055 7.1944791e-05,34.3500852 L7.1944791e-05,38.2800852 C-0.00696616916,41.9180226 2.81931329,44.9327206 6.45014571,45.1600852 L6.45014571,45.1600852 L33.7501457,45.1600852 L33.7501457,45.1600852 C33.9601457,45.1600852 34.0801457,45.1600852 34.2201457,45.1600852 L34.2201457,45.1600852 C37.9993986,45.1380527 41.0467617,42.0593658 41.0301457,38.2800852 L41.0301457,13.3800852 L49.2601457,13.3800852 C49.4776732,13.3722727 49.683169,13.2782931 49.8313531,13.1188544 C49.9795373,12.9594158 50.0582494,12.747602 50.0501457,12.5300852 L50.0501457,5.33008521 C50.0612235,2.40133084 47.6988744,0.016611012 44.7701457,4.24433617e-05 L44.7901457,4.24433617e-05 Z M6.84014571,43.5800852 L6.84014571,43.5800852 C3.95238027,43.5580879 1.62456126,41.207929 1.63013568,38.3200852 L1.63013568,35.1700852 L27.3701457,35.1700852 L27.3701457,38.3000852 C27.3592415,40.1254574 28.0794802,41.8792386 29.3701457,43.1700852 C29.5258082,43.293208 29.6697541,43.4304588 29.8001457,43.5800852 L6.84014571,43.5800852 Z M39.4501457,38.3100852 C39.460795,39.6971796 38.9199661,41.0316883 37.9466436,42.0200139 C36.9733211,43.0083394 35.6472407,43.569517 34.2601457,43.5800852 L34.2601457,43.5800852 C31.3590312,43.5635598 29.0190676,41.2012256 29.0301457,38.3000852 L29.0301457,34.3900852 C29.0253446,33.9397027 28.670056,33.5712553 28.2201457,33.5500852 L8.73014571,33.5500852 L8.94014571,5.05008521 C8.94803631,4.12891906 9.322941,3.24892944 9.98179274,2.60509427 C10.6406445,1.96125909 11.5290424,1.60673928 12.4501457,1.6197216 L40.9601457,1.6197216 C40.0095827,2.63180639 39.4710761,3.9620248 39.4501457,5.35008521 L39.4501457,38.3100852 Z M48.4502001,5.31008521 L48.4502001,11.7300852 L41.0501457,11.7300852 L41.0501457,5.35008521 C41.0663823,3.30071538 42.7208269,1.64182338 44.7701457,1.62008521 L44.7701457,1.62008521 C45.7514512,1.62537523 46.6904619,2.02027806 47.3805989,2.71791651 C48.0707358,3.41555496 48.4554644,4.35877988 48.4502001,5.34008521 L48.4502001,5.31008521 Z" id="Shape" stroke="#FFFFFF" stroke-width="0.5"></path>
                <path d="M33.7501457,25.1400852 L14.2901457,25.1400852 C13.8427951,25.1400852 13.4801457,25.5027346 13.4801457,25.9500852 C13.4801457,26.3974359 13.8427951,26.7600852 14.2901457,26.7600852 L33.7501457,26.7600852 C34.1974964,26.7600852 34.5601457,26.3974359 34.5601457,25.9500852 C34.5601457,25.5027346 34.1974964,25.1400852 33.7501457,25.1400852 L33.7501457,25.1400852 Z" id="Path" stroke="#FFFFFF" stroke-width="0.5"></path>
                <path d="M33.7501457,28.9400852 L14.2901457,28.9400852 C13.8427951,28.9400852 13.4801457,29.3027346 13.4801457,29.7500852 C13.4801457,30.1974359 13.8427951,30.5600852 14.2901457,30.5600852 L33.7501457,30.5600852 C34.1974964,30.5600852 34.5601457,30.1974359 34.5601457,29.7500852 C34.5601457,29.3027346 34.1974964,28.9400852 33.7501457,28.9400852 L33.7501457,28.9400852 Z" id="Path" stroke="#FFFFFF" stroke-width="0.5"></path>
            </g>
        </g>
    </g>
</svg>