<svg xmlns="http://www.w3.org/2000/svg" viewBox="0 0 47.23 47.23"><defs><style>.cls-1{fill:#ee3224;}.cls-2{fill:#fff;}</style></defs><title>scotiabank icono</title><g id="Capa_2" data-name="Capa 2"><g id="Capa_1-2" data-name="Capa 1"><rect class="cls-1" width="47.23" height="47.23" rx="9.69"/><path class="cls-2" d="M19.94,24.92a.71.71,0,0,0,.67-.8c0-.44-.24-.81-.67-.81s-.66.37-.66.81a.71.71,0,0,0,.66.8m0,.74a1.55,1.55,0,0,1-1.71-1.54,1.58,1.58,0,0,1,1.71-1.55,1.58,1.58,0,0,1,1.72,1.55A1.55,1.55,0,0,1,19.94,25.66Zm12.32-1.54a.63.63,0,1,0-1.24,0c0,.44.22.75.62.75s.62-.3.62-.75M30,25.6V21.43h1v1.43h0a1.63,1.63,0,0,1,.9-.28,1.4,1.4,0,0,1,1.38,1.49,1.41,1.41,0,0,1-1.39,1.59,1.28,1.28,0,0,1-.92-.33h0l0,.27Zm-5-4.45a.59.59,0,0,0-.58.58.59.59,0,0,0,.58.58.59.59,0,0,0,.58-.58.58.58,0,0,0-.58-.58m-.51,1.5h1v3h-1Zm13.21,3h1V24.07a.56.56,0,0,1,.54-.6c.35,0,.54.23.54.6V25.6h1V23.82a1.17,1.17,0,0,0-1.22-1.24,1.3,1.3,0,0,0-.93.4h0v-.33h-.9v3m3.72,0h1V24.23h0l.91,1.37h1.14L43.41,24l1.07-1.38H43.34l-.88,1.22h0V21.44h-1ZM18,22.69a2.54,2.54,0,0,0-.74-.12,1.55,1.55,0,1,0,0,3.09,2.5,2.5,0,0,0,.78-.13l0-.86a1.2,1.2,0,0,1-.53.15.68.68,0,0,1-.71-.7.7.7,0,0,1,.73-.72,1.14,1.14,0,0,1,.51.15Zm9.1,1.4c0,.49.28.8.63.8a.7.7,0,0,0,.63-.76.69.69,0,0,0-.63-.77.67.67,0,0,0-.63.73m2.27-1.44v3h-1l0-.3h0a1.23,1.23,0,0,1-1,.36,1.55,1.55,0,0,1,.06-3.08,1.15,1.15,0,0,1,.9.33h0v-.26Zm5.44,1.44c0,.49.27.8.62.8a.7.7,0,0,0,.63-.76c0-.46-.27-.77-.63-.77a.67.67,0,0,0-.62.73m2.27-1.45v3h-1l0-.3h0a1.23,1.23,0,0,1-1,.36,1.55,1.55,0,0,1,.06-3.08,1.2,1.2,0,0,1,.91.33h0v-.27ZM12.32,25.49a4.11,4.11,0,0,0,1.18.17c.88,0,1.75-.31,1.75-1.28,0-1.32-1.82-1.13-1.82-1.66,0-.27.28-.33.56-.33a2.9,2.9,0,0,1,1,.23l.08-.91a3.61,3.61,0,0,0-1-.14c-.87,0-1.72.33-1.72,1.19,0,1.3,1.82,1,1.82,1.71,0,.26-.26.36-.6.36a2.63,2.63,0,0,1-1.07-.31ZM24,24.79a1,1,0,0,1-.29.05.4.4,0,0,1-.43-.45v-1h.64v-.74h-.64v-1h-1v1H21.8v.74h.45v1.17a1,1,0,0,0,1.06,1.1,2.74,2.74,0,0,0,.56-.06ZM8.69,23.62A2.26,2.26,0,0,1,6.6,25.86H4.22l-1.5,1.49H6.57A2.5,2.5,0,0,0,9,24.92a2.44,2.44,0,0,0-.29-1.27v0m-.41.94a2,2,0,0,0,.24-.84H7.44a2.59,2.59,0,0,1-.14.84Zm-1,.17a2.75,2.75,0,0,1-.7.94,1.92,1.92,0,0,0,1.63-.94Zm-.13-.17a3.48,3.48,0,0,0,.17-.84H5.64a3.46,3.46,0,0,0,.16.84Zm-1.49,0a2.89,2.89,0,0,1-.14-.84H4.39a2,2,0,0,0,.24.84Zm.85.94A2.85,2.85,0,0,0,7,24.73H5.87a2.93,2.93,0,0,0,.59.77Zm-1.74-.77a2,2,0,0,0,1.67.94,2.26,2.26,0,0,1-.71-.94Zm2.58-2a2.35,2.35,0,0,1,.14.84H8.52a1.93,1.93,0,0,0-.24-.84Zm.86-.2a2,2,0,0,0-1.63-.93,2.54,2.54,0,0,1,.7.93Zm-2.36.2a3.29,3.29,0,0,0-.16.84H7.27a3.3,3.3,0,0,0-.17-.84Zm-1.17,0a1.93,1.93,0,0,0-.24.84H5.47a2.6,2.6,0,0,1,.14-.84Zm1.83-.95a2.83,2.83,0,0,0-.59.75H7a2.76,2.76,0,0,0-.57-.75Zm-.78.75a2.12,2.12,0,0,1,.71-.93,2.05,2.05,0,0,0-1.67.93ZM4.22,23.59a2.45,2.45,0,0,1-.3-1.27,2.5,2.5,0,0,1,2.41-2.43h3.85l-1.49,1.5H6.31a2.25,2.25,0,0,0-2.09,2.2Z"/></g></g></svg>