<svg xmlns="http://www.w3.org/2000/svg" viewBox="0 0 383.18 288.76"><defs><style>.cls-1{fill:#1d2a37;}</style></defs><title>tiempo</title><g id="Capa_2" data-name="Capa 2"><g id="Capa_1-2" data-name="Capa 1"><path class="cls-1" d="M0,122.65C2,119.84,4.67,119,8,119c17.44.1,34.88,0,52.33.07a14.15,14.15,0,0,1,4.41.51c2.72.9,3.87,3,3.55,5.84a5,5,0,0,1-4.53,4.74,16.19,16.19,0,0,1-2.61.13c-17.94,0-35.88-.05-53.82.06-3.36,0-5.8-1-7.36-4Z"/><path class="cls-1" d="M0,162.4c1.5-2.79,3.72-4,7-4,18.19.1,36.38,0,54.57.06,5,0,7.79,3,6.62,7.06-1,3.55-3.85,4.18-7.06,4.18q-20.94,0-41.86,0c-3.74,0-7.49-.14-11.22,0-3.37.17-6-.83-8-3.6Z"/><path class="cls-1" d="M160.57,265.76c-5.62-4.42-10.82-8.07-15.51-12.28-37.18-33.42-53.66-75.17-49-125,2-21.82,9.37-42,21-60.64.78-1.25,1.7-2.94,2.88-3.27,1.84-.52,4.54-.8,5.81.19,1.42,1.11,2,3.69,2.29,5.72.15,1.12-1,2.49-1.69,3.65a133.25,133.25,0,0,0,66.83,195.1c77,28.88,162.66-20.33,176.71-101.51C382.2,96.58,337.19,28.91,266.5,14.31,219.83,4.68,179,17.7,144.65,50.93c-1.34,1.3-2.54,2.75-3.91,4-2.54,2.37-5.83,2.48-8.05.37a5.39,5.39,0,0,1,0-8c5.1-5.13,10.34-10.13,15.76-14.91,3.53-3.11,7.5-5.74,12.31-9.37H86.4c-1.37,0-3.09.43-4-.22-1.77-1.22-3.78-2.84-4.43-4.74-.9-2.6.69-4.91,3.43-5.77a16.27,16.27,0,0,1,4.79-.5c30.68,0,61.37,0,92-.08a22.23,22.23,0,0,0,7.94-1.52C271-23.54,365.75,29.82,381.11,120c13.39,78.65-39.63,153.75-117.86,166.73a143.63,143.63,0,0,1-77.49-8.25,20.51,20.51,0,0,0-7.21-1.41c-30.81-.09-61.62-.06-92.43-.07a16.84,16.84,0,0,1-4.09-.25A5.14,5.14,0,0,1,77.76,271c.19-3,1.94-4.78,4.94-5.14a35.15,35.15,0,0,1,4.11-.09Z"/><path class="cls-1" d="M239,256.55c-56.27-.42-102.78-41.27-110.79-97.32C119.83,100.58,161,44.15,219.52,34.05,282.68,23.16,341,65.73,350.12,129.43c.33,2.35.55,4.72.73,7.09.29,3.86-1.86,6.7-5.2,6.94-3.16.23-5.61-2-5.93-5.84a102.18,102.18,0,0,0-18.19-51.24c-23.2-33.16-65-49.48-103.89-40.51-40.75,9.39-71.19,41.54-77.77,82.14a100.75,100.75,0,0,0,85.91,116.32c53.35,7.45,103.75-29.63,112.7-82.76.37-2.21,1.74-4.92,3.51-6.08,3.84-2.5,8.62,1.1,7.63,5.95a154.45,154.45,0,0,1-6.06,23.1C327.58,227.64,284.88,256.89,239,256.55Z"/><path class="cls-1" d="M244.78,138.82h14.46c1.5,0,3-.06,4.49.05,3.29.25,5.54,2.44,5.63,5.36a5.4,5.4,0,0,1-5.31,5.66q-12.51.3-25,0c-3.52-.07-5.43-2.38-5.44-5.91q-.06-23.22,0-46.45c0-3.71,2.43-6.2,5.63-6.17s5.52,2.51,5.54,6.26c.05,12.24,0,24.48,0,36.72Z"/><path class="cls-1" d="M58.77,64.24c-9.48,0-19,0-28.43,0-4.35,0-6.92-2.2-6.84-5.67.07-3.29,2.63-5.54,6.68-5.55Q58.62,53,87,53c4.35,0,6.83,2.23,6.77,5.77s-2.43,5.44-7,5.45C77.47,64.26,68.12,64.24,58.77,64.24Z"/><path class="cls-1" d="M58.63,224.56c9.47,0,18.95,0,28.43,0,4.4,0,6.83,2.1,6.76,5.67-.07,3.37-2.51,5.53-6.64,5.54q-28.43.08-56.86,0c-4.26,0-6.89-2.36-6.81-5.8s2.52-5.41,6.69-5.42C39.67,224.53,49.15,224.56,58.63,224.56Z"/><path class="cls-1" d="M74.37,102.56c-3.73,0-7.46.1-11.19,0s-5.77-2.25-5.8-5.47a5.42,5.42,0,0,1,5.67-5.65q11.57-.22,23.14,0a5.61,5.61,0,0,1,5.69,5.72c-.07,3.08-2.4,5.3-5.94,5.41C82.09,102.65,78.23,102.56,74.37,102.56Z"/><path class="cls-1" d="M74.86,186.23c3.6,0,7.21-.08,10.82,0,3.77.1,6.2,2.35,6.21,5.54a5.65,5.65,0,0,1-5.82,5.61c-7.7.15-15.42.16-23.13,0a5.38,5.38,0,0,1-5.56-5.77c.09-3.21,2.23-5.25,5.91-5.36C67.14,186.15,71,186.23,74.86,186.23Z"/><path class="cls-1" d="M244.75,66.67a46.12,46.12,0,0,1,0,4.85c-.34,3.16-2.26,5.07-5.36,5.18a5.09,5.09,0,0,1-5.65-4.81,50.48,50.48,0,0,1,0-10.06c.32-3.14,2.53-4.91,5.66-4.8s5,2,5.36,5.16A41.83,41.83,0,0,1,244.75,66.67Z"/><path class="cls-1" d="M193.36,93.29c-.83,1.1-1.67,3.21-3.17,3.94s-4.26.88-5.48,0a34.85,34.85,0,0,1-8-8.18c-.9-1.33-.47-4.77.68-5.94,1.31-1.32,4.91-2.29,6.09-1.44,3.45,2.47,6.21,5.92,9.17,9C193,91.06,193,91.84,193.36,93.29Z"/><path class="cls-1" d="M303.06,86.11c-.87,1.81-1.23,3.2-2.07,4.16a73.92,73.92,0,0,1-6.29,6.35,5.52,5.52,0,0,1-7.73-.08,5.31,5.31,0,0,1-.16-7.71c2-2.32,4.11-4.81,6.66-6.44a7.85,7.85,0,0,1,6.11-.54C301.06,82.36,301.93,84.62,303.06,86.11Z"/><path class="cls-1" d="M193.63,195.79c-.88,1.8-1.24,3.2-2.1,4.16a69.7,69.7,0,0,1-6.29,6.34,5.54,5.54,0,0,1-7.88-7.78c2-2.32,4.1-4.82,6.66-6.45a7.91,7.91,0,0,1,6.12-.52C191.63,192.07,192.51,194.33,193.63,195.79Z"/><path class="cls-1" d="M290.51,190.05c1.85.92,3.23,1.29,4.19,2.14a71.13,71.13,0,0,1,6.31,6.33,5.4,5.4,0,0,1-.2,7.71c-2.34,2.13-5,2.32-7.41.27a37.22,37.22,0,0,1-6.72-6.91,7,7,0,0,1-.59-5.76C286.74,192.23,289,191.28,290.51,190.05Z"/><path class="cls-1" d="M233.64,222a33.51,33.51,0,0,1,.05-5.21,5.22,5.22,0,0,1,5.4-4.73,5.15,5.15,0,0,1,5.57,4.92,58.06,58.06,0,0,1,0,9.69,5.14,5.14,0,0,1-5.43,5.08c-3.12,0-5.13-1.77-5.6-4.9a32.67,32.67,0,0,1,0-4.85Z"/><path class="cls-1" d="M161.83,138.92a43.21,43.21,0,0,1,4.83,0,5,5,0,0,1,4.87,5.14c.14,3.18-1.45,5.4-4.63,5.7a56.13,56.13,0,0,1-10.37,0c-3-.29-4.59-2.43-4.54-5.42,0-3.17,1.85-5.06,5-5.41a45.55,45.55,0,0,1,4.82,0Z"/><path class="cls-1" d="M316.68,138.93a40.94,40.94,0,0,1,4.83,0,5,5,0,0,1,4.84,5.18c.14,3-1.37,5.24-4.34,5.57a51.9,51.9,0,0,1-10.72,0c-3.17-.32-4.68-2.64-4.46-5.82.22-3,2-4.72,5-5,1.6-.15,3.22,0,4.83,0Z"/></g></g></svg>