<svg id="Capa_1" data-name="Capa 1" xmlns="http://www.w3.org/2000/svg" xmlns:xlink="http://www.w3.org/1999/xlink" viewBox="0 0 872.31 51"><defs><style>.cls-1,.cls-14{fill:none;}.cls-2{clip-path:url(#clip-path);}.cls-3,.cls-6{fill:#1d2a37;}.cls-4{fill:#52697c;}.cls-5,.cls-7{fill:#dfedff;}.cls-19,.cls-20,.cls-21,.cls-5,.cls-6{fill-rule:evenodd;}.cls-8{clip-path:url(#clip-path-2);}.cls-9{fill:#1077fd;}.cls-10{fill:#1f1e1f;}.cls-11,.cls-21{fill:#fff;}.cls-12{fill:#08346f;}.cls-13{fill:#cc2229;}.cls-14{stroke:#005fa0;}.cls-15{fill:url(#Degradado_sin_nombre);}.cls-16{fill:#ff4f10;}.cls-17{fill:#2ab52c;}.cls-18{fill:#001e94;}.cls-19{fill:#f5c400;}.cls-20{fill:#fcfcfc;}</style><clipPath id="clip-path" transform="translate(-4.69 -2.32)"><rect class="cls-1" y="2" width="52" height="50.73"/></clipPath><clipPath id="clip-path-2" transform="translate(-4.69 -2.32)"><rect class="cls-1" x="417" y="3" width="52" height="49.52"/></clipPath><linearGradient id="Degradado_sin_nombre" x1="283.63" y1="12.8" x2="318.66" y2="43.32" gradientTransform="matrix(1, 0, 0, -1, -4.69, 51.68)" gradientUnits="userSpaceOnUse"><stop offset="0" stop-color="#001774"/><stop offset="1" stop-color="#0037f4"/></linearGradient></defs><title>transferencias</title><g class="cls-2"><path class="cls-3" d="M12.54,7.21,8.25,9.92A1,1,0,0,0,8,11.28l7.5,10.84a1.06,1.06,0,0,0,1.41.29l4.3-2.72a.94.94,0,0,0,.27-1.35L14,7.5A1.07,1.07,0,0,0,12.54,7.21Z" transform="translate(-4.69 -2.32)"/><path class="cls-4" d="M14.48,4.94,5.59,10.56A1.9,1.9,0,0,0,5,13.27l1.51,2.18A2.1,2.1,0,0,0,9.38,16l8.88-5.62a1.9,1.9,0,0,0,.55-2.71l-1.5-2.18A2.11,2.11,0,0,0,14.48,4.94Z" transform="translate(-4.69 -2.32)"/><path class="cls-5" d="M14.48,4.94a2.11,2.11,0,0,1,2.83.58l1.5,2.18a1.89,1.89,0,0,1-.55,2.71l0,0-.12-.19-2.07-3a2.1,2.1,0,0,0-2.83-.57L4.7,12.06a1.87,1.87,0,0,1,.89-1.5Z" transform="translate(-4.69 -2.32)"/><path class="cls-6" d="M19,9.5a1.9,1.9,0,0,1-.76.91L9.38,16a2.1,2.1,0,0,1-2.83-.58L5,13.27a1.9,1.9,0,0,1,.55-2.71l.21-.14a2,2,0,0,0,.32,1.43l1.66,2.4a2.1,2.1,0,0,0,2.83.57Z" transform="translate(-4.69 -2.32)"/><polygon class="cls-3" points="15.27 9.81 10.86 11.65 29.55 49.73 33.97 47.88 15.27 9.81"/><path class="cls-3" d="M12.15,38.33c5.16,10.51,15.16,16.6,22.34,13.61S43.29,38,38.13,27.48,23,10.87,15.79,13.86,7,27.81,12.15,38.33Z" transform="translate(-4.69 -2.32)"/><path class="cls-7" d="M16.07,36.7c5.16,10.51,15.27,16.56,22.59,13.51s9.05-14.06,3.89-24.57S27.27,9.08,20,12.13,10.91,26.19,16.07,36.7Z" transform="translate(-4.69 -2.32)"/><path class="cls-3" d="M17.83,36c4.65,9.46,13.75,14.91,20.33,12.16S46.31,35.47,41.66,26,27.92,11.1,21.34,13.85,13.19,26.5,17.83,36Z" transform="translate(-4.69 -2.32)"/><path class="cls-4" d="M17.83,36C22.48,45.42,31.19,51,37.28,48.49s7.27-12.28,2.62-21.74S26.55,11.68,20.45,14.22,13.19,26.5,17.83,36Z" transform="translate(-4.69 -2.32)"/><path class="cls-7" d="M29.47,31.45l3-2.3L21.66,17.09Z" transform="translate(-4.69 -2.32)"/><path class="cls-7" d="M25.87,36.62,32.48,32V29.15h-2.4Z" transform="translate(-4.69 -2.32)"/><path class="cls-4" d="M22.39,7a.73.73,0,0,1-.53.9.78.78,0,0,1-.93-.55ZM20.07,4.13a.73.73,0,0,1,.54-.9.76.76,0,0,1,.92.54Zm.86,3.23-.86-3.23,1.46-.36L22.39,7Z" transform="translate(-4.69 -2.32)"/><path class="cls-4" d="M27.19,7.45a.76.76,0,0,1-.91.56.72.72,0,0,1-.55-.89Zm-.62-3.67a.77.77,0,0,1,.91-.56.74.74,0,0,1,.55.9Zm-.84,3.34.84-3.34L28,4.12l-.84,3.33Z" transform="translate(-4.69 -2.32)"/><path class="cls-4" d="M31.74,9.65a.8.8,0,0,1-1.08-.15.71.71,0,0,1,.14-1Zm1.59-3a.79.79,0,0,1,1.07.15.72.72,0,0,1-.13,1ZM30.8,8.47l2.53-1.86.94,1.18L31.74,9.65Z" transform="translate(-4.69 -2.32)"/></g><g class="cls-8"><polygon class="cls-9" points="430.97 9.81 426.55 11.65 445.25 49.73 449.66 47.88 430.97 9.81"/><path class="cls-3" d="M427.85,38.33C433,48.84,443,54.93,450.19,51.94S459,38,453.83,27.48s-15.16-16.61-22.34-13.61S422.68,27.81,427.85,38.33Z" transform="translate(-4.69 -2.32)"/><path class="cls-7" d="M431.77,36.7c5.16,10.51,15.27,16.56,22.59,13.51s9.05-14.06,3.89-24.57S443,9.08,435.66,12.13,426.61,26.19,431.77,36.7Z" transform="translate(-4.69 -2.32)"/><path class="cls-3" d="M433.53,36c4.65,9.46,13.75,14.91,20.33,12.16S462,35.47,457.36,26,443.61,11.1,437,13.85,428.89,26.5,433.53,36Z" transform="translate(-4.69 -2.32)"/><path class="cls-4" d="M433.53,36C438.18,45.42,446.89,51,453,48.49s7.26-12.28,2.62-21.74-13.36-15.07-19.45-12.53S428.89,26.5,433.53,36Z" transform="translate(-4.69 -2.32)"/><path class="cls-7" d="M445.39,31.91l3-2.3L438.5,18.92Z" transform="translate(-4.69 -2.32)"/><path class="cls-7" d="M441.79,37.08l6.6-4.59V29.61H446Z" transform="translate(-4.69 -2.32)"/><path class="cls-4" d="M445.16,8a.73.73,0,0,1-.73.75.77.77,0,0,1-.77-.75ZM443.58,4.6a.73.73,0,0,1,.73-.75.77.77,0,0,1,.77.75ZM443.66,8l-.08-3.35h1.5L445.16,8Z" transform="translate(-4.69 -2.32)"/><path class="cls-4" d="M449.72,9.51a.77.77,0,0,1-1,.32.73.73,0,0,1-.33-1ZM450,5.79a.78.78,0,0,1,1-.33.74.74,0,0,1,.32,1Zm-1.61,3.05,1.61-3,1.34.67-1.6,3.05Z" transform="translate(-4.69 -2.32)"/><path class="cls-4" d="M453.63,12.7a.78.78,0,0,1-1-.39.71.71,0,0,1,.37-1Zm2.26-2.57a.77.77,0,0,1,1,.39.71.71,0,0,1-.37,1ZM453,11.34l2.9-1.21.63,1.36-2.89,1.21Z" transform="translate(-4.69 -2.32)"/><ellipse class="cls-7" cx="452.6" cy="26.49" rx="1.02" ry="1.3" transform="translate(37.29 216.38) rotate(-28.43)"/><ellipse class="cls-7" cx="445.73" cy="18.71" rx="1.02" ry="1.3" transform="translate(40.17 212.17) rotate(-28.43)"/><ellipse class="cls-7" cx="434.06" cy="25.52" rx="1.02" ry="1.3" transform="translate(35.52 207.43) rotate(-28.43)"/><ellipse class="cls-7" cx="455.63" cy="35.96" rx="1.02" ry="1.3" transform="translate(33.15 218.96) rotate(-28.43)"/><ellipse class="cls-7" cx="442.7" cy="42.95" rx="1.02" ry="1.3" transform="translate(28.26 213.65) rotate(-28.43)"/><ellipse class="cls-7" cx="452.6" cy="45.24" rx="1.02" ry="1.3" transform="translate(28.37 218.64) rotate(-28.43)"/><ellipse class="cls-7" cx="435.85" cy="34.99" rx="1.02" ry="1.3" transform="translate(31.23 209.43) rotate(-28.43)"/><ellipse class="cls-7" cx="436.12" cy="16.43" rx="1.02" ry="1.3" transform="translate(40.1 207.32) rotate(-28.43)"/></g><rect class="cls-10" x="833.31" y="4.68" width="39" height="39" rx="8"/><path class="cls-11" d="M848.36,34.11v.22a2.28,2.28,0,0,1-.1.72,1.41,1.41,0,0,1-.29.54,1.17,1.17,0,0,1-.45.34,1.46,1.46,0,0,1-1.16,0,1.28,1.28,0,0,1-.46-.34,1.74,1.74,0,0,1-.29-.54,2.27,2.27,0,0,1-.11-.72v-.22a2.48,2.48,0,0,1,.1-.71,1.41,1.41,0,0,1,.3-.54,1.37,1.37,0,0,1,.45-.35,1.61,1.61,0,0,1,1.17,0,1.37,1.37,0,0,1,.45.35,1.39,1.39,0,0,1,.29.54A2.17,2.17,0,0,1,848.36,34.11Zm-.46.22v-.22a2.4,2.4,0,0,0-.07-.57,1.2,1.2,0,0,0-.19-.41.81.81,0,0,0-.3-.25,1.07,1.07,0,0,0-.41-.08,1,1,0,0,0-.4.08,1,1,0,0,0-.3.25,1.2,1.2,0,0,0-.19.41,2,2,0,0,0-.07.57v.22a1.93,1.93,0,0,0,.07.57,1.2,1.2,0,0,0,.19.41,1,1,0,0,0,.31.26,1,1,0,0,0,.8,0,.83.83,0,0,0,.3-.26,1,1,0,0,0,.19-.41A2.34,2.34,0,0,0,847.9,34.33Zm2.2-1v.35h-1.42v-.35Zm-.94-.64h.45v2.63a.5.5,0,0,0,0,.2.31.31,0,0,0,.11.09l.14,0H850l.09,0V36L850,36l-.21,0a.67.67,0,0,1-.31-.07.47.47,0,0,1-.22-.22,1,1,0,0,1-.08-.42Zm1.93,1.05V36h-.45V33.36h.43Zm.82-.43v.42h-.22a.82.82,0,0,0-.28,0,.72.72,0,0,0-.2.14.74.74,0,0,0-.13.21,1.1,1.1,0,0,0-.06.26l-.13.08a2.14,2.14,0,0,1,.05-.45,1,1,0,0,1,.15-.37.69.69,0,0,1,.25-.26.72.72,0,0,1,.37-.09h.11Zm.25,1.37v-.06a1.84,1.84,0,0,1,.08-.53,1.44,1.44,0,0,1,.24-.42,1.07,1.07,0,0,1,.38-.29,1.15,1.15,0,0,1,.5-.1,1.18,1.18,0,0,1,.5.1,1,1,0,0,1,.38.29,1.1,1.1,0,0,1,.24.42,1.55,1.55,0,0,1,.09.53v.06a1.51,1.51,0,0,1-.09.53,1.22,1.22,0,0,1-.24.43,1.08,1.08,0,0,1-.38.28,1.12,1.12,0,0,1-.5.1,1.18,1.18,0,0,1-.5-.1,1.29,1.29,0,0,1-.38-.28,1.64,1.64,0,0,1-.24-.43A1.78,1.78,0,0,1,852.16,34.71Zm.45-.06v.06a1.5,1.5,0,0,0,0,.37,1,1,0,0,0,.14.31.66.66,0,0,0,.23.21.73.73,0,0,0,.33.08.67.67,0,0,0,.33-.08.66.66,0,0,0,.23-.21,1,1,0,0,0,.14-.31,1.5,1.5,0,0,0,.05-.37v-.06a1.5,1.5,0,0,0-.05-.37,1.09,1.09,0,0,0-.14-.31.66.66,0,0,0-.23-.21.72.72,0,0,0-.66,0,.66.66,0,0,0-.23.21,1.09,1.09,0,0,0-.14.31A1.5,1.5,0,0,0,852.61,34.65Zm3.76-2.4h.45v3.24l0,.51h-.41Zm2.24,2.41v.05a1.79,1.79,0,0,1-.07.53,1.32,1.32,0,0,1-.2.43A1,1,0,0,1,858,36a.92.92,0,0,1-.44.1,1,1,0,0,1-.44-.09.87.87,0,0,1-.32-.25,1.45,1.45,0,0,1-.21-.39,2.63,2.63,0,0,1-.1-.53v-.22a2.63,2.63,0,0,1,.1-.53,1.45,1.45,0,0,1,.21-.39.78.78,0,0,1,.32-.25,1,1,0,0,1,.44-.09.92.92,0,0,1,.44.1.83.83,0,0,1,.32.27,1.32,1.32,0,0,1,.2.43A1.88,1.88,0,0,1,858.61,34.66Zm-.46.05v-.05a2.13,2.13,0,0,0,0-.37A1.25,1.25,0,0,0,858,34a.53.53,0,0,0-.21-.21.67.67,0,0,0-.33-.08.65.65,0,0,0-.29.06.6.6,0,0,0-.22.16,1.18,1.18,0,0,0-.14.22,1.29,1.29,0,0,0-.08.26V35a2.19,2.19,0,0,0,.12.33,1,1,0,0,0,.24.26.77.77,0,0,0,.38.1.62.62,0,0,0,.31-.08.53.53,0,0,0,.21-.21.68.68,0,0,0,.12-.3A1.5,1.5,0,0,0,858.15,34.71Zm2.59.84V34.19a.45.45,0,0,0-.07-.27.39.39,0,0,0-.18-.18.59.59,0,0,0-.31-.07.73.73,0,0,0-.3.06.53.53,0,0,0-.2.16.31.31,0,0,0-.07.2h-.45a.58.58,0,0,1,.07-.28.82.82,0,0,1,.21-.25.88.88,0,0,1,.33-.18,1.23,1.23,0,0,1,.44-.07,1.19,1.19,0,0,1,.51.1.74.74,0,0,1,.34.29.85.85,0,0,1,.13.49v1.23a2.64,2.64,0,0,0,0,.28,1.38,1.38,0,0,0,.07.26v0h-.47a.81.81,0,0,1,0-.21A1.06,1.06,0,0,1,860.74,35.55Zm.08-1.15v.32h-.46a1.72,1.72,0,0,0-.34,0,.73.73,0,0,0-.25.09.46.46,0,0,0-.16.15.36.36,0,0,0-.05.21.4.4,0,0,0,.22.39.61.61,0,0,0,.28.06.87.87,0,0,0,.37-.08.76.76,0,0,0,.25-.22.44.44,0,0,0,.1-.25l.19.22a.61.61,0,0,1-.09.23,1.41,1.41,0,0,1-.2.24,1.1,1.1,0,0,1-.3.19,1.13,1.13,0,0,1-.39.07,1,1,0,0,1-.47-.11.84.84,0,0,1-.31-.28.77.77,0,0,1-.11-.39.89.89,0,0,1,.08-.38.78.78,0,0,1,.24-.27,1.33,1.33,0,0,1,.38-.17,2.46,2.46,0,0,1,.49-.05Zm1.53-.48V36h-.45V33.36h.43Zm-.11.66h-.18a1.35,1.35,0,0,1,.08-.5,1.11,1.11,0,0,1,.22-.4,1,1,0,0,1,.33-.27,1.08,1.08,0,0,1,.44-.09,1.23,1.23,0,0,1,.35,0,.69.69,0,0,1,.27.17.87.87,0,0,1,.17.3,1.37,1.37,0,0,1,.06.44V36h-.46V34.26a.81.81,0,0,0-.06-.33.39.39,0,0,0-.18-.18.58.58,0,0,0-.28-.06.62.62,0,0,0-.31.07.76.76,0,0,0-.24.2,1.06,1.06,0,0,0-.15.28A1,1,0,0,0,862.24,34.58Zm3.48,1.1a.6.6,0,0,0,.3-.07.55.55,0,0,0,.22-.18.44.44,0,0,0,.1-.26h.43a.79.79,0,0,1-.16.43,1,1,0,0,1-.38.33,1.07,1.07,0,0,1-.51.12,1.21,1.21,0,0,1-.52-.11,1,1,0,0,1-.37-.28,1.65,1.65,0,0,1-.21-.42,1.7,1.7,0,0,1-.07-.51v-.1a1.59,1.59,0,0,1,.07-.5,1.44,1.44,0,0,1,.21-.43,1.06,1.06,0,0,1,.37-.29,1.21,1.21,0,0,1,.52-.1,1,1,0,0,1,.54.13.87.87,0,0,1,.37.34,1,1,0,0,1,.14.49h-.43a.62.62,0,0,0-.09-.3.5.5,0,0,0-.22-.21.59.59,0,0,0-.31-.08.75.75,0,0,0-.35.08.66.66,0,0,0-.22.22,1.05,1.05,0,0,0-.12.31,1.87,1.87,0,0,0,0,.34v.1a1.87,1.87,0,0,0,0,.34.84.84,0,0,0,.12.31.66.66,0,0,0,.22.22A.72.72,0,0,0,865.72,35.68Zm1.44-1v-.06a1.84,1.84,0,0,1,.08-.53,1.44,1.44,0,0,1,.24-.42,1.07,1.07,0,0,1,.38-.29,1.15,1.15,0,0,1,.5-.1,1.18,1.18,0,0,1,.5.1,1,1,0,0,1,.38.29,1.1,1.1,0,0,1,.24.42,1.55,1.55,0,0,1,.09.53v.06a1.51,1.51,0,0,1-.09.53,1.22,1.22,0,0,1-.24.43,1.08,1.08,0,0,1-.38.28,1.12,1.12,0,0,1-.5.1,1.18,1.18,0,0,1-.5-.1,1.29,1.29,0,0,1-.38-.28,1.64,1.64,0,0,1-.24-.43A1.78,1.78,0,0,1,867.16,34.71Zm.45-.06v.06a1.5,1.5,0,0,0,0,.37,1,1,0,0,0,.14.31.66.66,0,0,0,.23.21.73.73,0,0,0,.33.08.67.67,0,0,0,.33-.08.66.66,0,0,0,.23-.21,1,1,0,0,0,.14-.31,1.5,1.5,0,0,0,.05-.37v-.06a1.5,1.5,0,0,0-.05-.37,1.09,1.09,0,0,0-.14-.31.66.66,0,0,0-.23-.21.72.72,0,0,0-.66,0,.66.66,0,0,0-.23.21,1.09,1.09,0,0,0-.14.31A1.5,1.5,0,0,0,867.61,34.65Z" transform="translate(-4.69 -2.32)"/><path class="cls-11" d="M866.33,24.64a1.86,1.86,0,0,0-.88-.93,4.06,4.06,0,0,0-2.72-3.7,3.39,3.39,0,0,1-6.72-.35,4.44,4.44,0,0,0-.52.15,3.85,3.85,0,0,0-1.57-1.19.37.37,0,0,0-.31,0,.3.3,0,0,0-.14.26v1.87a4.38,4.38,0,0,0-1.86,2.41h-.67a.32.32,0,0,0-.33.31v2.12a.32.32,0,0,0,.33.31h1.2a6.23,6.23,0,0,0,3,2.14v.79a1,1,0,1,0,1.94,0v-.28a11.87,11.87,0,0,0,3.57,0v.28a1,1,0,1,0,1.94,0v-.79a4.16,4.16,0,0,0,2.85-3.62.91.91,0,0,1,.28.37.64.64,0,0,1-.11.56.31.31,0,0,0,.12.43.33.33,0,0,0,.17,0,.32.32,0,0,0,.28-.15,1.2,1.2,0,0,0,.17-1.07Zm-12.38-1a.39.39,0,0,1-.23.09.42.42,0,0,1-.24-.09.32.32,0,0,1-.09-.23.31.31,0,0,1,.09-.22.38.38,0,0,1,.47,0,.31.31,0,0,1,.09.22.32.32,0,0,1-.09.23Z" transform="translate(-4.69 -2.32)"/><path class="cls-11" d="M859.39,22.18a2.59,2.59,0,1,0-2.73-2.59,2.66,2.66,0,0,0,2.73,2.59Zm0-2.28a1,1,0,0,1-1-1,1,1,0,0,1,.68-.9v0a.33.33,0,0,1,.65,0v0a1,1,0,0,1,.69.9.33.33,0,0,1-.66,0,.36.36,0,0,0-.71,0,.35.35,0,0,0,.36.34,1,1,0,0,1,1,1,1,1,0,0,1-.69.9v0a.33.33,0,0,1-.65,0v0a1,1,0,0,1-.68-.9.33.33,0,0,1,.65,0,.36.36,0,1,0,.36-.34Z" transform="translate(-4.69 -2.32)"/><rect class="cls-12" x="721.31" y="4.68" width="39" height="39" rx="8"/><path class="cls-11" d="M757.51,22h.1a.71.71,0,0,1,.23.33l2.73,5,1.33,2.42v0s0,.11-.12.11h-1.32c-.11,0-.14-.11-.18-.18s-.17-.3-.24-.45-.22-.42-.34-.63-.22-.39-.32-.59-.14-.24-.2-.36-.2-.35-.28-.54-.23-.44-.36-.65-.21-.37-.3-.57-.15-.25-.21-.38-.19-.34-.27-.51-.07-.16-.15-.19-.13,0-.16,0c-.13.22-.23.45-.37.67s-.22.39-.31.59l-.19.35c-.05.08-.09.17-.14.26s-.16.31-.25.46-.14.27-.22.4-.14.28-.22.42-.16.32-.26.47-.13.27-.21.4-.15.29-.23.42-.15.3-.24.45,0,.1-.11.11a1.15,1.15,0,0,1-.26,0h-1a.24.24,0,0,1-.18-.05.25.25,0,0,1,0-.17l4.14-7.55a.22.22,0,0,1,.1-.09Zm-26.38,1.21c.09-.1.24-.07.36-.07h3.7a2.82,2.82,0,0,1,1.07.17,2,2,0,0,1,1.25,1.22,2.19,2.19,0,0,1,.11.67,2,2,0,0,1-.14.73,1.7,1.7,0,0,1-.52.7c-.06.05-.15.07-.19.14a1.94,1.94,0,0,1,.81.6,2.15,2.15,0,0,1,.39,1.57,2.28,2.28,0,0,1-.33,1,1.94,1.94,0,0,1-.48.51,3.11,3.11,0,0,1-1.45.5,1.73,1.73,0,0,0-.32,0h-4.17l-.09-.09v-7.7Zm1.38,1.13s0,.11,0,.16c0,.59,0,1.17,0,1.75a.17.17,0,0,0,.16.07H735a1.86,1.86,0,0,0,.33,0A1.16,1.16,0,0,0,736,26a1,1,0,0,0,.21-.43.92.92,0,0,0,0-.37.88.88,0,0,0-.25-.57,1.35,1.35,0,0,0-.75-.3H735a1.13,1.13,0,0,0-.32,0h-2a.36.36,0,0,0-.2.06Zm0,3.15s-.06,0-.06.06a.57.57,0,0,0,0,.29v1.8c0,.09,0,.21.15.2h2.53a1.06,1.06,0,0,0,.25,0,1.66,1.66,0,0,0,.85-.25.87.87,0,0,0,.36-.59,1.49,1.49,0,0,0-.05-.81.86.86,0,0,0-.4-.48,2.08,2.08,0,0,0-.85-.2h-2.74Zm6.78-4.34a1.41,1.41,0,0,1,.29,0h3.92a2.53,2.53,0,0,1,1.62.64,1.9,1.9,0,0,1,.56,1.18c0,.18,0,.35,0,.53a1.74,1.74,0,0,1-.5,1,1.09,1.09,0,0,1-.27.21s-.07,0-.05.06a2,2,0,0,1,.83.64,1.87,1.87,0,0,1,.22.39,2.46,2.46,0,0,1,.16.85,3.83,3.83,0,0,1-.08.67,2,2,0,0,1-.57,1,3.07,3.07,0,0,1-.36.27,3.26,3.26,0,0,1-1.22.37c-.12,0-.24,0-.36,0h-4.17c-.06,0-.13-.09-.12-.18v-7.5a.19.19,0,0,1,.1-.17Zm1.4,1.14a.16.16,0,0,0-.11.07c0,.05,0,.12,0,.19,0,.53,0,1.07,0,1.6a.23.23,0,0,0,.1.17h2.57a1.55,1.55,0,0,0,.67-.17.79.79,0,0,0,.41-.5,1.45,1.45,0,0,0,0-.51.89.89,0,0,0-.11-.35,1.11,1.11,0,0,0-.79-.47c-.12,0-.25,0-.37,0h-2.37Zm0,3.21a.12.12,0,0,0-.09.14c0,.63,0,1.26,0,1.89a1,1,0,0,0,0,.24c0,.05.08.06.13.07h2.57c.12,0,.23,0,.34,0a1.58,1.58,0,0,0,.81-.31,1,1,0,0,0,.28-.65.87.87,0,0,0,0-.36,1,1,0,0,0-.34-.72,2,2,0,0,0-1-.28h-2.57a.55.55,0,0,0-.18,0Zm5.48-4.19a.13.13,0,0,1,.13-.17h1.26c.05,0,.1,0,.13.05a4.31,4.31,0,0,1,.26.47c0,.1.12.2.17.3s.21.38.3.58.23.42.35.63.24.43.35.65.17.31.25.47.18.35.29.52.12.25.2.37.16.33.25.48.16.32.26.47a.15.15,0,0,0,.24,0c.1-.15.17-.32.26-.47s.14-.28.22-.42.17-.32.26-.47.17-.33.27-.49.25-.46.36-.7a4.31,4.31,0,0,0,.26-.47c.1-.16.17-.33.27-.49l.23-.43c.09-.14.15-.29.23-.43a6.65,6.65,0,0,1,.33-.58c0-.05.09,0,.14,0h1.24a.12.12,0,0,1,.13.08c0,.07,0,.14-.06.2l-3.94,7.19a1.66,1.66,0,0,1-.26.39h-.1c-.15-.09-.2-.27-.28-.41q-2-3.64-4-7.28Z" transform="translate(-4.69 -2.32)"/><rect class="cls-13" x="776.31" y="4.68" width="39" height="39" rx="8"/><line class="cls-14" x1="396.81" x2="396.81" y2="51"/><rect class="cls-15" x="276.31" y="4.68" width="39" height="39" rx="8"/><path class="cls-11" d="M299.73,23.54a3.62,3.62,0,0,1,3-.54c.39.1.83.28.92.64a3.83,3.83,0,0,1-.2.89,2.55,2.55,0,0,0-1.84-.42,2,2,0,0,0-1.45,1.16,2.5,2.5,0,0,0-.16,2,1.32,1.32,0,0,0,.89.76,2.23,2.23,0,0,0,1.89-.44c-.1.38-.15.77-.27,1.15s-.54.42-.88.47a3.19,3.19,0,0,1-2.6-.62,2.67,2.67,0,0,1-.74-2.16,3.82,3.82,0,0,1,1.41-2.89" transform="translate(-4.69 -2.32)"/><path class="cls-11" d="M293.67,23.12a11.42,11.42,0,0,1,2-.14,2.92,2.92,0,0,1,1.75.52,1.21,1.21,0,0,1,.12,1.75,2,2,0,0,1-1.1.62,1.49,1.49,0,0,1,.86.59,1.66,1.66,0,0,1-.5,2.12,3.61,3.61,0,0,1-2,.61,5.23,5.23,0,0,1-1.58-.13.85.85,0,0,1-.58-.49,1.72,1.72,0,0,1,0-1c.34-1.47.66-2.95,1-4.42Zm1.25.91c-.09.42-.2.84-.28,1.26,0,.12.15.17.26.16a2,2,0,0,0,1.3-.33.61.61,0,0,0-.08-1,2.69,2.69,0,0,0-1.2-.08Zm-.53,2.37c-.12.41-.19.82-.29,1.22,0,.18-.13.37,0,.53a3.08,3.08,0,0,0,1.42-.21.8.8,0,0,0,.25-1.3,2.44,2.44,0,0,0-1.4-.24" transform="translate(-4.69 -2.32)"/><path class="cls-11" d="M304.68,23.16a6,6,0,0,1,1.47-.15,4.3,4.3,0,0,1,2,.31,1.42,1.42,0,0,1,.79,1.08,2.36,2.36,0,0,1-1.44,2.47,4.43,4.43,0,0,1-2.23.3c-.13.48-.21,1-.34,1.44a.78.78,0,0,1-.56.58c-.35,0-.7,0-1.05,0,.48-2,.9-4,1.37-6Zm1.36.91c-.13.59-.27,1.17-.39,1.75,0,.12.06.23.18.28a1.8,1.8,0,0,0,1.08-.15,1.18,1.18,0,0,0,.59-1.56c-.29-.43-1-.35-1.46-.32" transform="translate(-4.69 -2.32)"/><path class="cls-11" d="M309.62,24.51a2,2,0,0,1,1-1.08.67.67,0,0,1,.71.22,2.71,2.71,0,0,1,0,2.09,5.59,5.59,0,0,0-1.74-1.23" transform="translate(-4.69 -2.32)"/><path class="cls-16" d="M311.36,23.65a4.36,4.36,0,0,1,1.45,1.2,1.51,1.51,0,0,1,.47,1.2,1.8,1.8,0,0,1-.52,1,7.68,7.68,0,0,1-1.85,1.48,1.36,1.36,0,0,1-1,.21,1.55,1.55,0,0,1-1-.83,4.76,4.76,0,0,0,2.41-2.17A2.71,2.71,0,0,0,311.36,23.65Z" transform="translate(-4.69 -2.32)"/><path class="cls-11" d="M288.38,24.51a1.94,1.94,0,0,1,1-1.08.67.67,0,0,1,.71.22,2.66,2.66,0,0,1,0,2.09,5.55,5.55,0,0,0-1.73-1.23" transform="translate(-4.69 -2.32)"/><path class="cls-16" d="M290.12,23.65a4.43,4.43,0,0,1,1.44,1.2,1.52,1.52,0,0,1,.48,1.2,1.87,1.87,0,0,1-.52,1,7.87,7.87,0,0,1-1.85,1.48,1.38,1.38,0,0,1-1,.21,1.53,1.53,0,0,1-1-.83,4.78,4.78,0,0,0,2.4-2.17A2.66,2.66,0,0,0,290.12,23.65Z" transform="translate(-4.69 -2.32)"/><rect class="cls-17" x="332.31" y="4.68" width="39" height="39" rx="8"/><path class="cls-18" d="M341.23,22.82a.79.79,0,0,0-.56.23.75.75,0,0,0-.23.55v5h5.17a.79.79,0,0,0,.56-.23.76.76,0,0,0,.24-.55v-5ZM345,27l-3.18.56V24.45l3.18-.56Z" transform="translate(-4.69 -2.32)"/><path class="cls-11" d="M356.62,24.51a1.66,1.66,0,0,0,0,3.31,1.53,1.53,0,0,0,1-.22v-.54a1.82,1.82,0,0,1-.8.16.89.89,0,0,1-1-.69v0h.59a3.06,3.06,0,0,0,1.18-.16.58.58,0,0,0,.35-.59,1.24,1.24,0,0,0-1.3-1.23Zm.38,1.4a2.72,2.72,0,0,1-.79.08h-.41v-.15a.74.74,0,0,1,.74-.72.8.8,0,0,1,.48.12.49.49,0,0,1,.14.18.5.5,0,0,1,0,.21.27.27,0,0,1-.21.28Zm1.33-.17v2h.77V25.89a.79.79,0,0,1,.16-.55.55.55,0,0,1,.45-.18l.21,0v-.6a1,1,0,0,0-.39-.08,1.14,1.14,0,0,0-1.2,1.24Zm-9.36,2V23.69h-.77v4.07ZM351,24.51a1.34,1.34,0,0,0-1.48,1.35v1.9h.77V25.92a.86.86,0,0,1,.17-.56.65.65,0,0,1,.21-.16.75.75,0,0,1,.26-.05.69.69,0,0,1,.52.2.88.88,0,0,1,.19.63v1.78h.77V25.91a1.33,1.33,0,0,0-1.41-1.4Zm2.76-.82H353v2.94a1.08,1.08,0,0,0,1.22,1.19c.35,0,.56-.11.65-.29v-.47a1.4,1.4,0,0,1-.55.09.53.53,0,0,1-.42-.15.63.63,0,0,1-.15-.47V25.15h.67c.33,0,.46-.2.46-.35v-.3H353.8Zm14.52.82a1.33,1.33,0,0,0-1.47,1.35v1.9h.76V25.92a.85.85,0,0,1,.18-.56.56.56,0,0,1,.21-.16.73.73,0,0,1,.78.16A.92.92,0,0,1,369,26v1.78h.76V25.91a1.31,1.31,0,0,0-1.4-1.4Zm-6.37,0a1,1,0,0,0-.86.48l-.06.08V23.69h-.76v2.53a1.45,1.45,0,0,0,1.52,1.6,1.59,1.59,0,0,0,1.6-1.71,1.47,1.47,0,0,0-1.44-1.6Zm-.07,2.68a.75.75,0,0,1-.62-.25,1.32,1.32,0,0,1-.22-.84.87.87,0,0,1,.76-1,.71.71,0,0,1,.6.25,1.26,1.26,0,0,1,.22.84c0,.54-.31,1-.74,1ZM365,24.51a1.6,1.6,0,0,0-1,.28v.52a2.14,2.14,0,0,1,.86-.18,1,1,0,0,1,.6.14.56.56,0,0,1,.19.49v.08h-.33c-1.23,0-1.63.42-1.63,1s.52,1,1.3,1h.17a1.13,1.13,0,0,0,1.24-1.13v-.75A1.26,1.26,0,0,0,365,24.51Zm.67,2.19a.54.54,0,0,1-.15.4.59.59,0,0,1-.42.13.77.77,0,0,1-.45-.11.47.47,0,0,1-.13-.15.53.53,0,0,1,0-.18.32.32,0,0,1,.05-.19.32.32,0,0,1,.14-.14,1.35,1.35,0,0,1,.66-.11h.34Zm6.28-.62v0c.34-.41,1.06-1.21,1.33-1.45h-.42a.81.81,0,0,0-.64.21,9.5,9.5,0,0,0-1,1.17l-.06.08V23.69h-.77v4.07h.77V26.11l.06.08a15.25,15.25,0,0,0,1.17,1.38.78.78,0,0,0,.52.21.48.48,0,0,0,.42-.15l-1.36-1.55" transform="translate(-4.69 -2.32)"/><path class="cls-19" d="M789.55,20.8a.95.95,0,1,1-.95.95,1,1,0,0,1,.95-.95Z" transform="translate(-4.69 -2.32)"/><path class="cls-20" d="M793.48,23.43h-7.87a1.47,1.47,0,0,0-1.12,1.15v4.87c0,.33,0,.45.2.63H787c-.5-.38-.51-.82-.45-2h6a2,2,0,0,1-.46,1.95h2.29c.21-.07.14-.28.16-.47V24.53A1.29,1.29,0,0,0,793.48,23.43Zm-.94,3h-6v-1.1a.74.74,0,0,1,.72-.55l4.72,0a.47.47,0,0,1,.58.49Z" transform="translate(-4.69 -2.32)"/><path class="cls-19" d="M784.8,31.43c-.63-.11-.08-.49.28-.54,3.12-.29,6.57-.63,9.75,0,.49.12.91.51.12.37-.46-.05-.42.19-.21.19.56,0,1.32.4.62.48-.24,0-.52-.5-.83-.3-.08.07,0,.11.05.11.45.09.21.33-.41.14a35.36,35.36,0,0,0-9.37-.48Z" transform="translate(-4.69 -2.32)"/><path class="cls-11" d="M807.07,23.46h-1l-1.06,3H806l.14-.5h1l.14.5h.91Zm-.8,1.86.31-1.08.32,1.08ZM804,23.46v1.86a.77.77,0,0,1-.07.39.22.22,0,0,1-.21.11.2.2,0,0,1-.14,0,.33.33,0,0,1-.11-.15,1.15,1.15,0,0,1,0-.3l-.83.12a1.32,1.32,0,0,0,.15.59.83.83,0,0,0,.36.36,1.5,1.5,0,0,0,.66.12,1.11,1.11,0,0,0,.67-.19.88.88,0,0,0,.34-.45,2.6,2.6,0,0,0,.09-.78V23.46Zm-2.51,0h-1l-1.06,3h.89l.14-.5h1l.14.5h.91Zm-.79,1.86.31-1.08.31,1.08Z" transform="translate(-4.69 -2.32)"/><path class="cls-11" d="M816.26,27.49a1.25,1.25,0,0,0-1-.4,1.24,1.24,0,0,0-1,.41,1.66,1.66,0,0,0-.36,1.14,1.91,1.91,0,0,0,.18.88,1.23,1.23,0,0,0,.47.51,1.53,1.53,0,0,0,.74.16A1.36,1.36,0,0,0,816,30a1.17,1.17,0,0,0,.45-.53,1.94,1.94,0,0,0,.16-.86A1.65,1.65,0,0,0,816.26,27.49Zm-.6,1.81a.47.47,0,0,1-.4.2.5.5,0,0,1-.41-.2,1.09,1.09,0,0,1-.15-.65,1.11,1.11,0,0,1,.15-.66.48.48,0,0,1,.4-.2.5.5,0,0,1,.41.2,1.08,1.08,0,0,1,.15.62A1.17,1.17,0,0,1,815.66,29.3Zm-3.24.1V27.14h-.82v3h2.09V29.4Zm-2.46,0V27.14h-.81v3h2.08V29.4Zm-2.21-2.26v3h.81v-3Zm-1.39,0V29a.93.93,0,0,1-.06.39.22.22,0,0,1-.2.12.26.26,0,0,1-.14,0,.28.28,0,0,1-.09-.16,1,1,0,0,1,0-.29l-.78.12a1.38,1.38,0,0,0,.14.58.79.79,0,0,0,.34.36,1.28,1.28,0,0,0,.62.12,1,1,0,0,0,.61-.18.9.9,0,0,0,.32-.46,2.6,2.6,0,0,0,.09-.78V27.14Zm-2.45,0V29a.57.57,0,0,1-.12.39.48.48,0,0,1-.66,0A.59.59,0,0,1,803,29V27.14h-.81v1.79a2.05,2.05,0,0,0,.08.51,1,1,0,0,0,.17.34,1,1,0,0,0,.28.26,1,1,0,0,0,.38.12,2.08,2.08,0,0,0,.42,0,1.42,1.42,0,0,0,.57-.1.87.87,0,0,0,.32-.24,1.08,1.08,0,0,0,.23-.42,1.64,1.64,0,0,0,.08-.5V27.14Zm-2.3,2.13-.11-.19a1.34,1.34,0,0,0-.13-.15.64.64,0,0,0-.22-.11.87.87,0,0,0,.29-.12.83.83,0,0,0,.35-.73.9.9,0,0,0-.12-.48.6.6,0,0,0-.33-.28,1.69,1.69,0,0,0-.57-.07h-1.36v3h.82V28.92h.07a.35.35,0,0,1,.2.07,1.13,1.13,0,0,1,.15.23l.43.92H802Zm-.69-1.05a.26.26,0,0,1-.13.1l-.22,0h-.34v-.61h.36a.44.44,0,0,1,.3.07.34.34,0,0,1,0,.4Zm-4.36-1.08v.74h.83v2.26h.81V27.88H799v-.74Z" transform="translate(-4.69 -2.32)"/><path class="cls-21" d="M798.85,24.41v-.94c-3.34-.69-2.74,4,0,2.91v-1c-2,1.25-1.89-2,0-1Z" transform="translate(-4.69 -2.32)"/><path class="cls-3" d="M72,13.63v1.58h-2.6V23.4h-2V15.21H64.81V13.63Z" transform="translate(-4.69 -2.32)"/><path class="cls-3" d="M76.36,15.88a2.76,2.76,0,0,1,1.39-.35v2.06h-.52a2,2,0,0,0-1.39.43,2,2,0,0,0-.47,1.52V23.4h-2V15.64h2v1.21A2.79,2.79,0,0,1,76.36,15.88Z" transform="translate(-4.69 -2.32)"/><path class="cls-3" d="M79,17.41a3.35,3.35,0,0,1,3.07-1.89,3.19,3.19,0,0,1,1.52.35,3.15,3.15,0,0,1,1,.88V15.64h2V23.4h-2V22.27a3,3,0,0,1-1,.9,3.14,3.14,0,0,1-1.53.36A3.3,3.3,0,0,1,80.3,23,3.51,3.51,0,0,1,79,21.6a4.59,4.59,0,0,1-.47-2.11A4.52,4.52,0,0,1,79,17.41Zm5.36.89a2,2,0,0,0-1.78-1.06,2,2,0,0,0-1,.27,1.92,1.92,0,0,0-.75.77,2.46,2.46,0,0,0-.29,1.21,2.54,2.54,0,0,0,.29,1.23,2,2,0,0,0,.76.8,1.87,1.87,0,0,0,1,.28,2,2,0,0,0,1-.27,2,2,0,0,0,.76-.78,2.82,2.82,0,0,0,0-2.45Z" transform="translate(-4.69 -2.32)"/><path class="cls-3" d="M95.1,16.41A3.38,3.38,0,0,1,96,18.85V23.4H94V19.12a2,2,0,0,0-.46-1.42,1.61,1.61,0,0,0-1.26-.5,1.64,1.64,0,0,0-1.28.5,2,2,0,0,0-.47,1.42V23.4h-2V15.64h2v1a2.61,2.61,0,0,1,1-.79,3.1,3.1,0,0,1,1.34-.29A3,3,0,0,1,95.1,16.41Z" transform="translate(-4.69 -2.32)"/><path class="cls-3" d="M99.07,23.18a3.13,3.13,0,0,1-1.2-.93,2.38,2.38,0,0,1-.48-1.3h2a1,1,0,0,0,.44.74,1.49,1.49,0,0,0,1,.3,1.47,1.47,0,0,0,.87-.23.68.68,0,0,0,.32-.57.61.61,0,0,0-.39-.57,8,8,0,0,0-1.22-.41,10.37,10.37,0,0,1-1.43-.44,2.42,2.42,0,0,1-1-.68,1.87,1.87,0,0,1-.4-1.25,2,2,0,0,1,.37-1.17A2.46,2.46,0,0,1,99,15.83a3.89,3.89,0,0,1,1.63-.31,3.34,3.34,0,0,1,2.21.69,2.55,2.55,0,0,1,.91,1.87h-1.87a1,1,0,0,0-.39-.73,1.39,1.39,0,0,0-.92-.28,1.48,1.48,0,0,0-.82.2.61.61,0,0,0-.28.54.64.64,0,0,0,.39.6,6.5,6.5,0,0,0,1.22.41,9.87,9.87,0,0,1,1.38.44,2.48,2.48,0,0,1,1,.69,1.94,1.94,0,0,1,.41,1.24,2,2,0,0,1-.37,1.2,2.5,2.5,0,0,1-1.06.84,4.43,4.43,0,0,1-3.33-.05Z" transform="translate(-4.69 -2.32)"/><path class="cls-3" d="M109,17.25h-1.36V23.4h-2V17.25h-.88V15.64h.88v-.39a2.58,2.58,0,0,1,.81-2.1,3.61,3.61,0,0,1,2.45-.63v1.65a1.5,1.5,0,0,0-1,.24,1.18,1.18,0,0,0-.28.91v.32H109Z" transform="translate(-4.69 -2.32)"/><path class="cls-3" d="M117.43,20.11h-5.67a1.93,1.93,0,0,0,.58,1.32,1.85,1.85,0,0,0,1.28.47,1.59,1.59,0,0,0,1.55-.94h2.12A3.65,3.65,0,0,1,116,22.81a3.79,3.79,0,0,1-2.34.72,4,4,0,0,1-2-.5,3.56,3.56,0,0,1-1.39-1.41,4.29,4.29,0,0,1-.49-2.1,4.35,4.35,0,0,1,.49-2.11,3.31,3.31,0,0,1,1.37-1.4,4.07,4.07,0,0,1,2-.49,4.14,4.14,0,0,1,2,.47A3.36,3.36,0,0,1,117,17.35a4.08,4.08,0,0,1,.48,2A5.7,5.7,0,0,1,117.43,20.11Zm-2-1.32a1.58,1.58,0,0,0-.54-1.21,2,2,0,0,0-1.31-.45,1.79,1.79,0,0,0-1.22.44,1.91,1.91,0,0,0-.61,1.22Z" transform="translate(-4.69 -2.32)"/><path class="cls-3" d="M121.86,15.88a2.76,2.76,0,0,1,1.39-.35v2.06h-.52a2,2,0,0,0-1.39.43,2,2,0,0,0-.47,1.52V23.4h-2V15.64h2v1.21A2.79,2.79,0,0,1,121.86,15.88Z" transform="translate(-4.69 -2.32)"/><path class="cls-3" d="M131.72,20.11h-5.67a1.94,1.94,0,0,0,.59,1.32,1.83,1.83,0,0,0,1.27.47,1.6,1.6,0,0,0,1.56-.94h2.11a3.59,3.59,0,0,1-1.29,1.85,3.75,3.75,0,0,1-2.34.72,4.1,4.1,0,0,1-2-.5,3.47,3.47,0,0,1-1.38-1.41,4.29,4.29,0,0,1-.5-2.1,4.35,4.35,0,0,1,.49-2.11,3.36,3.36,0,0,1,1.37-1.4,4.09,4.09,0,0,1,2-.49,4.14,4.14,0,0,1,2,.47,3.3,3.3,0,0,1,1.36,1.36,4.08,4.08,0,0,1,.48,2A4.4,4.4,0,0,1,131.72,20.11Zm-2-1.32a1.59,1.59,0,0,0-.55-1.21,2,2,0,0,0-1.3-.45,1.8,1.8,0,0,0-1.23.44,2,2,0,0,0-.61,1.22Z" transform="translate(-4.69 -2.32)"/><path class="cls-3" d="M139.74,16.41a3.34,3.34,0,0,1,.85,2.44V23.4h-2V19.12a2,2,0,0,0-.46-1.42,1.61,1.61,0,0,0-1.26-.5,1.64,1.64,0,0,0-1.28.5,2,2,0,0,0-.47,1.42V23.4h-2V15.64h2v1a2.69,2.69,0,0,1,1-.79,3.16,3.16,0,0,1,1.34-.29A3,3,0,0,1,139.74,16.41Z" transform="translate(-4.69 -2.32)"/><path class="cls-3" d="M142.44,17.42A3.46,3.46,0,0,1,143.8,16a4.27,4.27,0,0,1,4.38.22,3.46,3.46,0,0,1,1.26,2h-2.11a1.53,1.53,0,0,0-.57-.79,1.79,1.79,0,0,0-2.32.32,2.76,2.76,0,0,0-.49,1.73,2.73,2.73,0,0,0,.49,1.72,1.64,1.64,0,0,0,1.33.61,1.49,1.49,0,0,0,1.56-1.07h2.11a3.55,3.55,0,0,1-1.27,2,3.74,3.74,0,0,1-2.38.75,4,4,0,0,1-2-.5,3.52,3.52,0,0,1-1.36-1.4,4.77,4.77,0,0,1,0-4.21Z" transform="translate(-4.69 -2.32)"/><path class="cls-3" d="M151,14.39a1.09,1.09,0,0,1-.35-.82,1.1,1.1,0,0,1,.35-.82,1.18,1.18,0,0,1,.86-.33,1.2,1.2,0,0,1,.86.33,1.09,1.09,0,0,1,.34.82,1.08,1.08,0,0,1-.34.82,1.2,1.2,0,0,1-.86.33A1.18,1.18,0,0,1,151,14.39Zm1.82,1.25V23.4h-2V15.64Z" transform="translate(-4.69 -2.32)"/><path class="cls-3" d="M154.74,17.41a3.38,3.38,0,0,1,3.07-1.89,3.19,3.19,0,0,1,1.52.35,3,3,0,0,1,1,.88V15.64h2V23.4h-2V22.27a3,3,0,0,1-1,.9,3.14,3.14,0,0,1-1.53.36A3.24,3.24,0,0,1,156,23a3.47,3.47,0,0,1-1.28-1.42,4.59,4.59,0,0,1-.47-2.11A4.52,4.52,0,0,1,154.74,17.41Zm5.36.89a2,2,0,0,0-1.78-1.06,2,2,0,0,0-1,.27,1.92,1.92,0,0,0-.75.77,2.46,2.46,0,0,0-.29,1.21,2.54,2.54,0,0,0,.29,1.23,2,2,0,0,0,.76.8,1.87,1.87,0,0,0,1,.28,2,2,0,0,0,1-.27,2,2,0,0,0,.76-.78,2.82,2.82,0,0,0,0-2.45Z" transform="translate(-4.69 -2.32)"/><path class="cls-3" d="M165.53,23.18a3.06,3.06,0,0,1-1.2-.93,2.38,2.38,0,0,1-.48-1.3h2a1.09,1.09,0,0,0,.44.74,1.53,1.53,0,0,0,1,.3,1.49,1.49,0,0,0,.88-.23.67.67,0,0,0,.31-.57.62.62,0,0,0-.38-.57,8.21,8.21,0,0,0-1.23-.41,10.18,10.18,0,0,1-1.42-.44,2.35,2.35,0,0,1-.95-.68,1.82,1.82,0,0,1-.4-1.25,2,2,0,0,1,.37-1.17,2.4,2.4,0,0,1,1.07-.84,3.89,3.89,0,0,1,1.63-.31,3.34,3.34,0,0,1,2.21.69,2.59,2.59,0,0,1,.91,1.87h-1.88a1,1,0,0,0-.38-.73,1.4,1.4,0,0,0-.92-.28,1.46,1.46,0,0,0-.82.2.62.62,0,0,0-.29.54.64.64,0,0,0,.4.6,6.35,6.35,0,0,0,1.21.41,10.06,10.06,0,0,1,1.39.44,2.55,2.55,0,0,1,.95.69,1.94,1.94,0,0,1,.41,1.24,2.08,2.08,0,0,1-.37,1.2,2.47,2.47,0,0,1-1.07.84,4.41,4.41,0,0,1-3.32-.05Z" transform="translate(-4.69 -2.32)"/><path class="cls-3" d="M177.19,13.63V23.4h-2V13.63Z" transform="translate(-4.69 -2.32)"/><path class="cls-3" d="M185.66,16.41a3.34,3.34,0,0,1,.85,2.44V23.4h-2V19.12a2,2,0,0,0-.46-1.42,1.61,1.61,0,0,0-1.26-.5,1.64,1.64,0,0,0-1.28.5,2,2,0,0,0-.47,1.42V23.4h-2V15.64h2v1a2.69,2.69,0,0,1,1-.79,3.16,3.16,0,0,1,1.34-.29A3,3,0,0,1,185.66,16.41Z" transform="translate(-4.69 -2.32)"/><path class="cls-3" d="M200.31,16.41a3.31,3.31,0,0,1,.88,2.44V23.4h-2V19.12a2,2,0,0,0-.47-1.4,1.64,1.64,0,0,0-1.26-.48,1.67,1.67,0,0,0-1.26.48,1.91,1.91,0,0,0-.47,1.4V23.4h-2V19.12a2,2,0,0,0-.46-1.4,1.92,1.92,0,0,0-2.54,0,1.91,1.91,0,0,0-.47,1.4V23.4h-2V15.64h2v.94a2.66,2.66,0,0,1,1-.77,3.14,3.14,0,0,1,1.31-.28,3.32,3.32,0,0,1,1.62.39,2.62,2.62,0,0,1,1.11,1.1,2.79,2.79,0,0,1,1.1-1.08,3.13,3.13,0,0,1,1.56-.41A3.08,3.08,0,0,1,200.31,16.41Z" transform="translate(-4.69 -2.32)"/><path class="cls-3" d="M210.2,20.11h-5.67a1.94,1.94,0,0,0,.59,1.32,1.85,1.85,0,0,0,1.27.47A1.6,1.6,0,0,0,208,21h2.11a3.53,3.53,0,0,1-1.29,1.85,3.74,3.74,0,0,1-2.33.72,4,4,0,0,1-2-.5A3.43,3.43,0,0,1,203,21.62a4.29,4.29,0,0,1-.5-2.1,4.47,4.47,0,0,1,.49-2.11,3.39,3.39,0,0,1,1.38-1.4,4,4,0,0,1,2-.49,4.19,4.19,0,0,1,2,.47,3.34,3.34,0,0,1,1.35,1.36,4,4,0,0,1,.49,2A4.34,4.34,0,0,1,210.2,20.11Zm-2-1.32a1.56,1.56,0,0,0-.55-1.21,1.94,1.94,0,0,0-1.3-.45,1.77,1.77,0,0,0-1.22.44,1.86,1.86,0,0,0-.61,1.22Z" transform="translate(-4.69 -2.32)"/><path class="cls-3" d="M211.65,17.41a3.35,3.35,0,0,1,1.28-1.4,3.39,3.39,0,0,1,1.81-.49,3.3,3.3,0,0,1,1.44.33,2.88,2.88,0,0,1,1.09.87V13h2V23.4h-2V22.25a2.63,2.63,0,0,1-1,.93,3.26,3.26,0,0,1-1.53.35,3.3,3.3,0,0,1-1.79-.51,3.47,3.47,0,0,1-1.28-1.42,4.59,4.59,0,0,1-.47-2.11A4.52,4.52,0,0,1,211.65,17.41Zm5.36.89a2,2,0,0,0-1.78-1.06,2,2,0,0,0-1,.27,1.92,1.92,0,0,0-.75.77,2.46,2.46,0,0,0-.29,1.21,2.54,2.54,0,0,0,.29,1.23,2,2,0,0,0,.76.8,1.87,1.87,0,0,0,1,.28,2,2,0,0,0,1-.27,2,2,0,0,0,.76-.78,2.82,2.82,0,0,0,0-2.45Z" transform="translate(-4.69 -2.32)"/><path class="cls-3" d="M221.31,14.39a1.08,1.08,0,0,1-.34-.82,1.09,1.09,0,0,1,.34-.82,1.2,1.2,0,0,1,.86-.33,1.18,1.18,0,0,1,.86.33,1.1,1.1,0,0,1,.35.82,1.09,1.09,0,0,1-.35.82,1.18,1.18,0,0,1-.86.33A1.2,1.2,0,0,1,221.31,14.39Zm1.83,1.25V23.4h-2V15.64Z" transform="translate(-4.69 -2.32)"/><path class="cls-3" d="M225,17.41a3.33,3.33,0,0,1,1.27-1.4,3.38,3.38,0,0,1,1.8-.49,3.22,3.22,0,0,1,1.52.35,3.11,3.11,0,0,1,1,.88V15.64h2V23.4h-2V22.27a3,3,0,0,1-1,.9,3.21,3.21,0,0,1-1.54.36,3.27,3.27,0,0,1-1.78-.51A3.44,3.44,0,0,1,225,21.6a4.46,4.46,0,0,1-.47-2.11A4.4,4.4,0,0,1,225,17.41Zm5.35.89a2.06,2.06,0,0,0-.76-.79,2,2,0,0,0-2,0,2.06,2.06,0,0,0-.75.77,2.46,2.46,0,0,0-.28,1.21,2.54,2.54,0,0,0,.28,1.23,2.1,2.1,0,0,0,.76.8,1.89,1.89,0,0,0,1,.28,2,2,0,0,0,1-.27,2,2,0,0,0,.76-.78,2.82,2.82,0,0,0,0-2.45Z" transform="translate(-4.69 -2.32)"/><path class="cls-3" d="M236.84,17.25V21a.74.74,0,0,0,.19.56.92.92,0,0,0,.64.18h.91V23.4h-1.23A2.16,2.16,0,0,1,234.87,21V17.25H234V15.64h.92V13.73h2v1.91h1.74v1.61Z" transform="translate(-4.69 -2.32)"/><path class="cls-3" d="M240,17.41A3.35,3.35,0,0,1,243,15.52a3.19,3.19,0,0,1,1.52.35,3.11,3.11,0,0,1,1,.88V15.64h2V23.4h-2V22.27a3,3,0,0,1-1,.9,3.14,3.14,0,0,1-1.53.36,3.28,3.28,0,0,1-1.79-.51A3.51,3.51,0,0,1,240,21.6a4.59,4.59,0,0,1-.47-2.11A4.52,4.52,0,0,1,240,17.41Zm5.35.89a2,2,0,0,0-1.77-1.06,2,2,0,0,0-1,.27,1.92,1.92,0,0,0-.75.77,2.46,2.46,0,0,0-.29,1.21,2.54,2.54,0,0,0,.29,1.23,2,2,0,0,0,.75.8,1.93,1.93,0,0,0,1,.28,2,2,0,0,0,1-.27,2,2,0,0,0,.75-.78,2.82,2.82,0,0,0,0-2.45Z" transform="translate(-4.69 -2.32)"/><path class="cls-3" d="M250.75,23.18a3,3,0,0,1-1.2-.93,2.23,2.23,0,0,1-.48-1.3h2a1.05,1.05,0,0,0,.44.74,1.53,1.53,0,0,0,1,.3,1.47,1.47,0,0,0,.87-.23.68.68,0,0,0,.32-.57.61.61,0,0,0-.39-.57,7.62,7.62,0,0,0-1.22-.41,10.18,10.18,0,0,1-1.42-.44,2.29,2.29,0,0,1-.95-.68,1.82,1.82,0,0,1-.4-1.25,2,2,0,0,1,.37-1.17,2.43,2.43,0,0,1,1.06-.84,3.92,3.92,0,0,1,1.63-.31,3.37,3.37,0,0,1,2.22.69,2.59,2.59,0,0,1,.91,1.87h-1.88a1,1,0,0,0-.39-.73,1.36,1.36,0,0,0-.91-.28,1.44,1.44,0,0,0-.82.2.62.62,0,0,0-.29.54.64.64,0,0,0,.39.6,6.5,6.5,0,0,0,1.22.41,10.52,10.52,0,0,1,1.39.44,2.44,2.44,0,0,1,.94.69,1.89,1.89,0,0,1,.42,1.24,2,2,0,0,1-.38,1.2,2.44,2.44,0,0,1-1.06.84,4.41,4.41,0,0,1-3.32-.05Z" transform="translate(-4.69 -2.32)"/><path class="cls-3" d="M112.31,40.76a10.71,10.71,0,0,1-.65-3.75,10.88,10.88,0,0,1,.68-3.86,7.68,7.68,0,0,1,1.94-3h1.14v.11a8,8,0,0,0-2,3,10.26,10.26,0,0,0-.68,3.68,9.88,9.88,0,0,0,.64,3.55,8.55,8.55,0,0,0,1.88,3v.11H114.1A7.51,7.51,0,0,1,112.31,40.76Z" transform="translate(-4.69 -2.32)"/><path class="cls-3" d="M122.09,33.67h-4.21v2.74a1.92,1.92,0,0,1,.82-.63,2.81,2.81,0,0,1,1.16-.25,2.87,2.87,0,0,1,1.62.42,2.28,2.28,0,0,1,.89,1.06,3.62,3.62,0,0,1,.27,1.39,3.52,3.52,0,0,1-.32,1.55,2.57,2.57,0,0,1-1,1.08,3.2,3.2,0,0,1-1.65.39,3.09,3.09,0,0,1-2-.64,2.72,2.72,0,0,1-1-1.73h1.07a1.79,1.79,0,0,0,.66,1.07,2.08,2.08,0,0,0,1.27.38,1.77,1.77,0,0,0,1.43-.57,2.26,2.26,0,0,0,.48-1.51,2,2,0,0,0-.48-1.44,1.85,1.85,0,0,0-1.42-.51,2.05,2.05,0,0,0-1.11.3,1.89,1.89,0,0,0-.69.84h-1v-4.9h5.22Z" transform="translate(-4.69 -2.32)"/><path class="cls-3" d="M136.76,35a2.24,2.24,0,0,1,.94,1,3.08,3.08,0,0,1,.35,1.54V41.4H137V37.68a2.16,2.16,0,0,0-.48-1.51,1.76,1.76,0,0,0-1.32-.52,1.71,1.71,0,0,0-1.35.55,2.22,2.22,0,0,0-.51,1.58V41.4h-1.08V37.68a2.16,2.16,0,0,0-.48-1.51,1.76,1.76,0,0,0-1.32-.52,1.71,1.71,0,0,0-1.35.55,2.22,2.22,0,0,0-.51,1.58V41.4h-1.09V34.82h1.09v1a2.28,2.28,0,0,1,.87-.79,2.72,2.72,0,0,1,1.21-.27,2.81,2.81,0,0,1,1.46.37,2.21,2.21,0,0,1,.95,1.09,2.14,2.14,0,0,1,.91-1.08,2.68,2.68,0,0,1,1.42-.38A2.91,2.91,0,0,1,136.76,35Z" transform="translate(-4.69 -2.32)"/><path class="cls-3" d="M139.88,33.54a.69.69,0,0,1-.22-.53.71.71,0,0,1,.22-.53.72.72,0,0,1,.52-.21.69.69,0,0,1,.51.21.74.74,0,0,1,.21.53.72.72,0,0,1-.21.53.7.7,0,0,1-.51.22A.73.73,0,0,1,139.88,33.54Zm1.05,1.28V41.4h-1.09V34.82Z" transform="translate(-4.69 -2.32)"/><path class="cls-3" d="M147.94,35.43a2.78,2.78,0,0,1,.74,2.09V41.4H147.6V37.68a2.11,2.11,0,0,0-.49-1.51,1.78,1.78,0,0,0-1.34-.52,1.81,1.81,0,0,0-1.38.54,2.21,2.21,0,0,0-.51,1.57V41.4h-1.09V34.82h1.09v.94a2.18,2.18,0,0,1,.89-.78,2.77,2.77,0,0,1,1.23-.27A2.67,2.67,0,0,1,147.94,35.43Z" transform="translate(-4.69 -2.32)"/><path class="cls-3" d="M153.68,36.32a2.9,2.9,0,0,1,1.12-1.18,3,3,0,0,1,1.59-.42,2.93,2.93,0,0,1,1.5.37,2.57,2.57,0,0,1,1,.93v-1.2h1.1V41.4h-1.1V40.18a2.6,2.6,0,0,1-1,1,2.92,2.92,0,0,1-1.49.38,2.94,2.94,0,0,1-2.7-1.65,3.67,3.67,0,0,1-.41-1.77A3.62,3.62,0,0,1,153.68,36.32Zm4.86.48a2.12,2.12,0,0,0-.81-.84,2.34,2.34,0,0,0-2.24,0,2.05,2.05,0,0,0-.81.84,2.68,2.68,0,0,0-.3,1.3,2.72,2.72,0,0,0,.3,1.31,2.08,2.08,0,0,0,.81.85,2.12,2.12,0,0,0,1.11.3,2.2,2.2,0,0,0,1.13-.3,2.08,2.08,0,0,0,.81-.85,3,3,0,0,0,0-2.6Z" transform="translate(-4.69 -2.32)"/><path class="cls-3" d="M167.07,38.51a10.05,10.05,0,0,0,1.46-1.64,3,3,0,0,0,.59-1.69,1.84,1.84,0,0,0-.38-1.22,1.48,1.48,0,0,0-1.22-.46,1.59,1.59,0,0,0-1.26.51,2.18,2.18,0,0,0-.49,1.37h-1.05a2.89,2.89,0,0,1,.81-2.08,3.11,3.11,0,0,1,3.94,0,2.46,2.46,0,0,1,.73,1.89,3.6,3.6,0,0,1-.59,1.93,8.89,8.89,0,0,1-1.35,1.66c-.51.48-1.15,1-1.94,1.66h4.13v.91h-5.77v-.78C165.7,39.71,166.49,39,167.07,38.51Z" transform="translate(-4.69 -2.32)"/><path class="cls-3" d="M177.24,33.67H173v2.74a2,2,0,0,1,.82-.63,3.1,3.1,0,0,1,2.78.17,2.3,2.3,0,0,1,.9,1.06,3.62,3.62,0,0,1,.27,1.39,3.53,3.53,0,0,1-.33,1.55,2.45,2.45,0,0,1-1,1.08,3.2,3.2,0,0,1-1.65.39,3.09,3.09,0,0,1-2-.64,2.77,2.77,0,0,1-.95-1.73h1.07a1.89,1.89,0,0,0,.66,1.07,2.08,2.08,0,0,0,1.27.38,1.76,1.76,0,0,0,1.43-.57,2.26,2.26,0,0,0,.48-1.51,2,2,0,0,0-.48-1.44,1.84,1.84,0,0,0-1.41-.51,2,2,0,0,0-1.11.3,1.77,1.77,0,0,0-.69.84h-1v-4.9h5.22Z" transform="translate(-4.69 -2.32)"/><path class="cls-3" d="M191.91,35a2.31,2.31,0,0,1,1,1,3.19,3.19,0,0,1,.34,1.54V41.4h-1.08V37.68a2.16,2.16,0,0,0-.48-1.51,1.75,1.75,0,0,0-1.32-.52,1.73,1.73,0,0,0-1.35.55,2.22,2.22,0,0,0-.51,1.58V41.4h-1.08V37.68a2.16,2.16,0,0,0-.48-1.51,1.75,1.75,0,0,0-1.32-.52,1.73,1.73,0,0,0-1.35.55,2.22,2.22,0,0,0-.51,1.58V41.4h-1.09V34.82h1.09v1a2.28,2.28,0,0,1,.87-.79,2.72,2.72,0,0,1,1.21-.27,2.81,2.81,0,0,1,1.46.37,2.21,2.21,0,0,1,1,1.09,2.19,2.19,0,0,1,.91-1.08,2.68,2.68,0,0,1,1.42-.38A2.91,2.91,0,0,1,191.91,35Z" transform="translate(-4.69 -2.32)"/><path class="cls-3" d="M195,33.54a.69.69,0,0,1-.22-.53.71.71,0,0,1,.22-.53.72.72,0,0,1,.53-.21.69.69,0,0,1,.51.21.74.74,0,0,1,.21.53.72.72,0,0,1-.21.53.7.7,0,0,1-.51.22A.73.73,0,0,1,195,33.54Zm1.05,1.28V41.4H195V34.82Z" transform="translate(-4.69 -2.32)"/><path class="cls-3" d="M203.09,35.43a2.78,2.78,0,0,1,.75,2.09V41.4h-1.08V37.68a2.12,2.12,0,0,0-.5-1.51,1.76,1.76,0,0,0-1.34-.52,1.79,1.79,0,0,0-1.37.54,2.21,2.21,0,0,0-.51,1.57V41.4h-1.1V34.82H199v.94a2.15,2.15,0,0,1,.88-.78,2.77,2.77,0,0,1,1.23-.27A2.66,2.66,0,0,1,203.09,35.43Z" transform="translate(-4.69 -2.32)"/><path class="cls-3" d="M205.28,43.63v-.11a8.38,8.38,0,0,0,1.87-3A9.89,9.89,0,0,0,207.8,37a10.26,10.26,0,0,0-.68-3.68,8.07,8.07,0,0,0-2-3v-.11h1.14a7.66,7.66,0,0,1,1.93,3,11.3,11.3,0,0,1,0,7.61,7.76,7.76,0,0,1-1.79,2.87Z" transform="translate(-4.69 -2.32)"/><path class="cls-3" d="M486.4,13.63v1.58h-2.61V23.4h-2V15.21h-2.6V13.63Z" transform="translate(-4.69 -2.32)"/><path class="cls-3" d="M490.77,15.88a2.8,2.8,0,0,1,1.4-.35v2.06h-.52a2.06,2.06,0,0,0-1.4.43,2,2,0,0,0-.46,1.52V23.4h-2V15.64h2v1.21A2.84,2.84,0,0,1,490.77,15.88Z" transform="translate(-4.69 -2.32)"/><path class="cls-3" d="M493.45,17.41a3.33,3.33,0,0,1,1.27-1.4,3.38,3.38,0,0,1,1.8-.49,3.22,3.22,0,0,1,1.52.35,3.11,3.11,0,0,1,1,.88V15.64h2V23.4h-2V22.27a3,3,0,0,1-1,.9,3.17,3.17,0,0,1-1.53.36,3.28,3.28,0,0,1-1.79-.51,3.44,3.44,0,0,1-1.27-1.42,4.46,4.46,0,0,1-.47-2.11A4.4,4.4,0,0,1,493.45,17.41Zm5.35.89A2,2,0,0,0,497,17.24a2,2,0,0,0-1.75,1,2.46,2.46,0,0,0-.29,1.21,2.54,2.54,0,0,0,.29,1.23,2,2,0,0,0,.75.8,1.92,1.92,0,0,0,1,.28,2,2,0,0,0,1-.27,1.9,1.9,0,0,0,.76-.78,2.82,2.82,0,0,0,0-2.45Z" transform="translate(-4.69 -2.32)"/><path class="cls-3" d="M509.51,16.41a3.35,3.35,0,0,1,.86,2.44V23.4h-2V19.12a2,2,0,0,0-.47-1.42,1.61,1.61,0,0,0-1.26-.5,1.64,1.64,0,0,0-1.28.5,2,2,0,0,0-.47,1.42V23.4h-2V15.64h2v1a2.69,2.69,0,0,1,1-.79,3.16,3.16,0,0,1,1.34-.29A3,3,0,0,1,509.51,16.41Z" transform="translate(-4.69 -2.32)"/><path class="cls-3" d="M513.49,23.18a3,3,0,0,1-1.2-.93,2.38,2.38,0,0,1-.48-1.3h2a1.05,1.05,0,0,0,.44.74,1.53,1.53,0,0,0,1,.3,1.51,1.51,0,0,0,.88-.23.67.67,0,0,0,.31-.57.62.62,0,0,0-.38-.57,8.21,8.21,0,0,0-1.23-.41,10.18,10.18,0,0,1-1.42-.44,2.29,2.29,0,0,1-1-.68,1.82,1.82,0,0,1-.4-1.25,2,2,0,0,1,.37-1.17,2.43,2.43,0,0,1,1.06-.84,4,4,0,0,1,1.63-.31,3.35,3.35,0,0,1,2.22.69,2.59,2.59,0,0,1,.91,1.87H516.3a1,1,0,0,0-.38-.73,1.4,1.4,0,0,0-.92-.28,1.44,1.44,0,0,0-.82.2.62.62,0,0,0-.29.54.64.64,0,0,0,.4.6,6.35,6.35,0,0,0,1.21.41,10.06,10.06,0,0,1,1.39.44,2.44,2.44,0,0,1,.94.69,1.89,1.89,0,0,1,.42,1.24,2.08,2.08,0,0,1-.37,1.2,2.53,2.53,0,0,1-1.07.84,4.41,4.41,0,0,1-3.32-.05Z" transform="translate(-4.69 -2.32)"/><path class="cls-3" d="M523.41,17.25h-1.35V23.4h-2V17.25h-.88V15.64h.88v-.39a2.58,2.58,0,0,1,.81-2.1,3.61,3.61,0,0,1,2.45-.63v1.65a1.46,1.46,0,0,0-1,.24,1.18,1.18,0,0,0-.28.91v.32h1.35Z" transform="translate(-4.69 -2.32)"/><path class="cls-3" d="M531.84,20.11h-5.67a1.94,1.94,0,0,0,.59,1.32,1.83,1.83,0,0,0,1.27.47,1.6,1.6,0,0,0,1.56-.94h2.11a3.53,3.53,0,0,1-1.29,1.85,3.74,3.74,0,0,1-2.33.72,4,4,0,0,1-2-.5,3.43,3.43,0,0,1-1.39-1.41,4.29,4.29,0,0,1-.5-2.1,4.47,4.47,0,0,1,.49-2.11A3.42,3.42,0,0,1,526,16a4.11,4.11,0,0,1,2-.49,4.19,4.19,0,0,1,2,.47,3.34,3.34,0,0,1,1.35,1.36,4,4,0,0,1,.49,2A4.34,4.34,0,0,1,531.84,20.11Zm-2-1.32a1.56,1.56,0,0,0-.55-1.21,1.94,1.94,0,0,0-1.3-.45,1.82,1.82,0,0,0-1.23.44,1.9,1.9,0,0,0-.6,1.22Z" transform="translate(-4.69 -2.32)"/><path class="cls-3" d="M536.27,15.88a2.8,2.8,0,0,1,1.4-.35v2.06h-.52a2.06,2.06,0,0,0-1.4.43,2,2,0,0,0-.46,1.52V23.4h-2V15.64h2v1.21A2.84,2.84,0,0,1,536.27,15.88Z" transform="translate(-4.69 -2.32)"/><path class="cls-3" d="M546.13,20.11h-5.67a2,2,0,0,0,.59,1.32,1.85,1.85,0,0,0,1.28.47,1.6,1.6,0,0,0,1.55-.94H546a3.65,3.65,0,0,1-1.29,1.85,3.79,3.79,0,0,1-2.34.72,4,4,0,0,1-2-.5A3.49,3.49,0,0,1,539,21.62a4.29,4.29,0,0,1-.49-2.1,4.35,4.35,0,0,1,.49-2.11,3.31,3.31,0,0,1,1.37-1.4,4.07,4.07,0,0,1,2-.49,4.14,4.14,0,0,1,2,.47,3.36,3.36,0,0,1,1.36,1.36,4.08,4.08,0,0,1,.48,2A4.34,4.34,0,0,1,546.13,20.11Zm-2-1.32a1.58,1.58,0,0,0-.54-1.21,2,2,0,0,0-1.31-.45,1.79,1.79,0,0,0-1.22.44,1.91,1.91,0,0,0-.61,1.22Z" transform="translate(-4.69 -2.32)"/><path class="cls-3" d="M554.16,16.41a3.34,3.34,0,0,1,.85,2.44V23.4h-2V19.12a2,2,0,0,0-.46-1.42,1.61,1.61,0,0,0-1.26-.5,1.64,1.64,0,0,0-1.28.5,2,2,0,0,0-.47,1.42V23.4h-2V15.64h2v1a2.61,2.61,0,0,1,1-.79,3.13,3.13,0,0,1,1.34-.29A3,3,0,0,1,554.16,16.41Z" transform="translate(-4.69 -2.32)"/><path class="cls-3" d="M556.86,17.42a3.46,3.46,0,0,1,1.36-1.4,4.26,4.26,0,0,1,4.37.22,3.52,3.52,0,0,1,1.27,2h-2.12a1.57,1.57,0,0,0-.56-.79,1.68,1.68,0,0,0-1-.29,1.64,1.64,0,0,0-1.33.61,2.7,2.7,0,0,0-.49,1.73,2.67,2.67,0,0,0,.49,1.72,1.64,1.64,0,0,0,1.33.61,1.49,1.49,0,0,0,1.55-1.07h2.12a3.57,3.57,0,0,1-1.28,2,3.69,3.69,0,0,1-2.37.75,3.92,3.92,0,0,1-2-.5,3.52,3.52,0,0,1-1.36-1.4,4.3,4.3,0,0,1-.49-2.11A4.29,4.29,0,0,1,556.86,17.42Z" transform="translate(-4.69 -2.32)"/><path class="cls-3" d="M565.43,14.39a1.12,1.12,0,0,1-.34-.82,1.13,1.13,0,0,1,.34-.82,1.3,1.3,0,0,1,1.73,0,1.13,1.13,0,0,1,.34.82,1.12,1.12,0,0,1-.34.82,1.3,1.3,0,0,1-1.73,0Zm1.83,1.25V23.4h-2V15.64Z" transform="translate(-4.69 -2.32)"/><path class="cls-3" d="M569.16,17.41a3.33,3.33,0,0,1,1.27-1.4,3.38,3.38,0,0,1,1.8-.49,3.19,3.19,0,0,1,1.52.35,3.11,3.11,0,0,1,1,.88V15.64h2V23.4h-2V22.27a3,3,0,0,1-1,.9,3.17,3.17,0,0,1-1.53.36,3.28,3.28,0,0,1-1.79-.51,3.44,3.44,0,0,1-1.27-1.42,4.46,4.46,0,0,1-.47-2.11A4.4,4.4,0,0,1,569.16,17.41Zm5.35.89a2,2,0,0,0-1.78-1.06,2,2,0,0,0-1,.27,1.92,1.92,0,0,0-.75.77,2.46,2.46,0,0,0-.29,1.21,2.54,2.54,0,0,0,.29,1.23,2,2,0,0,0,.75.8,1.92,1.92,0,0,0,1,.28,2.06,2.06,0,0,0,1-.27,2,2,0,0,0,.75-.78,2.82,2.82,0,0,0,0-2.45Z" transform="translate(-4.69 -2.32)"/><path class="cls-3" d="M579.94,23.18a3,3,0,0,1-1.19-.93,2.32,2.32,0,0,1-.49-1.3h2a1.05,1.05,0,0,0,.44.74,1.53,1.53,0,0,0,1,.3,1.47,1.47,0,0,0,.87-.23.68.68,0,0,0,.32-.57.61.61,0,0,0-.39-.57,7.62,7.62,0,0,0-1.22-.41,10.18,10.18,0,0,1-1.42-.44,2.29,2.29,0,0,1-.95-.68,1.82,1.82,0,0,1-.4-1.25,2,2,0,0,1,.37-1.17,2.37,2.37,0,0,1,1.06-.84,3.92,3.92,0,0,1,1.63-.31,3.32,3.32,0,0,1,2.21.69,2.52,2.52,0,0,1,.91,1.87h-1.87a1,1,0,0,0-.39-.73,1.38,1.38,0,0,0-.91-.28,1.44,1.44,0,0,0-.82.2.62.62,0,0,0-.29.54.64.64,0,0,0,.39.6,6.5,6.5,0,0,0,1.22.41,10.52,10.52,0,0,1,1.39.44,2.44,2.44,0,0,1,.94.69,1.84,1.84,0,0,1,.41,1.24,2,2,0,0,1-.37,1.2,2.44,2.44,0,0,1-1.06.84,4,4,0,0,1-1.62.3A4.12,4.12,0,0,1,579.94,23.18Z" transform="translate(-4.69 -2.32)"/><path class="cls-3" d="M591.61,13.63V23.4h-2V13.63Z" transform="translate(-4.69 -2.32)"/><path class="cls-3" d="M600.08,16.41a3.34,3.34,0,0,1,.85,2.44V23.4h-2V19.12a2,2,0,0,0-.46-1.42,1.61,1.61,0,0,0-1.26-.5,1.64,1.64,0,0,0-1.28.5,2,2,0,0,0-.47,1.42V23.4h-2V15.64h2v1a2.61,2.61,0,0,1,1-.79,3.13,3.13,0,0,1,1.34-.29A3,3,0,0,1,600.08,16.41Z" transform="translate(-4.69 -2.32)"/><path class="cls-3" d="M605.07,17.25V21a.74.74,0,0,0,.19.56.92.92,0,0,0,.64.18h.91V23.4h-1.23A2.16,2.16,0,0,1,603.1,21V17.25h-.92V15.64h.92V13.73h2v1.91h1.74v1.61Z" transform="translate(-4.69 -2.32)"/><path class="cls-3" d="M615.38,20.11h-5.67a1.9,1.9,0,0,0,.59,1.32,1.83,1.83,0,0,0,1.27.47,1.58,1.58,0,0,0,1.55-.94h2.12A3.65,3.65,0,0,1,614,22.81a3.77,3.77,0,0,1-2.34.72,4.1,4.1,0,0,1-2-.5,3.47,3.47,0,0,1-1.38-1.41,4.18,4.18,0,0,1-.5-2.1,4.35,4.35,0,0,1,.49-2.11,3.36,3.36,0,0,1,1.37-1.4,4.09,4.09,0,0,1,2-.49,4.14,4.14,0,0,1,2,.47A3.3,3.3,0,0,1,615,17.35a4.08,4.08,0,0,1,.48,2A4.4,4.4,0,0,1,615.38,20.11Zm-2-1.32a1.58,1.58,0,0,0-.54-1.21,2,2,0,0,0-1.3-.45,1.8,1.8,0,0,0-1.23.44,2,2,0,0,0-.61,1.22Z" transform="translate(-4.69 -2.32)"/><path class="cls-3" d="M619.81,15.88a2.76,2.76,0,0,1,1.39-.35v2.06h-.52a2,2,0,0,0-1.39.43,2,2,0,0,0-.47,1.52V23.4h-2V15.64h2v1.21A2.79,2.79,0,0,1,619.81,15.88Z" transform="translate(-4.69 -2.32)"/><path class="cls-3" d="M625.52,15.87a3.24,3.24,0,0,1,1.52-.35,3.36,3.36,0,0,1,3.07,1.88,4.38,4.38,0,0,1,.47,2.09,4.46,4.46,0,0,1-.47,2.11A3.44,3.44,0,0,1,628.84,23a3.31,3.31,0,0,1-1.8.51,3.22,3.22,0,0,1-1.52-.35,2.92,2.92,0,0,1-1-.89V23.4h-2V13h2v3.74A2.8,2.8,0,0,1,625.52,15.87Zm2.77,2.41a1.92,1.92,0,0,0-.75-.77,2,2,0,0,0-1-.27,2,2,0,0,0-1,.27,2.22,2.22,0,0,0-.76.79,2.53,2.53,0,0,0-.28,1.22,2.47,2.47,0,0,0,.28,1.22,2.07,2.07,0,0,0,.76.79,2,2,0,0,0,1,.27,1.94,1.94,0,0,0,1-.28,2,2,0,0,0,.75-.79,2.55,2.55,0,0,0,.29-1.24A2.46,2.46,0,0,0,628.29,18.28Z" transform="translate(-4.69 -2.32)"/><path class="cls-3" d="M632,17.41a3.41,3.41,0,0,1,1.28-1.4,3.36,3.36,0,0,1,1.8-.49,3.22,3.22,0,0,1,1.52.35,3.11,3.11,0,0,1,1,.88V15.64h2V23.4h-2V22.27a3,3,0,0,1-1,.9,3.21,3.21,0,0,1-1.54.36,3.27,3.27,0,0,1-1.78-.51A3.54,3.54,0,0,1,632,21.6a4.58,4.58,0,0,1-.46-2.11A4.52,4.52,0,0,1,632,17.41Zm5.36.89a2.06,2.06,0,0,0-.76-.79,2,2,0,0,0-2,0,2.06,2.06,0,0,0-.75.77,2.46,2.46,0,0,0-.28,1.21,2.54,2.54,0,0,0,.28,1.23,2.1,2.1,0,0,0,.76.8,1.89,1.89,0,0,0,1,.28,2,2,0,0,0,1-.27,2,2,0,0,0,.76-.78,2.82,2.82,0,0,0,0-2.45Z" transform="translate(-4.69 -2.32)"/><path class="cls-3" d="M648,16.41a3.34,3.34,0,0,1,.85,2.44V23.4h-2V19.12a2,2,0,0,0-.46-1.42,1.61,1.61,0,0,0-1.26-.5,1.64,1.64,0,0,0-1.28.5,2,2,0,0,0-.47,1.42V23.4h-2V15.64h2v1a2.69,2.69,0,0,1,1-.79,3.13,3.13,0,0,1,1.34-.29A3,3,0,0,1,648,16.41Z" transform="translate(-4.69 -2.32)"/><path class="cls-3" d="M650.74,17.42A3.46,3.46,0,0,1,652.1,16a3.85,3.85,0,0,1,2-.5,3.81,3.81,0,0,1,2.38.72,3.47,3.47,0,0,1,1.27,2h-2.11a1.53,1.53,0,0,0-.57-.79,1.68,1.68,0,0,0-1-.29,1.64,1.64,0,0,0-1.33.61,2.76,2.76,0,0,0-.49,1.73,2.73,2.73,0,0,0,.49,1.72,1.64,1.64,0,0,0,1.33.61,1.5,1.5,0,0,0,1.56-1.07h2.11a3.55,3.55,0,0,1-1.27,2,3.74,3.74,0,0,1-2.38.75,4,4,0,0,1-2-.5,3.52,3.52,0,0,1-1.36-1.4,4.3,4.3,0,0,1-.49-2.11A4.29,4.29,0,0,1,650.74,17.42Z" transform="translate(-4.69 -2.32)"/><path class="cls-3" d="M659.15,17.41a3.33,3.33,0,0,1,1.27-1.4,3.38,3.38,0,0,1,1.8-.49,3.19,3.19,0,0,1,1.52.35,3.11,3.11,0,0,1,1,.88V15.64h2V23.4h-2V22.27a3,3,0,0,1-1,.9,3.14,3.14,0,0,1-1.53.36,3.28,3.28,0,0,1-1.79-.51,3.44,3.44,0,0,1-1.27-1.42,4.59,4.59,0,0,1-.47-2.11A4.52,4.52,0,0,1,659.15,17.41Zm5.35.89a2,2,0,0,0-1.78-1.06,2,2,0,0,0-1,.27,1.92,1.92,0,0,0-.75.77,2.46,2.46,0,0,0-.29,1.21,2.54,2.54,0,0,0,.29,1.23,2,2,0,0,0,.75.8,1.92,1.92,0,0,0,1,.28,2.06,2.06,0,0,0,1-.27,2,2,0,0,0,.75-.78,2.82,2.82,0,0,0,0-2.45Z" transform="translate(-4.69 -2.32)"/><path class="cls-3" d="M671.62,15.88a2.8,2.8,0,0,1,1.4-.35v2.06h-.52a2.06,2.06,0,0,0-1.4.43,2,2,0,0,0-.47,1.52V23.4h-2V15.64h2v1.21A3,3,0,0,1,671.62,15.88Z" transform="translate(-4.69 -2.32)"/><path class="cls-3" d="M674.46,14.39a1.12,1.12,0,0,1-.34-.82,1.13,1.13,0,0,1,.34-.82,1.3,1.3,0,0,1,1.73,0,1.09,1.09,0,0,1,.34.82,1.08,1.08,0,0,1-.34.82,1.3,1.3,0,0,1-1.73,0Zm1.83,1.25V23.4h-2V15.64Z" transform="translate(-4.69 -2.32)"/><path class="cls-3" d="M678.19,17.41a3.35,3.35,0,0,1,3.07-1.89,3.19,3.19,0,0,1,1.52.35,3.11,3.11,0,0,1,1,.88V15.64h2V23.4h-2V22.27a3,3,0,0,1-1,.9,3.14,3.14,0,0,1-1.53.36,3.28,3.28,0,0,1-1.79-.51,3.51,3.51,0,0,1-1.27-1.42,4.59,4.59,0,0,1-.47-2.11A4.52,4.52,0,0,1,678.19,17.41Zm5.35.89a2,2,0,0,0-1.77-1.06,2,2,0,0,0-1,.27,1.92,1.92,0,0,0-.75.77,2.46,2.46,0,0,0-.29,1.21,2.54,2.54,0,0,0,.29,1.23,2,2,0,0,0,.75.8,1.93,1.93,0,0,0,1,.28,2,2,0,0,0,1-.27,2,2,0,0,0,.75-.78,2.82,2.82,0,0,0,0-2.45Z" transform="translate(-4.69 -2.32)"/><path class="cls-3" d="M689,23.18a3,3,0,0,1-1.19-.93,2.32,2.32,0,0,1-.49-1.3h2a1.05,1.05,0,0,0,.44.74,1.53,1.53,0,0,0,1,.3,1.47,1.47,0,0,0,.87-.23.68.68,0,0,0,.32-.57.61.61,0,0,0-.39-.57,7.62,7.62,0,0,0-1.22-.41,10.18,10.18,0,0,1-1.42-.44,2.29,2.29,0,0,1-1-.68,1.82,1.82,0,0,1-.4-1.25,2,2,0,0,1,.37-1.17,2.43,2.43,0,0,1,1.06-.84,3.92,3.92,0,0,1,1.63-.31,3.32,3.32,0,0,1,2.21.69,2.56,2.56,0,0,1,.92,1.87h-1.88a1,1,0,0,0-.39-.73,1.36,1.36,0,0,0-.91-.28,1.44,1.44,0,0,0-.82.2.62.62,0,0,0-.29.54.64.64,0,0,0,.39.6,6.5,6.5,0,0,0,1.22.41,10.52,10.52,0,0,1,1.39.44,2.44,2.44,0,0,1,.94.69,1.84,1.84,0,0,1,.41,1.24,2,2,0,0,1-.37,1.2,2.44,2.44,0,0,1-1.06.84,4,4,0,0,1-1.62.3A4.12,4.12,0,0,1,689,23.18Z" transform="translate(-4.69 -2.32)"/><path class="cls-3" d="M533.78,40.76a10.7,10.7,0,0,1-.64-3.75,10.88,10.88,0,0,1,.68-3.86,7.68,7.68,0,0,1,1.94-3h1.13v.11a8.19,8.19,0,0,0-2,3A10.25,10.25,0,0,0,534.2,37a9.88,9.88,0,0,0,.64,3.55,8.52,8.52,0,0,0,1.87,3v.11h-1.13A7.65,7.65,0,0,1,533.78,40.76Z" transform="translate(-4.69 -2.32)"/><path class="cls-3" d="M540.29,38.51a9.61,9.61,0,0,0,1.46-1.64,3,3,0,0,0,.59-1.69A1.78,1.78,0,0,0,542,34a1.46,1.46,0,0,0-1.21-.46,1.6,1.6,0,0,0-1.27.51,2.12,2.12,0,0,0-.48,1.37h-1.06a2.89,2.89,0,0,1,.81-2.08,3.12,3.12,0,0,1,4,0,2.49,2.49,0,0,1,.72,1.89,3.6,3.6,0,0,1-.59,1.93,8.89,8.89,0,0,1-1.35,1.66c-.51.48-1.15,1-1.93,1.66h4.12v.91H537.9v-.78C538.92,39.71,539.71,39,540.29,38.51Z" transform="translate(-4.69 -2.32)"/><path class="cls-3" d="M544.67,39.47v-.83l4.21-5.83h1.31v5.71h1.2v.95h-1.2V41.4h-1.08V39.47ZM549.16,34l-3.23,4.57h3.23Z" transform="translate(-4.69 -2.32)"/><path class="cls-3" d="M560.48,35a2.24,2.24,0,0,1,.94,1,3.19,3.19,0,0,1,.34,1.54V41.4h-1.08V37.68a2.11,2.11,0,0,0-.49-1.51,2,2,0,0,0-2.72,0,2.21,2.21,0,0,0-.51,1.57V41.4h-1.09V32.52H557v3.24a2.18,2.18,0,0,1,.89-.78,3,3,0,0,1,1.28-.27A2.86,2.86,0,0,1,560.48,35Z" transform="translate(-4.69 -2.32)"/><path class="cls-3" d="M564.74,41.09a3,3,0,0,1-1.18-1.2,3.67,3.67,0,0,1-.42-1.79,3.56,3.56,0,0,1,.44-1.78,3,3,0,0,1,1.19-1.19,3.71,3.71,0,0,1,3.39,0,3.07,3.07,0,0,1,1.19,1.18,3.57,3.57,0,0,1,.44,1.79,3.47,3.47,0,0,1-.45,1.79,3.13,3.13,0,0,1-1.22,1.2,3.48,3.48,0,0,1-1.7.42A3.38,3.38,0,0,1,564.74,41.09Zm2.78-.82a2.07,2.07,0,0,0,.83-.83,3,3,0,0,0,0-2.68,2,2,0,0,0-.82-.83,2.25,2.25,0,0,0-1.09-.26,2.29,2.29,0,0,0-1.1.26,2,2,0,0,0-.8.83,2.88,2.88,0,0,0-.3,1.34,2.82,2.82,0,0,0,.3,1.36,2.06,2.06,0,0,0,.78.82,2.32,2.32,0,0,0,2.19,0Z" transform="translate(-4.69 -2.32)"/><path class="cls-3" d="M573.14,35a2.53,2.53,0,0,1,1.3-.31v1.12h-.28c-1.23,0-1.84.67-1.84,2V41.4h-1.09V34.82h1.09v1.07A2.09,2.09,0,0,1,573.14,35Z" transform="translate(-4.69 -2.32)"/><path class="cls-3" d="M575.7,36.32a3,3,0,0,1,1.12-1.18,3.11,3.11,0,0,1,1.6-.42,2.93,2.93,0,0,1,1.5.37,2.54,2.54,0,0,1,.94.93v-1.2H582V41.4h-1.11V40.18a2.57,2.57,0,0,1-1,1,2.93,2.93,0,0,1-1.5.38,3,3,0,0,1-1.58-.43,3.07,3.07,0,0,1-1.12-1.22,3.79,3.79,0,0,1-.41-1.77A3.73,3.73,0,0,1,575.7,36.32Zm4.86.48a2.12,2.12,0,0,0-.81-.84,2.15,2.15,0,0,0-1.12-.29,2.24,2.24,0,0,0-1.12.28,2.09,2.09,0,0,0-.8.84,2.68,2.68,0,0,0-.3,1.3,2.72,2.72,0,0,0,.3,1.31,2.12,2.12,0,0,0,.8.85,2.24,2.24,0,0,0,2.24,0,2.08,2.08,0,0,0,.81-.85,3,3,0,0,0,0-2.6Z" transform="translate(-4.69 -2.32)"/><path class="cls-3" d="M584.79,41.25a2.25,2.25,0,0,1-.95-.72,1.9,1.9,0,0,1-.38-1.06h1.12a1.11,1.11,0,0,0,.46.8,1.76,1.76,0,0,0,1.09.31,1.62,1.62,0,0,0,1-.27.86.86,0,0,0,.35-.7.67.67,0,0,0-.38-.64,5.14,5.14,0,0,0-1.19-.41,9.24,9.24,0,0,1-1.19-.39,2.19,2.19,0,0,1-.79-.59,1.53,1.53,0,0,1-.33-1,1.56,1.56,0,0,1,.3-.92,2.07,2.07,0,0,1,.85-.67,3.15,3.15,0,0,1,1.26-.24,2.67,2.67,0,0,1,1.76.55,2,2,0,0,1,.72,1.51h-1.09A1.13,1.13,0,0,0,587,36a1.61,1.61,0,0,0-1-.31,1.53,1.53,0,0,0-.93.25.77.77,0,0,0-.35.66.73.73,0,0,0,.21.54,1.49,1.49,0,0,0,.53.33,8.22,8.22,0,0,0,.88.29,9.26,9.26,0,0,1,1.15.37,2,2,0,0,1,.76.56,1.46,1.46,0,0,1,.33,1,1.64,1.64,0,0,1-.3,1,2,2,0,0,1-.84.68,3,3,0,0,1-1.26.25A3.42,3.42,0,0,1,584.79,41.25Z" transform="translate(-4.69 -2.32)"/><path class="cls-3" d="M597.89,35a2.18,2.18,0,0,1,.94,1,3.19,3.19,0,0,1,.34,1.54V41.4h-1.08V37.68a2.11,2.11,0,0,0-.49-1.51,1.76,1.76,0,0,0-1.34-.52,1.81,1.81,0,0,0-1.38.54,2.21,2.21,0,0,0-.5,1.57V41.4h-1.1V32.52h1.1v3.24a2.12,2.12,0,0,1,.89-.78,2.93,2.93,0,0,1,1.28-.27A2.84,2.84,0,0,1,597.89,35Z" transform="translate(-4.69 -2.32)"/><path class="cls-3" d="M601,36.32a3,3,0,0,1,1.12-1.18,3.1,3.1,0,0,1,1.59-.42,2.88,2.88,0,0,1,1.5.37,2.5,2.5,0,0,1,1,.93v-1.2h1.11V41.4h-1.11V40.18a2.57,2.57,0,0,1-1,1,2.93,2.93,0,0,1-1.5.38,3,3,0,0,1-1.58-.43A3.07,3.07,0,0,1,601,39.86a3.79,3.79,0,0,1-.41-1.77A3.73,3.73,0,0,1,601,36.32Zm4.86.48A2.12,2.12,0,0,0,605,36a2.15,2.15,0,0,0-1.12-.29,2.24,2.24,0,0,0-1.12.28,2.09,2.09,0,0,0-.8.84,2.68,2.68,0,0,0-.3,1.3,2.72,2.72,0,0,0,.3,1.31,2.12,2.12,0,0,0,.8.85,2.24,2.24,0,0,0,2.24,0,2.08,2.08,0,0,0,.81-.85,3,3,0,0,0,0-2.6ZM605.27,33l-2.56,1.37v-.81l2.56-1.5Z" transform="translate(-4.69 -2.32)"/><path class="cls-3" d="M611.15,35.09a2.88,2.88,0,0,1,1.48-.37,3,3,0,0,1,1.59.42,3,3,0,0,1,1.12,1.18,3.73,3.73,0,0,1,.41,1.77,3.79,3.79,0,0,1-.41,1.77,3.07,3.07,0,0,1-1.12,1.22,3.11,3.11,0,0,1-1.59.43,3,3,0,0,1-1.5-.37,2.5,2.5,0,0,1-1-1V41.4h-1.1V32.52h1.1v3.53A2.58,2.58,0,0,1,611.15,35.09Zm3.18,1.7a2.05,2.05,0,0,0-.81-.84,2.24,2.24,0,0,0-1.12-.28,2.14,2.14,0,0,0-1.11.29,2.17,2.17,0,0,0-.82.85,2.95,2.95,0,0,0,0,2.59,2.21,2.21,0,0,0,3,.85,2.08,2.08,0,0,0,.81-.85,2.72,2.72,0,0,0,.3-1.31A2.68,2.68,0,0,0,614.33,36.79Z" transform="translate(-4.69 -2.32)"/><path class="cls-3" d="M617.22,33.54A.72.72,0,0,1,617,33a.72.72,0,0,1,.74-.74.69.69,0,0,1,.51.21.74.74,0,0,1,.21.53.72.72,0,0,1-.21.53.7.7,0,0,1-.51.22A.75.75,0,0,1,617.22,33.54Zm1.06,1.28V41.4h-1.09V34.82Z" transform="translate(-4.69 -2.32)"/><path class="cls-3" d="M621.23,32.52V41.4h-1.09V32.52Z" transform="translate(-4.69 -2.32)"/><path class="cls-3" d="M629.05,38.52H623.8a2,2,0,0,0,2.13,2.06,2,2,0,0,0,1.19-.33,1.73,1.73,0,0,0,.66-.88H629a2.89,2.89,0,0,1-1.06,1.55,3.22,3.22,0,0,1-2,.59,3.31,3.31,0,0,1-1.67-.42,3,3,0,0,1-1.16-1.2,3.67,3.67,0,0,1-.42-1.79,3.78,3.78,0,0,1,.41-1.79,2.84,2.84,0,0,1,1.15-1.18,3.33,3.33,0,0,1,1.69-.41,3.22,3.22,0,0,1,1.66.41,2.78,2.78,0,0,1,1.11,1.12,3.28,3.28,0,0,1,.39,1.61A5.07,5.07,0,0,1,629.05,38.52Zm-1.36-2a1.82,1.82,0,0,0-.75-.68,2.31,2.31,0,0,0-1.05-.24,2,2,0,0,0-1.41.53,2.16,2.16,0,0,0-.67,1.46H628A2,2,0,0,0,627.69,36.56Z" transform="translate(-4.69 -2.32)"/><path class="cls-3" d="M631.5,41.25a2.31,2.31,0,0,1-1-.72,1.9,1.9,0,0,1-.38-1.06h1.13a1.08,1.08,0,0,0,.46.8,1.76,1.76,0,0,0,1.09.31,1.61,1.61,0,0,0,1-.27.85.85,0,0,0,.36-.7.69.69,0,0,0-.38-.64,5.32,5.32,0,0,0-1.19-.41,9.45,9.45,0,0,1-1.2-.39,2.28,2.28,0,0,1-.79-.59,1.53,1.53,0,0,1-.33-1,1.56,1.56,0,0,1,.3-.92,2.1,2.1,0,0,1,.86-.67,3.06,3.06,0,0,1,1.25-.24,2.7,2.7,0,0,1,1.77.55,2,2,0,0,1,.72,1.51h-1.09a1.18,1.18,0,0,0-.42-.83,1.58,1.58,0,0,0-1-.31,1.56,1.56,0,0,0-.94.25.79.79,0,0,0-.35.66.73.73,0,0,0,.21.54,1.49,1.49,0,0,0,.53.33,9.06,9.06,0,0,0,.88.29,8.94,8.94,0,0,1,1.16.37,2.09,2.09,0,0,1,.76.56,1.51,1.51,0,0,1,.33,1,1.64,1.64,0,0,1-.3,1,1.94,1.94,0,0,1-.85.68,2.91,2.91,0,0,1-1.25.25A3.44,3.44,0,0,1,631.5,41.25Z" transform="translate(-4.69 -2.32)"/><path class="cls-3" d="M636.45,43.63v-.11a8.38,8.38,0,0,0,1.87-3A9.89,9.89,0,0,0,639,37a10.26,10.26,0,0,0-.68-3.68,8.07,8.07,0,0,0-2-3v-.11h1.14a7.66,7.66,0,0,1,1.93,3,11.3,11.3,0,0,1,0,7.61,7.76,7.76,0,0,1-1.79,2.87Z" transform="translate(-4.69 -2.32)"/></svg>