<svg xmlns="http://www.w3.org/2000/svg" viewBox="0 0 45.86 55.54"><defs><style>.cls-1,.cls-4{fill:#1d2a37;}.cls-2{fill:#52697c;}.cls-3,.cls-5{fill:#dfedff;}.cls-3,.cls-4{fill-rule:evenodd;}</style></defs><title>Transferencia inmediata</title><g id="Capa_2" data-name="Capa 2"><g id="Capa_1-2" data-name="Capa 1"><path class="cls-1" d="M8.85,4.5,4,7.54a1.11,1.11,0,0,0-.28,1.52l8.41,12.17a1.19,1.19,0,0,0,1.58.32l4.83-3.05a1,1,0,0,0,.34-1.45l0-.06L10.49,4.82A1.2,1.2,0,0,0,8.85,4.5Z"/><path class="cls-2" d="M11,2l-10,6.31a2.12,2.12,0,0,0-.73,2.92.75.75,0,0,0,.07.12l1.69,2.44a2.37,2.37,0,0,0,3.23.62l10-6.31A2.13,2.13,0,0,0,16,5.12L15.89,5,14.2,2.57A2.36,2.36,0,0,0,11,2Z"/><path class="cls-3" d="M11,2a2.36,2.36,0,0,1,3.17.65l1.69,2.45a2.12,2.12,0,0,1-.5,3l-.12.08h0l-.14-.22L12.81,4.51a2.36,2.36,0,0,0-3.17-.64L.05,9.94a2.11,2.11,0,0,1,1-1.68Z"/><path class="cls-4" d="M16.1,7.07a2.18,2.18,0,0,1-.85,1L5.31,14.36a2.36,2.36,0,0,1-3.18-.65L.39,11.3a2.13,2.13,0,0,1,.51-3L1,8.26l.23-.16A2.26,2.26,0,0,0,1.6,9.7l1.86,2.7A2.37,2.37,0,0,0,6.64,13Z"/><polygon class="cls-1" points="17.18 10.02 12.23 12.08 33.2 54.81 38.16 52.73 17.18 10.02"/><path class="cls-1" d="M8.41,39.42C14.2,51.21,25.42,58,33.48,54.69s9.87-15.64,4.08-27.45S20.59,8.6,12.5,12,2.63,27.61,8.41,39.42Z"/><path class="cls-5" d="M12.81,37.59C18.6,49.38,30,56.17,38.16,52.75S48.31,37,42.52,25.18,25.38,6.6,17.22,10,7,25.79,12.81,37.59Z"/><path class="cls-1" d="M14.79,36.8C20,47.42,30.22,53.53,37.6,50.45s9.14-14.24,3.93-24.87S26.11,8.86,18.73,12,9.58,26.14,14.79,36.8Z"/><path class="cls-2" d="M14.79,36.8c5.21,10.57,15,16.83,21.82,14S44.77,37,39.55,26.42s-15-16.91-21.82-14.06S9.58,26.14,14.79,36.8Z"/><path class="cls-5" d="M27.85,31.7l3.36-2.58L19.08,15.58Z"/><path class="cls-5" d="M23.81,37.5l7.42-5.19V29.12h-2.7Z"/><path class="cls-2" d="M19.9,4.26a.82.82,0,0,1-.57,1h0a.86.86,0,0,1-1-.62ZM17.3,1a.81.81,0,0,1,.58-1h0a.86.86,0,0,1,1,.61Zm1,3.63L17.3,1l1.64-.4,1,3.62Z"/><path class="cls-2" d="M25.29,4.77a.85.85,0,0,1-1,.62.8.8,0,0,1-.63-.95v0ZM24.59.65a.87.87,0,0,1,1-.63.82.82,0,0,1,.62,1h0ZM23.65,4.4,24.59.65,26.2,1l-.94,3.74Z"/><path class="cls-2" d="M30.39,7.24a.9.9,0,0,1-1.21-.17A.81.81,0,0,1,29.33,6h0Zm1.79-3.37a.88.88,0,0,1,1.2.17.81.81,0,0,1-.15,1.12Zm-2.84,2,2.84-2.09,1,1.33L30.39,7.24Z"/></g></g></svg>