<svg xmlns="http://www.w3.org/2000/svg" viewBox="0 0 40.83 54.81"><defs><style>.cls-1{fill:#1077fd;}.cls-2{fill:#1d2a37;}.cls-3{fill:#dfedff;}.cls-4{fill:#52697c;}</style></defs><title>transferencia interbancaria icono</title><g id="Capa_2" data-name="Capa 2"><g id="Capa_1-2" data-name="Capa 1"><polygon class="cls-1" points="12.15 9.29 7.19 11.36 28.18 54.08 33.12 52.01 12.15 9.29"/><path class="cls-2" d="M3.39,38.69C9.17,50.48,20.39,57.32,28.46,54s9.88-15.64,4.08-27.45S15.53,7.88,7.47,11.24-2.41,26.88,3.39,38.69Z"/><path class="cls-3" d="M7.79,36.86C13.58,48.65,24.92,55.44,33.14,52S43.29,36.24,37.5,24.45,20.39,5.87,12.15,9.29,2,25.07,7.79,36.86Z"/><path class="cls-2" d="M9.76,36.07C15,46.69,25.19,52.8,32.57,49.72s9.14-14.24,3.93-24.87S21.07,8.14,13.66,11.22,4.56,25.41,9.76,36.07Z"/><path class="cls-4" d="M9.76,36.07c5.22,10.57,15,16.84,21.85,14s8.15-13.78,2.94-24.39-15-16.91-21.83-14.06S4.56,25.41,9.76,36.07Z"/><path class="cls-3" d="M23.07,31.49l3.37-2.59-11.1-12Z"/><path class="cls-3" d="M19,37.29l7.41-5.15V28.9H23.75Z"/><path class="cls-4" d="M22.81,4.66A.82.82,0,0,1,22,5.5h0a.86.86,0,0,1-.86-.84ZM21,.84a.82.82,0,0,1,.8-.84h0a.86.86,0,0,1,.86.84Zm.09,3.82L21,.9h1.68l.09,3.76Z"/><path class="cls-4" d="M27.93,6.35a.86.86,0,0,1-1.12.36.82.82,0,0,1-.39-1.09l0,0Zm.31-4.17a.87.87,0,0,1,1.13-.37.83.83,0,0,1,.36,1.11h0ZM26.44,5.6l1.8-3.37L29.75,3,28,6.41Z"/><path class="cls-4" d="M32.32,9.93a.88.88,0,0,1-1.13-.44.81.81,0,0,1,.33-1.08l.09,0Zm2.53-2.88A.85.85,0,0,1,36,7.48a.79.79,0,0,1-.32,1.08l-.09,0ZM31.61,8.4l3.25-1.35.71,1.52L32.33,9.93Z"/><ellipse class="cls-3" cx="31.17" cy="25.44" rx="1.14" ry="1.46" transform="translate(-8.35 17.91) rotate(-28.43)"/><ellipse class="cls-3" cx="23.47" cy="16.71" rx="1.14" ry="1.46" transform="translate(-5.12 13.19) rotate(-28.43)"/><ellipse class="cls-3" cx="10.37" cy="24.34" rx="1.14" ry="1.46" transform="translate(-10.34 7.87) rotate(-28.43)"/><ellipse class="cls-3" cx="34.57" cy="36.06" rx="1.14" ry="1.46" transform="translate(-13 20.81) rotate(-28.43)"/><ellipse class="cls-3" cx="20.06" cy="43.9" rx="1.14" ry="1.46" transform="translate(-18.48 14.85) rotate(-28.43)"/><ellipse class="cls-3" cx="31.18" cy="46.47" rx="1.14" ry="1.46" transform="translate(-18.37 20.45) rotate(-28.43)"/><ellipse class="cls-3" cx="12.38" cy="34.97" rx="1.14" ry="1.46" transform="translate(-15.16 10.11) rotate(-28.43)"/><ellipse class="cls-3" cx="12.69" cy="14.15" rx="1.14" ry="1.46" transform="translate(-5.21 7.75) rotate(-28.43)"/></g></g></svg>