<?xml version="1.0" encoding="UTF-8"?>
<svg width="52px" height="50px" viewBox="0 0 52 50" version="1.1" xmlns="http://www.w3.org/2000/svg" xmlns:xlink="http://www.w3.org/1999/xlink">
    <title>inmediato-11</title>
    <g id="Page-1" stroke="none" stroke-width="1" fill="none" fill-rule="evenodd">
        <g id="inmediato-11" fill="#FFFFFF" fill-rule="nonzero" stroke="#FFFFFF" stroke-width="0.5">
            <path d="M51.2,27.61 C50.3368996,19.0278569 44.0689811,11.9658677 35.65,10.09 L35.65,7.57 C37.3010432,7.15857867 38.3863929,5.58093349 38.1803539,3.89192219 C37.9743149,2.2029109 36.5415303,0.932447761 34.84,0.93 L27.71,0.93 C26.0084697,0.932447761 24.5756851,2.2029109 24.3696461,3.89192219 C24.1636071,5.58093349 25.2489568,7.15857867 26.9,7.57 L26.9,10.09 C23.2017823,10.9143419 19.8157648,12.7773454 17.14,15.46 C16.5430498,16.06319 15.9820818,16.7009572 15.46,17.37 L8.33,17.37 C7.77771525,17.37 7.33,17.8177153 7.33,18.37 C7.33,18.9222847 7.77771525,19.37 8.33,19.37 L14.11,19.37 C13.3955736,20.5755899 12.8090567,21.8525211 12.36,23.18 L1.58,23.18 C1.02771525,23.18 0.58,23.6277153 0.58,24.18 C0.58,24.7322847 1.02771525,25.18 1.58,25.18 L11.8,25.18 C11.5121804,26.4308692 11.3480574,27.7070091 11.31,28.99 L6.93,28.99 C6.37771525,28.99 5.93,29.4377153 5.93,29.99 C5.93,30.5422847 6.37771525,30.99 6.93,30.99 L11.34,30.99 C11.4395942,32.2549422 11.6606117,33.5073744 12,34.73 L5.54,34.73 C4.98771525,34.73 4.54,35.1777153 4.54,35.73 C4.54,36.2822847 4.98771525,36.73 5.54,36.73 L12.59,36.73 C13.5935476,39.3593672 15.144479,41.7454155 17.14,43.73 C20.411905,46.9963628 24.7102611,49.0342851 29.31,49.5 C29.97,49.56 30.62,49.5900001 31.31,49.5900001 C35.1732908,49.5900001 38.9546048,48.4758114 42.2,46.38 C42.6597438,46.0780393 42.7893122,45.4614725 42.49,45 C42.1880393,44.5402562 41.5714725,44.4106878 41.11,44.71 C33.3820596,49.720894 23.1182178,48.0897357 17.3244774,40.9299386 C11.530737,33.7701416 12.0764628,23.391832 18.5891474,16.8791474 C25.101832,10.3664628 35.4801416,9.82073698 42.6399386,15.6144774 C49.7997357,21.4082178 51.430894,31.6720596 46.42,39.4 C46.1892557,39.856344 46.3399687,40.4132459 46.7693633,40.6909382 C47.1987579,40.9686306 47.7684715,40.8776333 48.09,40.48 C50.5482375,36.6634164 51.6442194,32.1279544 51.2,27.61 L51.2,27.61 Z M26.32,4.3 C26.3254479,3.53459217 26.9445922,2.91544795 27.71,2.91 L34.84,2.91 C35.3365992,2.91 35.7954758,3.17493248 36.0437754,3.60499998 C36.292075,4.03506749 36.292075,4.56493251 36.0437754,4.99500002 C35.7954758,5.42506752 35.3365992,5.69 34.84,5.69 L27.71,5.69 C26.9423242,5.69 26.32,5.0676758 26.32,4.3 L26.32,4.3 Z M28.88,9.75 L28.88,7.67 L33.67,7.67 L33.67,9.75 C32.0789844,9.56002223 30.4710156,9.56002223 28.88,9.75 L28.88,9.75 Z" id="Shape"></path>
            <path d="M44.74,42.06 C44.4776601,42.0611046 44.2262606,42.1652558 44.04,42.35 C43.8552558,42.5362606 43.7511046,42.7876601 43.75,43.05 C43.75,43.6022847 44.1977153,44.05 44.75,44.05 C45.0123399,44.0488954 45.2637394,43.9447442 45.45,43.76 C45.6347442,43.5737394 45.7388954,43.3223399 45.74,43.06 C45.74,42.5077153 45.2922847,42.06 44.74,42.06 Z" id="Path"></path>
            <path d="M37.56,21.94 L32.65,26.84 C31.7903821,26.4269258 30.7896179,26.4269258 29.93,26.84 L27.74,24.65 C27.3418797,24.3514098 26.7847852,24.3910013 26.4328932,24.7428932 C26.0810013,25.0947852 26.0414098,25.6518797 26.34,26.05 L28.53,28.25 C27.8884201,29.5453241 28.233962,31.1125409 29.3607666,32.0179693 C30.4875712,32.9233977 32.0924288,32.9233977 33.2192334,32.0179693 C34.346038,31.1125409 34.6915799,29.5453241 34.05,28.25 L39,23.34 C39.3811429,22.9511565 39.3811429,22.3288435 39,21.94 C38.6111565,21.5588571 37.9888435,21.5588571 37.6,21.94 L37.56,21.94 Z M31.29,30.7 C30.6824868,30.7 30.19,30.2075132 30.19,29.6 C30.19,28.9924868 30.6824868,28.5 31.29,28.5 C31.8975132,28.5 32.39,28.9924868 32.39,29.6 C32.39,30.2075132 31.8975132,30.7 31.29,30.7 L31.29,30.7 Z" id="Shape"></path>
            <path d="M41.88,28.63 L41,28.63 C40.4477153,28.63 40,29.0777153 40,29.63 C40,30.1822847 40.4477153,30.63 41,30.63 L41.92,30.63 C42.4722847,30.63 42.92,30.1822847 42.92,29.63 C42.92,29.0777153 42.4722847,28.63 41.92,28.63 L41.88,28.63 Z" id="Path"></path>
            <path d="M21.62,28.6 L20.7,28.6 C20.1477153,28.6 19.7,29.0477153 19.7,29.6 C19.7,30.1522847 20.1477153,30.6 20.7,30.6 L21.62,30.6 C22.1722847,30.6 22.62,30.1522847 22.62,29.6 C22.62,29.0477153 22.1722847,28.6 21.62,28.6 L21.62,28.6 Z" id="Path"></path>
            <path d="M31.3,20.92 C31.8522847,20.92 32.3,20.4722847 32.3,19.92 L32.3,19 C32.3,18.4477153 31.8522847,18 31.3,18 C30.7477153,18 30.3,18.4477153 30.3,19 L30.3,19.92 C30.3,20.4722847 30.7477153,20.92 31.3,20.92 Z" id="Path"></path>
            <path d="M31.28,38.29 C30.7277153,38.29 30.28,38.7377153 30.28,39.29 L30.28,40.2 C30.28,40.7522847 30.7277153,41.2 31.28,41.2 C31.8322847,41.2 32.28,40.7522847 32.28,40.2 L32.28,39.29 C32.28,38.7377153 31.8322847,38.29 31.28,38.29 Z" id="Path"></path>
            <path d="M1.58,34.73 C1.02771525,34.73 0.58,35.1777153 0.58,35.73 C0.581104622,35.9923399 0.685255836,36.2437394 0.87,36.43 C1.05626064,36.6147442 1.30766012,36.7188954 1.57,36.72 C1.83521649,36.72 2.0895704,36.6146432 2.27710678,36.4271068 C2.46464316,36.2395704 2.57,35.9852165 2.57,35.72 C2.56889538,35.4576601 2.46474416,35.2062606 2.28,35.02 C2.09373936,34.8352558 1.84233988,34.7311046 1.58,34.73 L1.58,34.73 Z" id="Path"></path>
        </g>
    </g>
</svg>