<svg xmlns="http://www.w3.org/2000/svg" viewBox="0 0 583.61 824.11"><defs><style>.cls-1{fill:#69b42d;}.cls-2{fill:#fff;stroke:#1d2a37;stroke-linecap:round;stroke-linejoin:round;stroke-width:10px;}</style></defs><title>Recurso 1</title><g id="Capa_2" data-name="Capa 2"><g id="Capa_1-2" data-name="Capa 1"><path class="cls-1" d="M.3,477.21,159.13,346.89q19.23-15.92,33.49-28.51l4.64-4a333.45,333.45,0,0,0,25.2-27.19,113.26,113.26,0,0,0,13.6-25.87,80.12,80.12,0,0,0,4.64-27.85q0-30.51-16.25-45.43-16.57-14.25-42.11-14.26a73.8,73.8,0,0,0-45.43,14.92Q116.35,203,86.51,240.78L6.27,176.45a515.57,515.57,0,0,1,36.14-42.11,201.54,201.54,0,0,1,40.12-31.83A179.1,179.1,0,0,1,130,82.61Q156.47,76,189,76q37.8,0,70,11,31.15,10.93,53.05,30.5a120.68,120.68,0,0,1,33.82,46.76q12.27,27.84,12.27,60.35v1.32q0,29.52-7.29,53.06A161.68,161.68,0,0,1,326.91,323Q312,344.25,287.45,365.13q-23.2,21.22-55,45.43l-73.94,57H363.06v94.5H.3Z"/><path class="cls-2" d="M516.11,819.11h-201c-34.52,0-62.5-30.68-62.5-68.52V299.3c0-37.84,28-68.52,62.5-68.53H516.11c34.52,0,62.5,30.69,62.5,68.53V750.59C578.61,788.43,550.63,819.11,516.11,819.11Z"/><path class="cls-2" d="M356,276.35H475.14"/><circle class="cls-2" cx="415.59" cy="751.66" r="31.86"/><polyline class="cls-2" points="439.06 479.06 382.75 479.06 382.75 452.56 333.06 502.25 382.75 551.94 382.75 525.44 452.31 525.44 452.31 489 502 538.69 452.31 588.38 452.31 561.88 396 561.88"/><path class="cls-1" d="M38.83,17.19c0,10.71-7.72,17.13-20.54,17.13H3.72V51H0V0H18.29C31.11,0,38.83,6.41,38.83,17.19Zm-3.79,0C35,8.38,29.22,3.35,18.29,3.35H3.72V31H18.29C29.22,31,35,25.94,35,17.19Z"/><path class="cls-1" d="M77.3,26.88V51H73.8V44.22c-2.41,4.38-7.07,7.07-13.7,7.07-8.52,0-13.69-4.37-13.69-10.85,0-5.76,3.64-10.64,14.2-10.64h13V26.74c0-7.07-3.86-10.86-11.29-10.86a19.72,19.72,0,0,0-13.11,4.81l-1.83-2.62a23.22,23.22,0,0,1,15.23-5.39C72.05,12.68,77.3,17.49,77.3,26.88Zm-3.65,12.9V32.64h-13c-7.86,0-10.63,3.28-10.63,7.65,0,5,3.86,8,10.56,8C67,48.3,71.47,45.24,73.65,39.78Z"/><path class="cls-1" d="M86.69,46.41l1.68-2.91a22.14,22.14,0,0,0,13.69,4.58c8,0,11.22-2.84,11.22-7.14,0-11.07-25.21-2.91-25.21-17.84,0-5.76,4.81-10.42,14.43-10.42,4.81,0,10,1.45,13,3.71l-1.67,2.92a19.62,19.62,0,0,0-11.44-3.43C95,15.88,91.72,18.94,91.72,23c0,11.44,25.21,3.35,25.21,17.85,0,6.2-5.32,10.42-15,10.42C95.65,51.29,89.68,49.18,86.69,46.41Z"/><path class="cls-1" d="M123,32c0-11.29,8.09-19.3,19-19.3s19,8,19,19.3-8.09,19.31-19,19.31S123,43.28,123,32Zm34.31,0c0-9.54-6.55-16-15.3-16s-15.3,6.48-15.3,16,6.56,16,15.3,16S157.28,41.53,157.28,32Z"/></g></g></svg>