<svg xmlns="http://www.w3.org/2000/svg" viewBox="0 0 786.92 824.59"><defs><style>.cls-1{fill:#69b42d;}.cls-2{fill:#fff;}.cls-2,.cls-3,.cls-4,.cls-5{stroke:#1d2a37;stroke-linecap:round;stroke-linejoin:round;}.cls-2,.cls-3,.cls-5{stroke-width:10px;}.cls-3,.cls-4{fill:none;}.cls-4{stroke-width:6px;}.cls-5,.cls-6{fill:#1d2a37;}</style></defs><title>Recibe tu cambio</title><g id="Capa_2" data-name="Capa 2"><g id="Capa_1-2" data-name="Capa 1"><path class="cls-1" d="M189.66,560.5q-65.64,0-111.82-23.08Q31.34,514,0,476.73l77.84-73.56q28,32.32,53.76,46.51,25.07,13.53,59.71,13.52,26,0,43.86-14.18,17.49-14.85,17.48-41.23v-1.32q0-29.36-23.08-43.21-22.44-14.83-64-14.84H117.42L100.6,280.14,211.43,168.66H27.71V75.32H357.87v80.47L239.13,268.6A268.12,268.12,0,0,1,283,281.46a137.26,137.26,0,0,1,41.89,25.07,115.07,115.07,0,0,1,29.68,39.91q10.89,23.43,10.89,55.74v1.65q0,33.32-12.21,61.35a141.9,141.9,0,0,1-33.64,50.14q-23.08,21.1-56.07,33Q230.23,560.49,189.66,560.5Z"/><path class="cls-1" d="M66.59,17.19c0,10.71-7.72,17.13-20.54,17.13H31.48V51H27.76V0H46.05C58.87,0,66.59,6.41,66.59,17.19Zm-3.78,0C62.81,8.38,57,3.35,46.05,3.35H31.48V31H46.05C57,31,62.81,25.94,62.81,17.19Z"/><path class="cls-1" d="M105.06,26.88V51h-3.5V44.22c-2.4,4.38-7.07,7.07-13.7,7.07-8.52,0-13.69-4.37-13.69-10.85,0-5.76,3.64-10.64,14.2-10.64h13V26.74c0-7.07-3.86-10.86-11.29-10.86A19.74,19.74,0,0,0,77,20.69l-1.82-2.62a23.19,23.19,0,0,1,15.22-5.39C99.81,12.68,105.06,17.49,105.06,26.88Zm-3.65,12.9V32.64h-13c-7.87,0-10.64,3.28-10.64,7.65,0,5,3.86,8,10.56,8C94.78,48.3,99.23,45.24,101.41,39.78Z"/><path class="cls-1" d="M114.45,46.41l1.68-2.91a22.14,22.14,0,0,0,13.69,4.58c8,0,11.22-2.84,11.22-7.14,0-11.07-25.2-2.91-25.2-17.84,0-5.76,4.8-10.42,14.42-10.42,4.81,0,10.06,1.45,13,3.71l-1.67,2.92a19.62,19.62,0,0,0-11.44-3.43c-7.43,0-10.71,3.06-10.71,7.14,0,11.44,25.21,3.35,25.21,17.85,0,6.2-5.32,10.42-15,10.42C123.41,51.29,117.44,49.18,114.45,46.41Z"/><path class="cls-1" d="M150.73,32c0-11.29,8.09-19.3,19-19.3s19,8,19,19.3-8.09,19.31-19,19.31S150.73,43.28,150.73,32Zm34.32,0c0-9.54-6.56-16-15.3-16s-15.3,6.48-15.3,16,6.55,16,15.3,16S185.05,41.53,185.05,32Z"/><path class="cls-2" d="M528.34,619.67s12.81,30.2-7.33,85S434.87,827.75,399.07,818.8s-137.6-48.11-121.94-99.57-6.89-73.83,15.57-99.56,139.93-90.62,139.93-90.62Z"/><path class="cls-3" d="M436,348.8l6.95,18.61,7.78,20.81,5.25,14,7.16,19.15L474.92,453l3.31,8.86,19.27,51.55a10.34,10.34,0,0,0,13.32,6.07l264.36-98.82a10.35,10.35,0,0,0,6.08-13.32l-29.14-77.95-7-18.73-25.4-67.93a10.35,10.35,0,0,0-13.32-6.07l-10.48,3.92-7.58,2.84-9.92,3.7-7.33,2.74-14.16,5.29-10.07,3.77L541.58,298.27l-18.41,6.88-65.62,24.53-8.37,3.13-7.13,2.67A10.35,10.35,0,0,0,436,348.8Zm29.59,29.49c8.26-2.61,15.79-6,19.75-14.27,4.09-8.47,1.95-16.43-1.86-24.7l36.38-13.6L533,320.78l8.35-3.12,1.41-.53,6.42-2.4,6.16-2.3,13.71-5.13,13.47-5,65-24.28,7.11-2.66,22.48-8.4c2.65,8.27,6,15.88,14.55,19.73l.71.3a21.12,21.12,0,0,0,5.81,1.5,25.57,25.57,0,0,0,8.8-.63,57.31,57.31,0,0,0,9.11-3.11l21.25,56.85,13.75,36.78c-8.59,2.44-15.91,6.06-19.82,14.39-4,8.51-1.34,16.44,2,24.36L539.55,489.5a48.92,48.92,0,0,0-2.57-7.29c-2.44-5.4-6.06-9.84-12-12.55-7.29-3.31-14.2-1.8-21,.83-1.13.44-2.27.92-3.4,1.4l-10.12-27.08-7.61-20.32L480,417,479,414.14Z"/><path class="cls-4" d="M627.92,409.5,632,420.23l-9.58,3.63-3.95-10.45c-9.7,3-19.93,3.5-26.76,1.38l.84-13.68a41.33,41.33,0,0,0,21.16-.25l-6.06-16c-11.61,1.44-24.83,2.4-30-11.3-3.85-10.15.22-21.66,14.7-29.12l-4-10.63,9.58-3.63,4,10.44c7.4-2.15,15.12-2.88,21.65-1.53l-.32,13.6a41.84,41.84,0,0,0-16.54.57l6.17,16.29c11.57-1.54,24.6-2.43,29.72,11.08C646.28,390.6,642.26,402,627.92,409.5ZM602.3,370.79l-5.16-13.6c-4.64,3.07-5.6,6.61-4.4,9.78C594,370.32,597.57,371.05,602.3,370.79Zm25.22,16.84c-1.27-3.35-4.74-4.12-9.4-4l5,13.21C627.51,394,628.68,390.69,627.52,387.63Z"/><path class="cls-3" d="M401.54,348.76l5.64,8,18.12,25.81,48.93,69.69-11.82-31.59-7.15-19.15-5.25-14-7.78-20.81-7-18.61a10.35,10.35,0,0,1,6.08-13.32l7.13-2.67q-1.55-2.26-3.38-4.49L497,291.19l33.13-23.27,84.18-59.09c4.64,7.34,9.83,13.86,19,15.43a5.62,5.62,0,0,0,.57.09,21.73,21.73,0,0,0,9.78-.79c4.63-1.45,8.78-4.25,12.81-7.32l21.19,30.19,9.93-3.71,7.58-2.84-45.75-65.17a10.35,10.35,0,0,0-14.43-2.53l-9.57,6.72-15,10.53-6.27,4.4L420.15,323.05l-7,4.88-9.13,6.4A10.36,10.36,0,0,0,401.54,348.76Z"/><path class="cls-3" d="M364.53,345.16l113,116-3.31-8.87L425.3,382.61,407.18,356.8l-5.64-8a10.36,10.36,0,0,1,2.52-14.43l9.13-6.4a39.75,39.75,0,0,0-9-10.57l148.1-144.28c5.76,6.5,11.92,12.1,21.27,12.19s15.68-5.4,21.58-11.61l15.36,15.77,15-10.53-44-45.12a10.37,10.37,0,0,0-14.65-.19L364.73,330.52A10.34,10.34,0,0,0,364.53,345.16Z"/><rect class="cls-5" x="288.09" y="224.59" width="252.65" height="407.2" rx="17.07" transform="translate(828.82 856.38) rotate(-180)"/><rect class="cls-2" x="288.83" y="224.59" width="234.81" height="407.2" rx="17.07" transform="translate(812.48 856.38) rotate(-180)"/><rect class="cls-6" x="380.97" y="257.28" width="13.38" height="280.88" rx="4.5" transform="translate(775.32 795.45) rotate(-180)"/><rect class="cls-6" x="323.01" y="269.17" width="13.38" height="22.29" rx="4.5" transform="translate(659.4 560.64) rotate(-180)"/><rect class="cls-6" x="323.01" y="316.73" width="13.38" height="22.29" rx="4.5" transform="translate(659.4 655.75) rotate(-180)"/><rect class="cls-6" x="440.88" y="284.04" width="59.45" height="83.22" rx="25.8" transform="translate(941.2 651.29) rotate(180)"/><rect class="cls-6" x="323.01" y="364.29" width="13.38" height="22.29" rx="4.5" transform="translate(659.4 750.87) rotate(-180)"/><rect class="cls-6" x="323.01" y="411.84" width="13.38" height="22.29" rx="4.5" transform="translate(659.4 845.98) rotate(-180)"/><path class="cls-2" d="M450,667.21c-3.35-6.71-26.84-71.6-29.08-91.73s-41.39-15.67-50.34,0,6.71,72.71,6.71,72.71c.89,8.36.48,18.87-5,28.53-5.36,9.39-10.76,9.58-16.78,20.14a53.67,53.67,0,0,0-6.71,29.08c1,13.92,8.34,28.38,8.39,28.53h0"/></g></g></svg>