<svg xmlns="http://www.w3.org/2000/svg" xmlns:xlink="http://www.w3.org/1999/xlink" viewBox="0 0 47.23 47.23"><defs><style>.cls-1{fill:url(#Degradado_sin_nombre);}.cls-2{fill:#fff;}.cls-3{fill:#ff4f10;}</style><linearGradient id="Degradado_sin_nombre" x1="7.87" y1="1069.74" x2="50.3" y2="1032.78" gradientTransform="translate(-4.69 -1028.32)" gradientUnits="userSpaceOnUse"><stop offset="0" stop-color="#001774"/><stop offset="1" stop-color="#0037f4"/></linearGradient></defs><title>bcp icono</title><g id="Capa_2" data-name="Capa 2"><g id="Capa_1-2" data-name="Capa 1"><rect class="cls-1" width="47.23" height="47.23" rx="9.69"/><path class="cls-2" d="M22.64,19.86a4.64,4.64,0,0,1,3.84-.69c.5.13,1.06.36,1.17.82a4.94,4.94,0,0,1-.25,1.14A3.24,3.24,0,0,0,25,20.59a2.56,2.56,0,0,0-1.85,1.48,3.18,3.18,0,0,0-.2,2.56,1.67,1.67,0,0,0,1.13,1A2.85,2.85,0,0,0,26.54,25c-.13.48-.19,1-.34,1.47s-.69.54-1.13.6a4,4,0,0,1-3.32-.79,3.42,3.42,0,0,1-.95-2.76,4.92,4.92,0,0,1,1.8-3.7"/><path class="cls-2" d="M14.82,19.21A15.26,15.26,0,0,1,17.44,19a3.93,3.93,0,0,1,2.3.68A1.6,1.6,0,0,1,20,21.94L19.9,22a2.68,2.68,0,0,1-1.45.82,1.91,1.91,0,0,1,1.13.77,2.16,2.16,0,0,1-.66,2.78,4.7,4.7,0,0,1-2.62.8A6.92,6.92,0,0,1,14.22,27a1.11,1.11,0,0,1-.76-.64,2.25,2.25,0,0,1,0-1.31c.45-1.93.87-3.88,1.32-5.81Zm1.64,1.19c-.12.55-.27,1.1-.37,1.65,0,.16.2.23.34.21a2.61,2.61,0,0,0,1.71-.43.81.81,0,0,0,.11-1.13,1,1,0,0,0-.22-.18,3.48,3.48,0,0,0-1.57-.11Zm-.7,3.11c-.16.54-.25,1.08-.38,1.6,0,.24-.17.49,0,.7a4.08,4.08,0,0,0,1.86-.28,1,1,0,0,0,.55-1.38.87.87,0,0,0-.22-.32,3.17,3.17,0,0,0-1.84-.32"/><path class="cls-2" d="M29,19.38a7.47,7.47,0,0,1,1.88-.2,5.61,5.61,0,0,1,2.56.4,1.83,1.83,0,0,1,1,1.38,3,3,0,0,1-1.84,3.16,5.71,5.71,0,0,1-2.86.38c-.16.62-.26,1.28-.43,1.84a1,1,0,0,1-.72.74H27.23c.61-2.55,1.15-5.11,1.75-7.67Zm1.74,1.16c-.17.75-.35,1.49-.5,2.24a.37.37,0,0,0,.23.35,2.26,2.26,0,0,0,1.38-.19,1.51,1.51,0,0,0,.76-2c-.38-.55-1.28-.45-1.87-.41"/><path class="cls-2" d="M35.29,21.1a2.56,2.56,0,0,1,1.27-1.38.85.85,0,0,1,.91.28,3.44,3.44,0,0,1,0,2.67,7.23,7.23,0,0,0-2.22-1.57"/><path class="cls-3" d="M37.51,20a5.51,5.51,0,0,1,1.85,1.54,1.9,1.9,0,0,1,.6,1.53,2.27,2.27,0,0,1-.66,1.28,9.63,9.63,0,0,1-2.37,1.89,1.73,1.73,0,0,1-1.27.27,2,2,0,0,1-1.28-1.06,6.1,6.1,0,0,0,3.08-2.78A3.48,3.48,0,0,0,37.51,20Z"/><path class="cls-2" d="M7.87,21a2.57,2.57,0,0,1,1.31-1.42.91.91,0,0,1,.94.29,3.52,3.52,0,0,1,0,2.74A7.57,7.57,0,0,0,7.85,21"/><path class="cls-3" d="M10.16,19.9a5.87,5.87,0,0,1,1.89,1.58,2,2,0,0,1,.63,1.57A2.42,2.42,0,0,1,12,24.36a10.12,10.12,0,0,1-2.42,1.95,1.86,1.86,0,0,1-1.32.27,2,2,0,0,1-1.31-1.09,6.25,6.25,0,0,0,3.15-2.85A3.48,3.48,0,0,0,10.16,19.9Z"/></g></g></svg>