<svg xmlns="http://www.w3.org/2000/svg" viewBox="0 0 173.23 251.1"><defs><style>.cls-1{fill:#1d2a37;}.cls-2{fill:#69b42d;}</style></defs><title>operaciones a nivel nacional</title><g id="Capa_2" data-name="Capa 2"><g id="Capa_1-2" data-name="Capa 1"><path class="cls-1" d="M169.16,190.91c3.6-12.06,8.5-28.5-3.82-36.17a2.63,2.63,0,0,0-.08-.3c-1.53-5.46-4.93-9.12-16.11-9.12H149c.08-1.36.35-3.17.54-4.42.78-5.25,1.59-10.68-2.52-13.57-3.91-2.76-8.64-.23-10.19.6-3.29,1.75-8,1.87-8.59.88a55.61,55.61,0,0,0-9.7-12.25A39.82,39.82,0,0,0,121,103.43a34.43,34.43,0,0,0-3.65-15.27c1.27-2.44,2.75-5.09,4.42-7.92,3.05-5.15,3.9-5.31,5.6-5.63,2.34-.45,5.86-1.12,11.14-5.43,1.09-.29,4.15,0,6,.26,4.58.51,8.91,1,11.89-1.67a6.85,6.85,0,0,0,2.26-5.2,16.76,16.76,0,0,0-1.53-6.92c-.79-1.92-1.36-3.31,3.2-10.71a5.3,5.3,0,0,0,.19-5.33c-1.85-3.46-5.67-3.61-15.9-4-5.1-.2-10.89-.42-15.91-1.11-7.07-1-8.76-2.38-9-2.65a30.92,30.92,0,0,1-4-6.11,94.8,94.8,0,0,0-17-22.48A11.45,11.45,0,0,0,84.82,1.59a12,12,0,0,0-5.91,13.32c1.87,7.72,1.06,9-6.9,17.8-4.28,4.76-8,5.42-12.38,6.19-4,.71-8.61,1.52-13,5.52S38.76,55.15,35.75,65.48c-.8-.8-1.68-1.76-2.38-2.51-4-4.38-9-9.83-15.74-10-3.62,0-7,1.46-10.14,4.52-2.37,2-7.62,7.18-7.49,13.9A13.62,13.62,0,0,0,4.38,81a17.69,17.69,0,0,0-.95,8c.46,2.89,2.22,6.85,8,9.23,2,.82,6.47,3.6,14.09,13.07a4.9,4.9,0,0,0,7.64-6.15c-6.86-8.52-12.91-13.9-18-16-2.38-1-2.61-1.35-1.36-5.49.65-2.15,1.87-6.15-1.46-8.71-1.67-1.28-2.53-2.52-2.55-3.68,0-2,2-4.54,4-6.24.25-.21.39-.35.43-.39,1.19-1.2,2.24-1.8,3.16-1.78,2.49,0,6.09,3.95,8.71,6.8,3.78,4.1,7.36,8,12.22,6.84s6.27-6.45,6.78-8.21c2.45-8.43,5.1-13.85,8.09-16.58,2.28-2.08,4.72-2.51,8.09-3.11,5.09-.9,11.42-2,18-9.29,8.75-9.72,12.18-14.17,9.14-26.67a2.19,2.19,0,0,1,1.19-2.46c.31-.17,1.37-.68,2.09,0a84.84,84.84,0,0,1,15.38,20.4,38.2,38.2,0,0,0,5.54,8.12c5.15,5.28,16.84,6.13,31.57,6.7,1.47.06,3.07.12,4.55.2-2.82,6-2.45,9.59-.73,13.78.08.2.16.4.24.58-.91-.07-1.9-.18-2.7-.27-4.77-.53-9.71-1.08-13.13,1.76s-5.15,3.18-6.93,3.52c-4.78.91-7.67,2.6-12.21,10.27q-1.23,2.08-2.31,4l-.33-.34a33.72,33.72,0,0,0-23.88-10h-.25a33.72,33.72,0,0,0-23.91,10A34.89,34.89,0,0,0,52.3,103.43c0,12.95,8.21,25.87,13.1,32.43,2.11,2.83,13.06,16.95,21.24,16.95s19.12-14.12,21.24-16.95a86.33,86.33,0,0,0,6.27-9.69,39.25,39.25,0,0,1,5.51,7.45c4,7.15,14.07,6.43,20.46,3.6-.1.79-.22,1.59-.31,2.24-.73,4.9-1.49,10,1.5,13.31a7.42,7.42,0,0,0,6,2.39c6.89-.27,8.19.91,8.2.91a6.46,6.46,0,0,1,.34,1,8.76,8.76,0,0,0,4,5.76c5.92,3.38,3.7,12.6-.07,25.25-2.73,9.14-5.09,17-1.77,22.57,2.1,3.49.95,10.22.46,13.09a14.08,14.08,0,0,0-.32,2.86c.11,3.83-.35,5.45-.57,6-.22,0-.49,0-.7.05a9.4,9.4,0,0,0-4,.88,6.75,6.75,0,0,0-3.65,5.67,6.45,6.45,0,0,1-.45,2.06c-.63,0-2.71-.38-6.88-3.31a54.56,54.56,0,0,1-8.22-7.14c-3.92-4.31-10.6-7.15-16.48-9.66-3-1.3-7.23-3.08-8.25-4.14-3.57-3.69-8.47-6.76-13.67-10-9.33-5.84-19-11.87-18.61-20.7.25-5.94-3.54-11.17-7.56-16.7-3.2-4.42-6.52-9-7.63-13.74A68.17,68.17,0,0,0,57,143.63a4.9,4.9,0,1,0-8.92,4.08A59.67,59.67,0,0,1,52,158.14c1.56,6.68,5.64,12.31,9.24,17.27,2.86,3.93,5.8,8,5.7,10.52-.63,14.53,12.59,22.8,23.22,29.44,4.67,2.91,9.08,5.67,11.81,8.5,2.4,2.48,6.59,4.27,11.45,6.34s10.59,4.52,13.08,7.25c.56.61,12.55,13.64,22.5,13.64a9.82,9.82,0,0,0,3.14-.49c2.48-.83,5.49-2.94,6.6-8.24,6.63-.89,9.5-5.83,9.25-15.81,0-.25.12-.74.18-1.15.73-4.28,2.25-13.18-1.72-19.78,0,0-.53-.94.06-4.41A91.76,91.76,0,0,1,169.16,190.91Zm-68.5-61.8c-6.19,8.54-12,13.12-14,13.84-2-.72-7.84-5.3-14-13.84-6.67-9.21-10.5-18.57-10.5-25.68a25.07,25.07,0,0,1,7.43-17.59,24,24,0,0,1,17-7.17h.18a24,24,0,0,1,17,7.17,25.07,25.07,0,0,1,7.43,17.59,33.26,33.26,0,0,1-2.87,12.35l0,.06A67.14,67.14,0,0,1,100.66,129.11Z"/><path class="cls-1" d="M86.64,88.72a14.72,14.72,0,1,0,14.71,14.71A14.74,14.74,0,0,0,86.64,88.72Zm0,19.62a4.91,4.91,0,1,1,4.9-4.91A4.91,4.91,0,0,1,86.64,108.34Z"/><path class="cls-2" d="M42,121.36h0a4.91,4.91,0,1,0,4.91,4.9A4.9,4.9,0,0,0,42,121.36Z"/></g></g></svg>