<svg xmlns="http://www.w3.org/2000/svg" viewBox="0 0 1921.5 398.38"><defs><style>.cls-1,.cls-2{fill:none;stroke:#3e566f;stroke-miterlimit:10;}.cls-1{stroke-width:2px;}.cls-2{stroke-width:2.5px;}</style></defs><title>Recurso 1</title><g id="Capa_2" data-name="Capa 2"><g id="Capa_1-2" data-name="Capa 1"><rect class="cls-1" x="292.93" y="358.5" width="502.84" height="38.75"/><path class="cls-1" d="M513.91,345.06H573.4a5.76,5.76,0,0,1,5.76,5.76v.93a0,0,0,0,1,0,0h-71a0,0,0,0,1,0,0v-.93A5.76,5.76,0,0,1,513.91,345.06Z"/><path class="cls-1" d="M521.18,339.2h44.94a4.68,4.68,0,0,1,4.68,4.68v.43a0,0,0,0,1,0,0h-54.3a0,0,0,0,1,0,0v-.43A4.68,4.68,0,0,1,521.18,339.2Z"/><path class="cls-1" d="M529.34,333.44H558a4.63,4.63,0,0,1,4.63,4.63v.43a0,0,0,0,1,0,0H524.7a0,0,0,0,1,0,0v-.43A4.63,4.63,0,0,1,529.34,333.44Z"/><rect class="cls-1" x="529.24" y="274.17" width="28.64" height="58.88"/><path class="cls-1" d="M527.64,271h31.83a0,0,0,0,1,0,0v.28a2.9,2.9,0,0,1-2.9,2.9h-26a2.9,2.9,0,0,1-2.9-2.9V271A0,0,0,0,1,527.64,271Z"/><path class="cls-1" d="M524.45,265.42h38.21a.78.78,0,0,1,.78.78v.47a4.31,4.31,0,0,1-4.31,4.31H528a4.31,4.31,0,0,1-4.31-4.31v-.47A.78.78,0,0,1,524.45,265.42Z"/><path class="cls-1" d="M559.07,261H528q.83,2.19,1.63,4.38h27.77Z"/><rect class="cls-1" x="532.42" y="278.15" width="3.18" height="51.72" rx="1.46"/><rect class="cls-1" x="538.78" y="278.15" width="3.18" height="51.72" rx="1.46"/><rect class="cls-1" x="545.15" y="278.15" width="3.18" height="51.72" rx="1.46"/><rect class="cls-1" x="551.51" y="278.15" width="3.18" height="51.72" rx="1.46"/><rect class="cls-1" x="289.75" y="352.14" width="510" height="6.37" rx="2.91"/><path class="cls-1" d="M495.39,238.36h95.54a.36.36,0,0,1,.36.36v1.88a20,20,0,0,1-20,20H515.05a20,20,0,0,1-20-20v-1.88A.36.36,0,0,1,495.39,238.36Z"/><path class="cls-1" d="M593.68,230.41v5a3,3,0,0,1-2.95,3H495.59a3,3,0,0,1-2.95-3v-5h11.93v4.05a3.1,3.1,0,0,0,3.1,3.11h4.14a3.1,3.1,0,0,0,3.1-3.11v-4.05h23.47v4.05a3.11,3.11,0,0,0,3.11,3.11h4.14a3.1,3.1,0,0,0,3.1-3.11v-4.05h21.88v4.05a3.1,3.1,0,0,0,3.1,3.11h4.14a3.1,3.1,0,0,0,3.1-3.11v-4.05Z"/><path class="cls-1" d="M594.48,227.56v1.72a1.14,1.14,0,0,1-1.13,1.13H581v-.08a3.11,3.11,0,0,0-3.1-3.11h-4.14a3.11,3.11,0,0,0-3.1,3.11v.08H548.73v-.08a3.11,3.11,0,0,0-3.1-3.11h-4.14a3.12,3.12,0,0,0-3.11,3.11v.08H514.91v-.08a3.11,3.11,0,0,0-3.1-3.11h-4.14a3.11,3.11,0,0,0-3.1,3.11v.08H493a1.14,1.14,0,0,1-1.13-1.13v-1.72a1.14,1.14,0,0,1,1.13-1.13H593.35A1.14,1.14,0,0,1,594.48,227.56Z"/><path class="cls-1" d="M571.24,162.18a12.51,12.51,0,0,1-12.53,12.53h-31.1a12.53,12.53,0,0,1-12.53-12.53h4.3a2.28,2.28,0,0,0,2.27,2.19H524a2.27,2.27,0,0,0,2.26-2.19h13.78a2.29,2.29,0,0,0,2.28,2.19h2.36a2.28,2.28,0,0,0,2.27-2.19h13a2.29,2.29,0,0,0,2.28,2.19h2.36a2.28,2.28,0,0,0,2.27-2.19Z"/><path class="cls-1" d="M513.69,159.62h5.7a.49.49,0,0,0,0,.12v2.44h-3.13A2.55,2.55,0,0,1,513.69,159.62Z"/><path class="cls-1" d="M526.28,159.62h13.79a.49.49,0,0,0,0,.12v2.44H526.28v-2.56Z"/><path class="cls-1" d="M547,159.62h13a.49.49,0,0,0,0,.12v2.44H547v-2.44A.49.49,0,0,0,547,159.62Z"/><path class="cls-1" d="M572.63,159.62a2.57,2.57,0,0,1-.75,1.81,2.51,2.51,0,0,1-1.81.75h-3.21v-2.44a.49.49,0,0,0,0-.12Z"/><path class="cls-1" d="M574.59,157.21a2.39,2.39,0,0,1-2.39,2.39h-5.35a2.27,2.27,0,0,0-2.26-2.14h-2.36A2.27,2.27,0,0,0,560,159.6H547a2.27,2.27,0,0,0-2.26-2.14h-2.36a2.27,2.27,0,0,0-2.27,2.14H526.28a2.27,2.27,0,0,0-2.26-2.14h-2.37a2.26,2.26,0,0,0-2.26,2.14h-5.27a2.39,2.39,0,1,1,0-4.78H572.2A2.39,2.39,0,0,1,574.59,157.21Z"/><rect class="cls-1" x="538.38" y="227.22" width="10.34" height="10.34" rx="3.1"/><rect class="cls-1" x="570.61" y="227.22" width="10.34" height="10.34" rx="3.1"/><rect class="cls-1" x="504.57" y="227.22" width="10.34" height="10.34" rx="3.1"/><rect class="cls-1" x="528.44" y="216.09" width="29.44" height="10.34"/><rect class="cls-1" x="531.62" y="200.17" width="23.07" height="13.53"/><rect class="cls-1" x="532.42" y="177.9" width="21.48" height="2.39"/><path class="cls-1" d="M552.31,191.42H534c-.27-2.39-.53-4.77-.8-7.16H553.1C552.84,186.65,552.57,189,552.31,191.42Z"/><rect class="cls-1" x="528.44" y="193.81" width="29.44" height="3.98" rx="1.82"/><rect class="cls-1" x="530.83" y="180.28" width="24.66" height="3.98" rx="1.82"/><path class="cls-1" d="M530.62,213.7h25.07a2.19,2.19,0,0,1,2.19,2.19v.2a0,0,0,0,1,0,0H528.44a0,0,0,0,1,0,0v-.2A2.19,2.19,0,0,1,530.62,213.7Z"/><path class="cls-1" d="M532.22,197.79H554.1a2.19,2.19,0,0,1,2.19,2.19v.2a0,0,0,0,1,0,0H530a0,0,0,0,1,0,0V200A2.19,2.19,0,0,1,532.22,197.79Z" transform="translate(1086.32 397.96) rotate(-180)"/><path class="cls-1" d="M532.94,174.71h20.43a2.91,2.91,0,0,1,2.91,2.91v.27a0,0,0,0,1,0,0H530a0,0,0,0,1,0,0v-.27A2.91,2.91,0,0,1,532.94,174.71Z" transform="translate(1086.32 352.61) rotate(-180)"/><path class="cls-1" d="M532.22,191.42H554.1a2.19,2.19,0,0,1,2.19,2.19v.2a0,0,0,0,1,0,0H530a0,0,0,0,1,0,0v-.2A2.19,2.19,0,0,1,532.22,191.42Z"/><path class="cls-1" d="M547,159.74v2.44a2.28,2.28,0,0,1-2.27,2.19h-2.36a2.29,2.29,0,0,1-2.28-2.19v-2.44a.49.49,0,0,1,0-.12,0,0,0,0,1,0,0,2.27,2.27,0,0,1,2.27-2.14h2.36A2.27,2.27,0,0,1,547,159.6a0,0,0,0,1,0,0A.49.49,0,0,1,547,159.74Z"/><path class="cls-1" d="M566.86,159.74v2.44a2.28,2.28,0,0,1-2.27,2.19h-2.36a2.29,2.29,0,0,1-2.28-2.19v-2.44a.49.49,0,0,1,0-.12,0,0,0,0,1,0,0,2.27,2.27,0,0,1,2.27-2.14h2.36a2.27,2.27,0,0,1,2.26,2.14,0,0,0,0,1,0,0A.49.49,0,0,1,566.86,159.74Z"/><path class="cls-1" d="M526.28,159.74v2.44a2.27,2.27,0,0,1-2.26,2.19h-2.37a2.28,2.28,0,0,1-2.27-2.19v-2.44a.49.49,0,0,1,0-.12,0,0,0,0,1,0,0,2.26,2.26,0,0,1,2.26-2.14H524a2.27,2.27,0,0,1,2.26,2.14v.14Z"/><path class="cls-1" d="M552.38,146v.25a1.67,1.67,0,0,1-1.66,1.67c-.27,2.29-.53,4.58-.8,6.87H536.4c-.27-2.29-.53-4.58-.8-6.87a1.67,1.67,0,0,1-1.66-1.67V146Z"/><rect class="cls-1" x="532.82" y="142.82" width="20.69" height="3.21" rx="1.47"/><path class="cls-1" d="M535.69,140.9h14.93a1.76,1.76,0,0,1,1.76,1.76v.16a0,0,0,0,1,0,0H533.93a0,0,0,0,1,0,0v-.16A1.76,1.76,0,0,1,535.69,140.9Z"/><path class="cls-1" d="M551.67,132.21v.23a1.56,1.56,0,0,1-1.53,1.58c-.25,2.16-.49,4.32-.74,6.48H536.92c-.25-2.16-.49-4.32-.74-6.48a1.56,1.56,0,0,1-1.53-1.58v-.23Z"/><rect class="cls-1" x="533.61" y="129.19" width="19.1" height="3.02" rx="1.38"/><path class="cls-1" d="M536,127h14.26a1.39,1.39,0,0,1,1.39,1.39v.5a.33.33,0,0,1-.33.33H535a.33.33,0,0,1-.33-.33v-.5A1.39,1.39,0,0,1,536,127Z"/><path class="cls-1" d="M532.41,123.94h21.49a2.78,2.78,0,0,1,2.78,2.78V127a0,0,0,0,1,0,0H529.63a0,0,0,0,1,0,0v-.26a2.78,2.78,0,0,1,2.78-2.78Z" transform="translate(1086.32 250.92) rotate(180)"/><path class="cls-1" d="M534.73,118.22h16.85a5.1,5.1,0,0,1,5.1,5.1v.47a0,0,0,0,1,0,0H529.63a0,0,0,0,1,0,0v-.47A5.1,5.1,0,0,1,534.73,118.22Z"/><rect class="cls-1" x="541.97" y="112.65" width="2.39" height="5.57"/><path class="cls-1" d="M542.8,112.65s-1.63-19.89-9.59-13.52-15.05,36.6-16.67,55.69"/><path class="cls-1" d="M513.09,159.36A162.61,162.61,0,0,0,510.4,178"/><path class="cls-1" d="M510.14,193.41v4"/><path class="cls-1" d="M510.14,200.57v4"/><path class="cls-1" d="M510.14,208.53v4"/><path class="cls-1" d="M510.14,216.48v4"/><path class="cls-1" d="M510.25,181.48l-.22,6.36"/><path class="cls-1" d="M492.4,230.17a162.44,162.44,0,0,0-2.68,18.64"/><path class="cls-1" d="M489.45,264.22v4"/><path class="cls-1" d="M489.45,271.38v4"/><path class="cls-1" d="M489.45,279.34v4"/><path class="cls-1" d="M489.45,287.29v4"/><path class="cls-1" d="M489.45,296.05v4"/><path class="cls-1" d="M489.45,304v4"/><path class="cls-1" d="M489.45,312v4"/><path class="cls-1" d="M489.45,323.1v4"/><path class="cls-1" d="M489.45,331.05v4"/><path class="cls-1" d="M489.45,339v4"/><path class="cls-1" d="M489.56,252.29l-.22,6.36"/><path class="cls-1" d="M543.52,112.65s1.63-19.89,9.58-13.52,15.06,36.6,16.68,55.69"/><path class="cls-1" d="M573.23,159.36A162.59,162.59,0,0,1,575.91,178"/><path class="cls-1" d="M576.18,193.41v4"/><path class="cls-1" d="M576.18,200.57v4"/><path class="cls-1" d="M576.18,208.53v4"/><path class="cls-1" d="M576.18,216.48v4"/><path class="cls-1" d="M576.07,181.48l.22,6.36"/><path class="cls-1" d="M593.91,230.17a160.29,160.29,0,0,1,2.69,18.64"/><path class="cls-1" d="M596.86,264.22v4"/><path class="cls-1" d="M596.86,271.38v4"/><path class="cls-1" d="M596.86,279.34v4"/><path class="cls-1" d="M596.86,287.29v4"/><path class="cls-1" d="M596.86,296.05v4"/><path class="cls-1" d="M596.86,304v4"/><path class="cls-1" d="M596.86,312v4"/><path class="cls-1" d="M596.86,323.1v4"/><path class="cls-1" d="M596.86,331.05v4"/><path class="cls-1" d="M596.86,339v4"/><path class="cls-1" d="M596.75,252.29l.22,6.36"/><path class="cls-2" d="M1043.27,323.57h0a20.82,20.82,0,0,1,20.82,20.82v52.47a0,0,0,0,1,0,0h-41.64a0,0,0,0,1,0,0V344.39A20.82,20.82,0,0,1,1043.27,323.57Z"/><path class="cls-2" d="M920,336.89h0a20.82,20.82,0,0,1,20.82,20.82v39.14a0,0,0,0,1,0,0H899.19a0,0,0,0,1,0,0V357.71A20.82,20.82,0,0,1,920,336.89Z"/><rect class="cls-2" x="910.85" y="268.6" width="18.32" height="26.65"/><rect class="cls-2" x="1030.78" y="233.62" width="24.98" height="33.31" rx="12.49"/><path class="cls-2" d="M972.48,294.42a2.5,2.5,0,0,0,2.5,2.5h2.5v99.93H860.88V250.28h116.6v41.64H975A2.49,2.49,0,0,0,972.48,294.42Z"/><rect class="cls-2" x="860.88" y="225.29" width="116.6" height="24.98"/><path class="cls-2" d="M852.78,218.63H985.59a.57.57,0,0,1,.31,1.05l-8.1,5.4H860.57l-8.11-5.4A.57.57,0,0,1,852.78,218.63Z"/><rect class="cls-2" x="865.88" y="148.67" width="106.6" height="51.64"/><rect class="cls-2" x="865.88" y="206.97" width="106.6" height="11.66"/><rect class="cls-2" x="862.55" y="135.35" width="113.26" height="13.33" rx="2.76"/><path class="cls-2" d="M974.15,203.61a3.33,3.33,0,0,1-1.67,2.89,3.29,3.29,0,0,1-1.7.47H867.58a3.35,3.35,0,0,1-.57-6.66H971.35a2.83,2.83,0,0,1,1.13.43,2.78,2.78,0,0,1,.68.5A3.26,3.26,0,0,1,974.15,203.61Z"/><path class="cls-2" d="M971.35,200.31H867a2.69,2.69,0,0,1,.57-.05h103.2A2.63,2.63,0,0,1,971.35,200.31Z"/><path class="cls-2" d="M928,171.79v28.52H910.05V171.79a9,9,0,0,1,17.93,0Z"/><path class="cls-2" d="M965.45,171.79v28.52H947.53V171.79a9,9,0,0,1,17.92,0Z"/><path class="cls-2" d="M1043.11,175.32h0a6.21,6.21,0,0,1,6.21,6.21v17.11a0,0,0,0,1,0,0H1036.9a0,0,0,0,1,0,0V181.54a6.21,6.21,0,0,1,6.21-6.21Z"/><path class="cls-2" d="M892.13,171.79v28.52H874.21V171.79a9,9,0,0,1,17.92,0Z"/><rect class="cls-2" x="874.54" y="91.12" width="89.28" height="44.23"/><rect class="cls-2" x="875.93" y="76.46" width="14.8" height="14.72"/><rect class="cls-2" x="890.27" y="76.46" width="14.8" height="14.72"/><path class="cls-2" d="M914,78.61a7.43,7.43,0,0,0-2.15,5.21,7.33,7.33,0,0,0,7.12,7.34,1,1,0,0,0,.24,0H904.61V76.46h14.57a1,1,0,0,0-.24,0A7.35,7.35,0,0,0,914,78.61Z"/><path class="cls-2" d="M919.42,76.48a1,1,0,0,0-.24,0h.24Z"/><path class="cls-2" d="M919.42,91.18h-.24a1,1,0,0,0,.24,0Z"/><path class="cls-2" d="M918.94,91.16a1,1,0,0,0,.24,0h-.24Z"/><path class="cls-2" d="M918.94,76.46h.24a1,1,0,0,0-.24,0Z"/><path class="cls-2" d="M933.76,76.46V91.18H919.18a1,1,0,0,0,.24,0,7.35,7.35,0,0,0,5-2.13,7.39,7.39,0,0,0,0-10.42,7.35,7.35,0,0,0-5-2.13,1,1,0,0,0-.24,0Z"/><rect class="cls-2" x="933.3" y="76.46" width="14.8" height="14.72"/><rect class="cls-2" x="947.63" y="76.46" width="14.8" height="14.72"/><path class="cls-2" d="M919,104h0a7.51,7.51,0,0,1,7.51,7.51v23.88a0,0,0,0,1,0,0h-15a0,0,0,0,1,0,0V111.46A7.51,7.51,0,0,1,919,104Z"/><path class="cls-2" d="M950.43,104h0a7.51,7.51,0,0,1,7.51,7.51v23.88a0,0,0,0,1,0,0h-15a0,0,0,0,1,0,0V111.46A7.51,7.51,0,0,1,950.43,104Z"/><path class="cls-2" d="M889,104h0a7.51,7.51,0,0,1,7.51,7.51v23.88a0,0,0,0,1,0,0h-15a0,0,0,0,1,0,0V111.46A7.51,7.51,0,0,1,889,104Z"/><path class="cls-2" d="M926.54,83.82A7.45,7.45,0,0,1,924.39,89a7.35,7.35,0,0,1-5,2.13,1,1,0,0,1-.24,0,1,1,0,0,1-.24,0,7.33,7.33,0,0,1-7.12-7.34A7.43,7.43,0,0,1,914,78.61a7.35,7.35,0,0,1,5-2.13,1,1,0,0,1,.24,0,1,1,0,0,1,.24,0,7.35,7.35,0,0,1,5,2.13A7.43,7.43,0,0,1,926.54,83.82Z"/><rect class="cls-2" x="904.46" y="65.42" width="9.2" height="11.04" rx="0.52"/><rect class="cls-2" x="924.7" y="65.42" width="9.2" height="11.04" rx="0.52"/><rect class="cls-2" x="906.76" y="59.9" width="4.6" height="5.52" rx="0.52"/><rect class="cls-2" x="927" y="59.9" width="4.6" height="5.52" rx="0.52"/><path class="cls-2" d="M951.85,60.85v3.61a.55.55,0,0,1,0,.18v0a1,1,0,0,1-.94.76H948.2a1,1,0,0,1-1-1V60.85a.94.94,0,0,1,1-1h2.69A1,1,0,0,1,951.85,60.85Z"/><path class="cls-2" d="M890.34,57.74V59.9h-3.05V57.74a1.53,1.53,0,0,1,3.05,0Z"/><path class="cls-2" d="M909.06,56.22h0a1.53,1.53,0,0,1,1.53,1.53V59.9a0,0,0,0,1,0,0h-3.07a0,0,0,0,1,0,0V57.75A1.53,1.53,0,0,1,909.06,56.22Z"/><path class="cls-2" d="M929.3,56.22h0a1.53,1.53,0,0,1,1.53,1.53V59.9a0,0,0,0,1,0,0h-3.07a0,0,0,0,1,0,0V57.75a1.53,1.53,0,0,1,1.53-1.53Z"/><rect class="cls-2" x="911.36" y="33.67" width="15.18" height="2.3" rx="1.15"/><rect class="cls-2" x="913.2" y="36.5" width="11.5" height="8.67"/><path class="cls-2" d="M916.65,26.77h4.6a3.45,3.45,0,0,1,3.45,3.45v3.44a0,0,0,0,1,0,0H913.21a0,0,0,0,1,0,0V30.22a3.45,3.45,0,0,1,3.45-3.45Z"/><path class="cls-2" d="M891.12,60.85v3.61a1,1,0,0,1-1,1h-2.69a1,1,0,0,1-.94-.76v0a1.09,1.09,0,0,1,0-.18V60.85a.94.94,0,0,1,1-1h2.69A1,1,0,0,1,891.12,60.85Z"/><path class="cls-2" d="M893.42,66.37V75.5a1,1,0,0,1-1,1h-7.29a1,1,0,0,1-.94-.76h0a1.21,1.21,0,0,1,0-.19V66.37a.94.94,0,0,1,.95-1h7.29A1,1,0,0,1,893.42,66.37Z"/><path class="cls-2" d="M885.17,76.46h-.95c0-.26,0-.5,0-.76A1,1,0,0,0,885.17,76.46Z"/><path class="cls-2" d="M887.47,65.42h-1.25a8.09,8.09,0,0,1,.31-.76A1,1,0,0,0,887.47,65.42Z"/><path class="cls-2" d="M951.07,57.74V59.9H948V57.74a1.53,1.53,0,0,1,3.05,0Z"/><path class="cls-2" d="M954.15,66.37V75.5a.62.62,0,0,1,0,.19h0a1,1,0,0,1-.94.76H945.9a1,1,0,0,1-1-1V66.37a1,1,0,0,1,1-1h7.29A1,1,0,0,1,954.15,66.37Z"/><path class="cls-2" d="M947.25,60.85v3.61a1,1,0,0,0,1,1h-2.3a1,1,0,0,0-1,1V75.5a1,1,0,0,0,1,1H892.46a1,1,0,0,0,1-1V66.37a1,1,0,0,0-1-1h-2.3a1,1,0,0,0,1-1V60.85a1,1,0,0,0-1-1h.18v-2a31.19,31.19,0,0,1,25.16-12.7h7.36A31.15,31.15,0,0,1,945,54.34a30,30,0,0,1,3,3.53v2h.18A.94.94,0,0,0,947.25,60.85Z"/><path class="cls-2" d="M951.83,64.66a6.07,6.07,0,0,1,.31.76h-1.25A1,1,0,0,0,951.83,64.66Z"/><path class="cls-2" d="M954.15,76.46h-1a1,1,0,0,0,.94-.76C954.15,76,954.15,76.2,954.15,76.46Z"/><rect class="cls-2" x="917.34" y="21.25" width="3.68" height="5.52"/><rect class="cls-2" x="882.54" y="295.25" width="74.95" height="3.33" rx="1.67"/><path class="cls-2" d="M1112.4,294.42a2.5,2.5,0,0,1-2.5,2.5H975a2.5,2.5,0,0,1,0-5H1109.9A2.49,2.49,0,0,1,1112.4,294.42Z"/><rect class="cls-2" x="972.48" y="206.97" width="139.91" height="5" rx="1.5"/><rect class="cls-2" x="984.14" y="274.14" width="116.6" height="4.46" rx="2.23"/><rect class="cls-2" x="1157.37" y="268.6" width="18.32" height="26.65"/><path class="cls-2" d="M1224,250.28V396.85H1107.4V296.92h2.5a2.5,2.5,0,0,0,0-5h-2.5V250.28Z"/><rect class="cls-2" x="1107.4" y="225.29" width="116.6" height="24.98"/><path class="cls-2" d="M1099.29,218.63H1232.1a.57.57,0,0,1,.32,1.05l-8.11,5.4H1107.08l-8.1-5.4A.57.57,0,0,1,1099.29,218.63Z"/><rect class="cls-2" x="1112.4" y="148.67" width="106.6" height="51.64"/><rect class="cls-2" x="1112.4" y="206.97" width="106.6" height="11.66"/><rect class="cls-2" x="1109.07" y="135.35" width="113.26" height="13.33" rx="2.76"/><path class="cls-2" d="M1220.66,203.61a3.35,3.35,0,0,1-3.36,3.36H1114.1a3.29,3.29,0,0,1-1.7-.47,2.87,2.87,0,0,1-.69-.51,3.36,3.36,0,0,1-1-2.38,3.28,3.28,0,0,1,1.67-2.87,2.83,2.83,0,0,1,1.13-.43h104.34a3.29,3.29,0,0,1,1.81.93A3.25,3.25,0,0,1,1220.66,203.61Z"/><path class="cls-2" d="M1217.87,200.31H1113.53a2.63,2.63,0,0,1,.57-.05h103.2A2.69,2.69,0,0,1,1217.87,200.31Z"/><path class="cls-2" d="M1174.49,171.79v28.52h-17.92V171.79a9,9,0,0,1,17.92,0Z"/><path class="cls-2" d="M1212,171.79v28.52h-17.92V171.79a9,9,0,0,1,17.92,0Z"/><path class="cls-2" d="M1138.65,171.79v28.52h-17.93V171.79a9,9,0,0,1,17.93,0Z"/><rect class="cls-2" x="1121.06" y="91.12" width="89.28" height="44.23"/><rect class="cls-2" x="1122.45" y="76.46" width="14.8" height="14.72"/><rect class="cls-2" x="1136.79" y="76.46" width="14.8" height="14.72"/><path class="cls-2" d="M1160.49,78.61a7.36,7.36,0,0,0,5,12.55.93.93,0,0,0,.24,0h-14.58V76.46h14.58a.93.93,0,0,0-.24,0A7.35,7.35,0,0,0,1160.49,78.61Z"/><path class="cls-2" d="M1165.94,76.48a1,1,0,0,0-.24,0h.24Z"/><path class="cls-2" d="M1165.94,91.18h-.24a1,1,0,0,0,.24,0Z"/><path class="cls-2" d="M1165.46,91.16a.93.93,0,0,0,.24,0h-.24Z"/><path class="cls-2" d="M1165.46,76.46h.24a.93.93,0,0,0-.24,0Z"/><path class="cls-2" d="M1180.27,76.46V91.18H1165.7a1,1,0,0,0,.24,0,7.35,7.35,0,0,0,5-2.13,7.39,7.39,0,0,0,0-10.42,7.35,7.35,0,0,0-5-2.13,1,1,0,0,0-.24,0Z"/><rect class="cls-2" x="1179.81" y="76.46" width="14.8" height="14.72"/><rect class="cls-2" x="1194.15" y="76.46" width="14.8" height="14.72"/><path class="cls-2" d="M1165.56,104h0a7.51,7.51,0,0,1,7.51,7.51v23.88a0,0,0,0,1,0,0h-15a0,0,0,0,1,0,0V111.46A7.51,7.51,0,0,1,1165.56,104Z"/><path class="cls-2" d="M1196.95,104h0a7.51,7.51,0,0,1,7.51,7.51v23.88a0,0,0,0,1,0,0h-15a0,0,0,0,1,0,0V111.46A7.51,7.51,0,0,1,1196.95,104Z"/><path class="cls-2" d="M1135.54,104h0a7.51,7.51,0,0,1,7.51,7.51v23.88a0,0,0,0,1,0,0h-15a0,0,0,0,1,0,0V111.46a7.51,7.51,0,0,1,7.51-7.51Z"/><path class="cls-2" d="M1173.06,83.82a7.45,7.45,0,0,1-2.15,5.21,7.35,7.35,0,0,1-5,2.13,1,1,0,0,1-.24,0,.93.93,0,0,1-.24,0,7.34,7.34,0,0,1,0-14.68.93.93,0,0,1,.24,0,1,1,0,0,1,.24,0,7.35,7.35,0,0,1,5,2.13A7.43,7.43,0,0,1,1173.06,83.82Z"/><rect class="cls-2" x="1150.98" y="65.42" width="9.2" height="11.04" rx="0.52"/><rect class="cls-2" x="1171.22" y="65.42" width="9.2" height="11.04" rx="0.52"/><rect class="cls-2" x="1153.28" y="59.9" width="4.6" height="5.52" rx="0.52"/><rect class="cls-2" x="1173.52" y="59.9" width="4.6" height="5.52" rx="0.52"/><path class="cls-2" d="M1198.36,60.85v3.61a.55.55,0,0,1,0,.18v0a1,1,0,0,1-.93.76h-2.69a1,1,0,0,1-1-1V60.85a1,1,0,0,1,1-1h2.69A.94.94,0,0,1,1198.36,60.85Z"/><path class="cls-2" d="M1136.86,57.74V59.9h-3V57.74a1.53,1.53,0,0,1,3,0Z"/><path class="cls-2" d="M1155.58,56.22h0a1.53,1.53,0,0,1,1.53,1.53V59.9a0,0,0,0,1,0,0H1154a0,0,0,0,1,0,0V57.75a1.53,1.53,0,0,1,1.53-1.53Z"/><path class="cls-2" d="M1175.82,56.22h0a1.53,1.53,0,0,1,1.53,1.53V59.9a0,0,0,0,1,0,0h-3.07a0,0,0,0,1,0,0V57.75A1.53,1.53,0,0,1,1175.82,56.22Z"/><rect class="cls-2" x="1157.88" y="33.67" width="15.18" height="2.3" rx="1.15"/><rect class="cls-2" x="1159.72" y="36.5" width="11.5" height="8.67"/><path class="cls-2" d="M1163.17,26.77h4.6a3.45,3.45,0,0,1,3.45,3.45v3.44a0,0,0,0,1,0,0h-11.48a0,0,0,0,1,0,0V30.22A3.45,3.45,0,0,1,1163.17,26.77Z"/><path class="cls-2" d="M1137.63,60.85v3.61a1,1,0,0,1-1,1H1134a1,1,0,0,1-.94-.76v0a.55.55,0,0,1,0-.18V60.85a1,1,0,0,1,1-1h2.69A.94.94,0,0,1,1137.63,60.85Z"/><path class="cls-2" d="M1139.93,66.37V75.5a1,1,0,0,1-1,1h-7.29a1,1,0,0,1-.94-.76h0a.62.62,0,0,1,0-.19V66.37a1,1,0,0,1,1-1H1139A.94.94,0,0,1,1139.93,66.37Z"/><path class="cls-2" d="M1131.69,76.46h-1c0-.26,0-.5,0-.76A1,1,0,0,0,1131.69,76.46Z"/><path class="cls-2" d="M1134,65.42h-1.25a6.07,6.07,0,0,1,.31-.76A1,1,0,0,0,1134,65.42Z"/><path class="cls-2" d="M1197.59,57.74V59.9h-3.06V57.74a1.53,1.53,0,0,1,3.06,0Z"/><path class="cls-2" d="M1200.66,66.37V75.5a.62.62,0,0,1,0,.19h0a1,1,0,0,1-.93.76h-7.29a1,1,0,0,1-1-1V66.37a1,1,0,0,1,1-1h7.29A.94.94,0,0,1,1200.66,66.37Z"/><path class="cls-2" d="M1193.76,60.85v3.61a1,1,0,0,0,1,1h-2.3a1,1,0,0,0-1,1V75.5a1,1,0,0,0,1,1H1139a1,1,0,0,0,1-1V66.37a.94.94,0,0,0-1-1h-2.3a1,1,0,0,0,1-1V60.85a.94.94,0,0,0-1-1h.18v-2A31.18,31.18,0,0,1,1162,45.17h7.36a31.15,31.15,0,0,1,22.12,9.17,30.84,30.84,0,0,1,3,3.53v2h.19A1,1,0,0,0,1193.76,60.85Z"/><path class="cls-2" d="M1198.34,64.66a8.2,8.2,0,0,1,.32.76h-1.25A1,1,0,0,0,1198.34,64.66Z"/><path class="cls-2" d="M1200.66,76.46h-1a1,1,0,0,0,.93-.76C1200.66,76,1200.66,76.2,1200.66,76.46Z"/><rect class="cls-2" x="1163.86" y="21.25" width="3.68" height="5.52"/><rect class="cls-2" x="1129.05" y="295.25" width="74.95" height="3.33" rx="1.67"/><rect class="cls-2" x="1122.39" y="316.61" width="88.28" height="3.92" rx="1.96"/><rect class="cls-2" x="875.87" y="316.61" width="88.28" height="3.92" rx="1.96"/><rect class="cls-2" x="1029.11" y="198.64" width="28.32" height="8.33"/><path class="cls-2" d="M1001.47,175.32h0a6.21,6.21,0,0,1,6.21,6.21v17.11a0,0,0,0,1,0,0H995.26a0,0,0,0,1,0,0V181.54A6.21,6.21,0,0,1,1001.47,175.32Z"/><rect class="cls-2" x="987.47" y="198.64" width="28.32" height="8.33"/><path class="cls-2" d="M1086.42,175.32h0a6.21,6.21,0,0,1,6.21,6.21v17.11a0,0,0,0,1,0,0H1080.2a0,0,0,0,1,0,0V181.54A6.21,6.21,0,0,1,1086.42,175.32Z"/><rect class="cls-2" x="1072.42" y="198.64" width="28.32" height="8.33"/><path class="cls-2" d="M1083.08,241.95h0a6.21,6.21,0,0,1,6.21,6.21v17.11a0,0,0,0,1,0,0h-12.43a0,0,0,0,1,0,0V248.16A6.21,6.21,0,0,1,1083.08,241.95Z"/><rect class="cls-2" x="1072.42" y="265.27" width="21.65" height="8.33"/><path class="cls-2" d="M1001.47,241.95h0a6.21,6.21,0,0,1,6.21,6.21v17.11a0,0,0,0,1,0,0H995.26a0,0,0,0,1,0,0V248.16A6.21,6.21,0,0,1,1001.47,241.95Z"/><rect class="cls-2" x="990.8" y="265.27" width="21.65" height="8.33"/><path class="cls-2" d="M1112.4,163.66v37.08a3.28,3.28,0,0,0-1.67,2.87,3.36,3.36,0,0,0,1,2.38,2.87,2.87,0,0,0,.69.51V207H972.48v-.47a3.33,3.33,0,0,0,1.67-2.89,3.26,3.26,0,0,0-1-2.37,2.78,2.78,0,0,0-.68-.5V163.66Z"/><path class="cls-2" d="M1025.12,153.67h34.64a6,6,0,0,1,6,6v4a0,0,0,0,1,0,0h-46.64a0,0,0,0,1,0,0v-4A6,6,0,0,1,1025.12,153.67Z"/><path class="cls-2" d="M1033.78,148.67h15.65a3,3,0,0,1,3,3v2a0,0,0,0,1,0,0h-21.65a0,0,0,0,1,0,0v-2A3,3,0,0,1,1033.78,148.67Z"/><path class="cls-2" d="M1039.82,135.35h3.58a.71.71,0,0,1,.71.71v12.44a.18.18,0,0,1-.18.18h-4.64a.18.18,0,0,1-.18-.18V136.06A.71.71,0,0,1,1039.82,135.35Z"/><path class="cls-2" d="M1079.08,158.67h1.67a5,5,0,0,1,5,5v0a0,0,0,0,1,0,0h-11.66a0,0,0,0,1,0,0v0A5,5,0,0,1,1079.08,158.67Z"/><path class="cls-2" d="M1078.44,148.67h3a.71.71,0,0,1,.71.71v9.11a.18.18,0,0,1-.18.18h-4a.18.18,0,0,1-.18-.18v-9.11A.71.71,0,0,1,1078.44,148.67Z"/><path class="cls-2" d="M1099.07,158.67h1.67a5,5,0,0,1,5,5v0a0,0,0,0,1,0,0h-11.66a0,0,0,0,1,0,0v0a5,5,0,0,1,5-5Z"/><path class="cls-2" d="M1098.43,148.67h3a.71.71,0,0,1,.71.71v9.11a.18.18,0,0,1-.18.18h-4a.18.18,0,0,1-.18-.18v-9.11A.71.71,0,0,1,1098.43,148.67Z"/><path class="cls-2" d="M984.14,158.67h1.67a5,5,0,0,1,5,5v0a0,0,0,0,1,0,0H979.14a0,0,0,0,1,0,0v0A5,5,0,0,1,984.14,158.67Z"/><path class="cls-2" d="M983.5,148.67h3a.71.71,0,0,1,.71.71v9.11a.18.18,0,0,1-.18.18h-4a.18.18,0,0,1-.18-.18v-9.11A.71.71,0,0,1,983.5,148.67Z"/><path class="cls-2" d="M1004.13,158.67h1.67a5,5,0,0,1,5,5v0a0,0,0,0,1,0,0H999.13a0,0,0,0,1,0,0v0A5,5,0,0,1,1004.13,158.67Z"/><path class="cls-2" d="M1003.49,148.67h3a.71.71,0,0,1,.71.71v9.11a.18.18,0,0,1-.18.18h-4a.18.18,0,0,1-.18-.18v-9.11A.71.71,0,0,1,1003.49,148.67Z"/><path class="cls-2" d="M1044.1,142.63V100.37l18.33,8.33-16.66,10"/><rect class="cls-2" x="977.48" y="296.92" width="129.92" height="99.94"/><rect class="cls-2" x="990.8" y="296.92" width="19.99" height="99.94"/><rect class="cls-2" x="945.83" y="320.6" width="11.66" height="76.26"/><rect class="cls-2" x="882.54" y="320.6" width="11.66" height="76.26"/><path class="cls-2" d="M1166.53,336.89h0a20.82,20.82,0,0,1,20.82,20.82v39.14a0,0,0,0,1,0,0h-41.64a0,0,0,0,1,0,0V357.71a20.82,20.82,0,0,1,20.82-20.82Z"/><rect class="cls-2" x="1192.35" y="320.6" width="11.66" height="76.26"/><rect class="cls-2" x="1129.05" y="320.6" width="11.66" height="76.26"/><rect class="cls-2" x="1075.75" y="296.92" width="19.99" height="99.94"/><rect class="cls-2" x="1300.54" y="315.98" width="292.8" height="80.99"/><path class="cls-2" d="M1593.45,303.75v12.32H1285.78l8.21-11.91,186.54-.26,18.39,0q19.49,0,38.95-.05h10.77l10.74,0h10.75Z"/><path class="cls-2" d="M1589.82,219.77h3.63v8.93H1285.78l18.59-24h29.49v7.11H1560v-7.11h29.49l7,9.66h-6.74Z"/><path class="cls-2" d="M1345.21,353.7h0a20.39,20.39,0,0,1,20.39,20.39v23a0,0,0,0,1,0,0h-40.77a0,0,0,0,1,0,0v-23A20.39,20.39,0,0,1,1345.21,353.7Z"/><path class="cls-2" d="M1412.71,353.7h0a20.39,20.39,0,0,1,20.39,20.39v23a0,0,0,0,1,0,0h-40.77a0,0,0,0,1,0,0v-23A20.39,20.39,0,0,1,1412.71,353.7Z"/><path class="cls-2" d="M1479.66,353.7h0A20.39,20.39,0,0,1,1500,374.09v23a0,0,0,0,1,0,0h-40.77a0,0,0,0,1,0,0v-23A20.39,20.39,0,0,1,1479.66,353.7Z"/><path class="cls-2" d="M1547.56,353.7h0a20.39,20.39,0,0,1,20.39,20.39v23a0,0,0,0,1,0,0h-40.77a0,0,0,0,1,0,0v-23A20.39,20.39,0,0,1,1547.56,353.7Z"/><path class="cls-2" d="M1560,175.81v36h-20.9v-7.11c-.15-5-5.47-9-12-9s-11.87,4-12,9a1.48,1.48,0,0,0,0,.21v6.9h-29.2v-7.11c-.15-5-5.48-9-12-9s-11.87,4-12,9a1.48,1.48,0,0,0,0,.21v6.9h-29.61v-6.9a1.48,1.48,0,0,0,0-.21c-.14-5-5.47-9-12-9s-11.87,4-12,9v7.11h-29.61v-6.9a1.48,1.48,0,0,0,0-.21c-.14-5-5.46-9-12-9s-11.87,4-12,9v7.11h-20.67v-36Z"/><rect class="cls-2" x="1333.87" y="211.77" width="226.16" height="16.9"/><path class="cls-2" d="M1560,157.42H1333.87l-10.38,18.39h245.82Z"/><path class="cls-2" d="M1378.58,204.87v6.9h-24v-7.11c.15-5,5.47-9,12-9s11.87,4,12,9A1.48,1.48,0,0,1,1378.58,204.87Z"/><rect class="cls-2" x="1354.54" y="211.77" width="24.04" height="16.46"/><path class="cls-2" d="M1432.23,204.87v6.9h-24v-7.11c.15-5,5.48-9,12-9s11.87,4,12,9A1.48,1.48,0,0,1,1432.23,204.87Z"/><rect class="cls-2" x="1408.19" y="211.77" width="24.04" height="16.46"/><path class="cls-2" d="M1485.88,204.87v6.9h-24v-6.9a1.48,1.48,0,0,1,0-.21c.14-5,5.47-9,12-9s11.87,4,12,9Z"/><rect class="cls-2" x="1461.84" y="211.77" width="24.04" height="16.46"/><path class="cls-2" d="M1539.12,204.87v6.9h-24v-6.9a1.48,1.48,0,0,1,0-.21c.14-5,5.46-9,12-9s11.87,4,12,9Z"/><rect class="cls-2" x="1515.08" y="211.77" width="24.04" height="16.46"/><rect class="cls-2" x="1333.87" y="211.77" width="11.92" height="16.72"/><rect class="cls-2" x="1345.79" y="211.77" width="11.91" height="16.72"/><rect class="cls-2" x="1357.7" y="211.77" width="11.92" height="16.72"/><rect class="cls-2" x="1369.62" y="211.77" width="11.91" height="16.72"/><rect class="cls-2" x="1381.53" y="211.77" width="11.92" height="16.72"/><rect class="cls-2" x="1393.45" y="211.77" width="11.91" height="16.72"/><rect class="cls-2" x="1405.37" y="211.77" width="11.92" height="16.72"/><rect class="cls-2" x="1417.29" y="211.77" width="11.92" height="16.72"/><rect class="cls-2" x="1429.21" y="211.77" width="11.91" height="16.72"/><rect class="cls-2" x="1441.12" y="211.77" width="11.92" height="16.72"/><rect class="cls-2" x="1453.04" y="211.77" width="11.91" height="16.72"/><rect class="cls-2" x="1464.96" y="211.77" width="11.92" height="16.72"/><rect class="cls-2" x="1476.88" y="211.77" width="11.92" height="16.72"/><rect class="cls-2" x="1488.79" y="211.77" width="11.91" height="16.72"/><rect class="cls-2" x="1500.71" y="211.77" width="11.92" height="16.72"/><rect class="cls-2" x="1512.63" y="211.77" width="11.91" height="16.72"/><rect class="cls-2" x="1524.54" y="211.77" width="11.92" height="16.72"/><rect class="cls-2" x="1536.46" y="211.77" width="11.91" height="16.72"/><rect class="cls-2" x="1548.38" y="211.77" width="11.92" height="16.72"/><rect class="cls-2" x="1300.54" y="228.49" width="292.8" height="75.25"/><path class="cls-2" d="M1339.76,260.47h0a16,16,0,0,1,16,16V303.9a0,0,0,0,1,0,0h-32.07a0,0,0,0,1,0,0V276.51a16,16,0,0,1,16-16Z"/><path class="cls-2" d="M1411.32,260.47h0a16,16,0,0,1,16,16V303.9a0,0,0,0,1,0,0h-32.07a0,0,0,0,1,0,0V276.51A16,16,0,0,1,1411.32,260.47Z"/><path class="cls-2" d="M1482.88,260.47h0a16,16,0,0,1,16,16V303.9a0,0,0,0,1,0,0h-32.07a0,0,0,0,1,0,0V276.51A16,16,0,0,1,1482.88,260.47Z"/><path class="cls-2" d="M1553.9,260.47h0a16,16,0,0,1,16,16V303.9a0,0,0,0,1,0,0h-32.07a0,0,0,0,1,0,0V276.51A16,16,0,0,1,1553.9,260.47Z"/><rect class="cls-2" x="1323.76" y="288.62" width="10.74" height="15.19"/><rect class="cls-2" x="1334.5" y="288.62" width="10.74" height="15.19"/><rect class="cls-2" x="1345.25" y="288.62" width="10.74" height="15.19"/><rect class="cls-2" x="1395.32" y="288.62" width="10.74" height="15.19"/><rect class="cls-2" x="1406.07" y="288.62" width="10.74" height="15.19"/><rect class="cls-2" x="1416.81" y="288.62" width="10.74" height="15.19"/><rect class="cls-2" x="1466.88" y="288.62" width="10.74" height="15.19"/><rect class="cls-2" x="1477.63" y="288.62" width="10.74" height="15.19"/><rect class="cls-2" x="1488.37" y="288.62" width="10.74" height="15.19"/><rect class="cls-2" x="1537.9" y="288.62" width="10.74" height="15.19"/><rect class="cls-2" x="1548.64" y="288.62" width="10.74" height="15.19"/><rect class="cls-2" x="1559.39" y="288.62" width="10.74" height="15.19"/><path class="cls-2" d="M1614.33,295.11h305.92V219.77h-326.8v177h56.28V347.41a9.63,9.63,0,0,1,9.63-9.63h18a9.63,9.63,0,0,1,9.63,9.63v49.37h233.3v-98H1614.33a1.83,1.83,0,0,1-1.82-1.82,1.84,1.84,0,0,1,1.82-1.82Zm15.89-37a6.77,6.77,0,0,1,6.76-6.77h18.55a6.77,6.77,0,0,1,6.76,6.77v21.38h.19v15.2h-.19v.08h-32.07Z"/><path class="cls-2" d="M1662.48,279.48v15.2h-.19v.08h-32.07V258.1a6.77,6.77,0,0,1,6.76-6.77h18.55a6.77,6.77,0,0,1,6.76,6.77v21.38Z"/><path class="cls-2" d="M1687,347.41v49.37h-37.22V347.41a9.63,9.63,0,0,1,9.63-9.63h18A9.63,9.63,0,0,1,1687,347.41Z"/><path class="cls-2" d="M1920.25,295.11v3.64H1614.33a1.83,1.83,0,0,1-1.82-1.82,1.84,1.84,0,0,1,1.82-1.82Z"/><polygon class="cls-2" points="1920.25 214.54 1920.25 219.77 1589.82 219.77 1589.82 214.32 1621.66 214.32 1621.66 214.54 1920.25 214.54"/><rect class="cls-2" x="1621.66" y="214.32" width="298.59" height="0.22"/><path class="cls-2" d="M1920.25,295.11v3.64H1614.33a1.83,1.83,0,0,1-1.82-1.82,1.84,1.84,0,0,1,1.82-1.82Z"/><path class="cls-2" d="M1662.29,258.1v36.66h-32.07V258.1a6.77,6.77,0,0,1,6.76-6.77h18.55A6.77,6.77,0,0,1,1662.29,258.1Z"/><rect class="cls-2" x="1630.25" y="279.49" width="10.74" height="15.19"/><rect class="cls-2" x="1641" y="279.49" width="10.74" height="15.19"/><rect class="cls-2" x="1651.74" y="279.48" width="10.74" height="15.2"/><path class="cls-2" d="M1717.55,251.34h17.18a7.44,7.44,0,0,1,7.44,7.44v36a0,0,0,0,1,0,0H1710.1a0,0,0,0,1,0,0v-36a7.44,7.44,0,0,1,7.44-7.44Z"/><rect class="cls-2" x="1710.14" y="279.49" width="10.74" height="15.19"/><rect class="cls-2" x="1720.88" y="279.49" width="10.74" height="15.19"/><rect class="cls-2" x="1731.62" y="279.49" width="10.74" height="15.19"/><path class="cls-2" d="M1796.52,251.34h17.18a7.44,7.44,0,0,1,7.44,7.44v36a0,0,0,0,1,0,0h-32.07a0,0,0,0,1,0,0v-36a7.44,7.44,0,0,1,7.44-7.44Z"/><rect class="cls-2" x="1789.11" y="279.49" width="10.74" height="15.19"/><rect class="cls-2" x="1799.86" y="279.49" width="10.74" height="15.19"/><rect class="cls-2" x="1810.6" y="279.49" width="10.74" height="15.19"/><path class="cls-2" d="M1876.41,251.34h17.18a7.44,7.44,0,0,1,7.44,7.44v36a0,0,0,0,1,0,0H1869a0,0,0,0,1,0,0v-36a7.44,7.44,0,0,1,7.44-7.44Z"/><rect class="cls-2" x="1869" y="279.49" width="10.74" height="15.19"/><rect class="cls-2" x="1879.74" y="279.49" width="10.74" height="15.19"/><rect class="cls-2" x="1890.48" y="279.49" width="10.74" height="15.19"/><path class="cls-2" d="M1920.25,137.74V190h-17.31V180c0-.1,0-.21,0-.31-.2-7.24-7.49-13.06-16.47-13.06s-16.26,5.82-16.46,13.06V190h-40V180c0-.1,0-.21,0-.31-.2-7.24-7.5-13.06-16.47-13.06s-16.25,5.82-16.45,13.06c0,.1,0,.21,0,.31v10h-40.58V180c0-.1,0-.21,0-.31-.2-7.24-7.5-13.06-16.47-13.06s-16.25,5.82-16.46,13.06c0,.1,0,.21,0,.31v10h-40.57V180c0-.1,0-.21,0-.31-.2-7.24-7.49-13.06-16.46-13.06s-16.26,5.82-16.46,13.06c0,.1,0,.21,0,.31v10h-28.34V137.74Z"/><rect class="cls-2" x="1621.66" y="189.98" width="298.59" height="24.56"/><path class="cls-2" d="M1920.25,103.6v34.14H1607.44q9.09-17.06,18.17-34.14Z"/><path class="cls-2" d="M1682.94,180v10h-33V180c0-.1,0-.2,0-.31.2-7.24,7.49-13.05,16.47-13.05s16.26,5.81,16.46,13.05C1682.94,179.76,1682.94,179.86,1682.94,180Z"/><rect class="cls-2" x="1649.99" y="189.98" width="32.95" height="23.92"/><path class="cls-2" d="M1756.46,180v10h-33V180c0-.1,0-.2,0-.31.2-7.24,7.5-13.05,16.47-13.05s16.26,5.81,16.46,13.05C1756.46,179.76,1756.46,179.86,1756.46,180Z"/><rect class="cls-2" x="1723.51" y="189.98" width="32.95" height="23.92"/><path class="cls-2" d="M1830,180v10H1797V180c0-.1,0-.2,0-.31.2-7.24,7.49-13.05,16.46-13.05s16.26,5.81,16.47,13.05Z"/><path class="cls-2" d="M1866.29,180v10h-32.94V180c0-.1,0-.2,0-.31.2-7.24,7.49-13.05,16.46-13.05s16.26,5.81,16.47,13.05Z"/><path class="cls-2" d="M1793.67,180v10h-32.94V179.65c.21-7.24,7.5-13.05,16.47-13.05s16.26,5.81,16.46,13.05C1793.67,179.76,1793.67,179.86,1793.67,180Z"/><rect class="cls-2" x="1797.04" y="189.98" width="32.95" height="23.92"/><path class="cls-2" d="M1902.94,180v10h-33V180c0-.1,0-.2,0-.31.2-7.24,7.5-13.05,16.46-13.05s16.27,5.81,16.47,13.05C1902.94,179.76,1902.94,179.86,1902.94,180Z"/><rect class="cls-2" x="1869.99" y="189.98" width="32.95" height="23.92"/><rect class="cls-2" x="1621.67" y="189.98" width="16.33" height="24.3"/><rect class="cls-2" x="1638" y="189.98" width="16.33" height="24.3"/><rect class="cls-2" x="1654.33" y="189.98" width="16.33" height="24.3"/><rect class="cls-2" x="1670.66" y="189.98" width="16.33" height="24.3"/><rect class="cls-2" x="1686.99" y="189.98" width="16.33" height="24.3"/><rect class="cls-2" x="1703.32" y="189.98" width="16.33" height="24.3"/><rect class="cls-2" x="1719.65" y="189.98" width="16.33" height="24.3"/><rect class="cls-2" x="1735.98" y="189.98" width="16.33" height="24.3"/><rect class="cls-2" x="1752.32" y="189.98" width="16.33" height="24.3"/><rect class="cls-2" x="1768.64" y="189.98" width="16.33" height="24.3"/><rect class="cls-2" x="1784.98" y="189.98" width="16.33" height="24.3"/><rect class="cls-2" x="1801.3" y="189.98" width="16.33" height="24.3"/><rect class="cls-2" x="1817.64" y="189.98" width="16.33" height="24.3"/><rect class="cls-2" x="1833.97" y="189.98" width="16.33" height="24.3"/><rect class="cls-2" x="1850.3" y="189.98" width="16.33" height="24.3"/><rect class="cls-2" x="1866.63" y="189.98" width="16.33" height="24.3"/><rect class="cls-2" x="1882.96" y="189.98" width="16.33" height="24.3"/><rect class="cls-2" x="1899.29" y="189.98" width="16.33" height="24.3"/><rect class="cls-2" x="1915.62" y="189.98" width="4.63" height="24.3"/><path class="cls-2" d="M1687,347.41v49.37h-37.22V347.41a9.63,9.63,0,0,1,9.63-9.63h18A9.63,9.63,0,0,1,1687,347.41Z"/><path class="cls-2" d="M1743.86,337.78h30.52A10.61,10.61,0,0,1,1785,348.39v48.39a0,0,0,0,1,0,0h-51.74a0,0,0,0,1,0,0V348.39A10.61,10.61,0,0,1,1743.86,337.78Z"/><path class="cls-2" d="M1834.64,337.78h30.52a10.61,10.61,0,0,1,10.61,10.61v48.39a0,0,0,0,1,0,0H1824a0,0,0,0,1,0,0V348.39A10.61,10.61,0,0,1,1834.64,337.78Z"/><rect class="cls-2" x="1.25" y="325.28" width="216.19" height="71.71"/><path class="cls-2" d="M230.52,325.37H1.25V314.51H7.33q17.24,0,34.48,0l16.28,0,165.16.22Z"/><path class="cls-2" d="M230.52,248H1.25V233H187.94v-6.29h26.12Z"/><path class="cls-2" d="M159.85,358.68H196a0,0,0,0,1,0,0v20.4a18,18,0,0,1-18,18h0a18,18,0,0,1-18-18v-20.4a0,0,0,0,1,0,0Z" transform="translate(355.8 755.81) rotate(180)"/><path class="cls-2" d="M100.09,358.68h36.1a0,0,0,0,1,0,0v20.4a18,18,0,0,1-18,18h0a18,18,0,0,1-18-18v-20.4A0,0,0,0,1,100.09,358.68Z" transform="translate(236.28 755.81) rotate(-180)"/><path class="cls-2" d="M40.81,358.68h36.1a0,0,0,0,1,0,0v20.4a18,18,0,0,1-18,18h0a18,18,0,0,1-18-18v-20.4a0,0,0,0,1,0,0Z" transform="translate(117.72 755.81) rotate(180)"/><path class="cls-2" d="M16.8,376.73v20.4H1.25V358.86A18,18,0,0,1,16.8,376.73Z"/><path class="cls-2" d="M187.94,201.18V233h-18.3v-6.11a1.28,1.28,0,0,0,0-.19c-.13-4.41-4.84-7.95-10.64-7.95s-10.5,3.54-10.63,7.95a1.28,1.28,0,0,0,0,.19V233H122.14v-6.3c-.14-4.41-4.85-7.95-10.64-7.95s-10.51,3.54-10.64,7.95V233H74.64v-6.11a1.28,1.28,0,0,0,0-.19c-.13-4.41-4.84-7.95-10.63-7.95s-10.51,3.54-10.64,7.95a1.28,1.28,0,0,0,0,.19V233H27.5v-6.3c-.14-4.41-4.85-7.95-10.64-7.95s-10.51,3.54-10.64,7.95a1.28,1.28,0,0,0,0,.19V233h-5V201.18Z"/><rect class="cls-2" x="1.25" y="233.02" width="186.69" height="14.96"/><path class="cls-2" d="M197.13,201.18H1.25V184.9H187.94Z"/><path class="cls-2" d="M148.35,226.91V233h21.29v-6.11a1.28,1.28,0,0,0,0-.19c-.13-4.41-4.84-7.95-10.64-7.95s-10.5,3.54-10.63,7.95A1.28,1.28,0,0,0,148.35,226.91Z"/><rect class="cls-2" x="148.35" y="233.02" width="21.29" height="14.58"/><path class="cls-2" d="M100.86,226.91V233h21.28v-6.3c-.14-4.41-4.85-7.95-10.64-7.95s-10.51,3.54-10.64,7.95Z"/><rect class="cls-2" x="100.86" y="233.02" width="21.29" height="14.58"/><path class="cls-2" d="M53.35,226.91V233H74.64v-6.11a1.28,1.28,0,0,0,0-.19c-.13-4.41-4.84-7.95-10.63-7.95s-10.51,3.54-10.64,7.95A1.28,1.28,0,0,0,53.35,226.91Z"/><rect class="cls-2" x="53.35" y="233.02" width="21.29" height="14.58"/><path class="cls-2" d="M6.21,226.91V233H27.5v-6.3c-.14-4.41-4.85-7.95-10.64-7.95s-10.51,3.54-10.64,7.95A1.28,1.28,0,0,0,6.21,226.91Z"/><rect class="cls-2" x="6.21" y="233.02" width="21.29" height="14.58"/><rect class="cls-2" x="177.39" y="233.02" width="10.55" height="14.81"/><rect class="cls-2" x="166.84" y="233.02" width="10.55" height="14.81"/><rect class="cls-2" x="156.29" y="233.02" width="10.55" height="14.81"/><rect class="cls-2" x="145.74" y="233.02" width="10.55" height="14.81"/><rect class="cls-2" x="135.18" y="233.02" width="10.55" height="14.81"/><rect class="cls-2" x="124.64" y="233.02" width="10.55" height="14.81"/><rect class="cls-2" x="114.08" y="233.02" width="10.55" height="14.81"/><rect class="cls-2" x="103.53" y="233.02" width="10.55" height="14.81"/><rect class="cls-2" x="92.98" y="233.02" width="10.55" height="14.81"/><rect class="cls-2" x="82.43" y="233.02" width="10.55" height="14.81"/><rect class="cls-2" x="71.88" y="233.02" width="10.55" height="14.81"/><rect class="cls-2" x="61.33" y="233.02" width="10.55" height="14.81"/><rect class="cls-2" x="50.77" y="233.02" width="10.55" height="14.81"/><rect class="cls-2" x="40.23" y="233.02" width="10.55" height="14.81"/><rect class="cls-2" x="29.67" y="233.02" width="10.55" height="14.81"/><rect class="cls-2" x="19.12" y="233.02" width="10.55" height="14.81"/><rect class="cls-2" x="8.57" y="233.02" width="10.55" height="14.81"/><rect class="cls-2" x="1.25" y="233.02" width="7.32" height="14.8"/><rect class="cls-2" x="1.25" y="247.82" width="216.19" height="66.63"/><path class="cls-2" d="M168.53,276.14h28.39a0,0,0,0,1,0,0v24.25a14.2,14.2,0,0,1-14.2,14.2h0a14.2,14.2,0,0,1-14.2-14.2V276.14A0,0,0,0,1,168.53,276.14Z" transform="translate(365.44 590.73) rotate(-180)"/><path class="cls-2" d="M105.17,276.14h28.39a0,0,0,0,1,0,0v24.25a14.2,14.2,0,0,1-14.2,14.2h0a14.2,14.2,0,0,1-14.2-14.2V276.14A0,0,0,0,1,105.17,276.14Z" transform="translate(238.73 590.73) rotate(-180)"/><path class="cls-2" d="M41.81,276.14H70.2a0,0,0,0,1,0,0v24.25A14.2,14.2,0,0,1,56,314.59h0a14.2,14.2,0,0,1-14.2-14.2V276.14A0,0,0,0,1,41.81,276.14Z" transform="translate(112.01 590.73) rotate(180)"/><path class="cls-2" d="M7.33,290.33v24.26H1.25v-35.9A14.17,14.17,0,0,1,7.33,290.33Z"/><rect class="cls-2" x="187.38" y="301.06" width="9.51" height="13.45" transform="translate(384.26 615.57) rotate(-180)"/><rect class="cls-2" x="177.86" y="301.06" width="9.51" height="13.45" transform="translate(365.24 615.57) rotate(-180)"/><rect class="cls-2" x="168.35" y="301.06" width="9.51" height="13.45" transform="translate(346.22 615.57) rotate(-180)"/><rect class="cls-2" x="124.02" y="301.06" width="9.51" height="13.45" transform="translate(257.55 615.57) rotate(-180)"/><rect class="cls-2" x="114.51" y="301.06" width="9.51" height="13.45" transform="translate(238.53 615.57) rotate(-180)"/><rect class="cls-2" x="105" y="301.06" width="9.51" height="13.45" transform="translate(219.5 615.57) rotate(-180)"/><rect class="cls-2" x="60.66" y="301.06" width="9.51" height="13.45" transform="translate(130.83 615.57) rotate(-180)"/><rect class="cls-2" x="51.15" y="301.06" width="9.51" height="13.45" transform="translate(111.81 615.57) rotate(-180)"/><rect class="cls-2" x="41.64" y="301.06" width="9.51" height="13.45" transform="translate(92.79 615.57) rotate(-180)"/><rect class="cls-2" x="1.25" y="301.06" width="6.05" height="13.45"/><path class="cls-2" d="M322.75,52.25h-19c-2,0-7.5,1-7.5,7.5s6.5,6.5,6.5,6.5h50s6,0,6-8a2,2,0,0,1,2-2h16s6.5,0,6.5-6.5-6.5-6.5-6.5-6.5h-48s-4,0-4,4S323.75,52.25,322.75,52.25Z"/><path class="cls-2" d="M205.25,22.75c0,6.5-6.5,6.5-6.5,6.5h-25a2,2,0,0,0-2,2c0,8-6,8-6,8h-50s-6.5,0-6.5-6.5,5.5-7.5,7.5-7.5h19a3.92,3.92,0,0,0,3-2,3.47,3.47,0,0,0,0-3,3.12,3.12,0,0,0-.9-1h-13.1s-6.5,0-6.5-6.5,6.5-6.5,6.5-6.5h48s4,0,4,4,1,5,2,5h19C199.75,15.25,205.25,16.25,205.25,22.75Z"/><path class="cls-2" d="M1318.75,81.25h19c2,0,7.5,1,7.5,7.5s-6.5,6.5-6.5,6.5h-50s-6,0-6-8a2,2,0,0,0-2-2h-16s-6.5,0-6.5-6.5,6.5-6.5,6.5-6.5h48s4,0,4,4S1317.75,81.25,1318.75,81.25Z"/><path class="cls-2" d="M694.75,95.25h19c2,0,7.5,1,7.5,7.5s-6.5,6.5-6.5,6.5h-50s-6,0-6-8a2,2,0,0,0-2-2h-16s-6.5,0-6.5-6.5,6.5-6.5,6.5-6.5h48s4,0,4,4S693.75,95.25,694.75,95.25Z"/><path class="cls-2" d="M861.25,27.75c0,6.5-6.5,6.5-6.5,6.5H825.39a6.74,6.74,0,0,1,.86,3.5c0,6.5-6.5,6.5-6.5,6.5h-48s-4,0-4-4-1-5-2-5h-19c-2,0-7.5-1-7.5-7.5s6.5-6.5,6.5-6.5h20.36a6.74,6.74,0,0,1-.86-3.5c0-6.5,5.5-7.5,7.5-7.5h19c1,0,2-1,2-5s4-4,4-4h48s6.5,0,6.5,6.5-6.5,6.5-6.5,6.5h-13.1a3.12,3.12,0,0,0-.9,1,3.47,3.47,0,0,0,0,3,3.92,3.92,0,0,0,3,2h19C855.75,20.25,861.25,21.25,861.25,27.75Z"/><path class="cls-2" d="M1716.25,34.75c0,6.5,6.5,6.5,6.5,6.5h29.36a6.74,6.74,0,0,0-.86,3.5c0,6.5,6.5,6.5,6.5,6.5h48s4,0,4-4,1-5,2-5h19c2,0,7.5-1,7.5-7.5s-6.5-6.5-6.5-6.5h-20.36a6.74,6.74,0,0,0,.86-3.5c0-6.5-5.5-7.5-7.5-7.5h-19c-1,0-2-1-2-5s-4-4-4-4h-48s-6.5,0-6.5,6.5,6.5,6.5,6.5,6.5h13.1a3.12,3.12,0,0,1,.9,1,3.47,3.47,0,0,1,0,3,3.92,3.92,0,0,1-3,2h-19C1721.75,27.25,1716.25,28.25,1716.25,34.75Z"/><path class="cls-2" d="M1436.25,51.75c0,6.5,6.5,6.5,6.5,6.5h25a2,2,0,0,1,2,2c0,8,6,8,6,8h50s6.5,0,6.5-6.5-5.5-7.5-7.5-7.5h-19a3.92,3.92,0,0,1-3-2,3.47,3.47,0,0,1,0-3,3.12,3.12,0,0,1,.9-1h13.1s6.5,0,6.5-6.5-6.5-6.5-6.5-6.5h-48s-4,0-4,4-1,5-2,5h-19C1441.75,44.25,1436.25,45.25,1436.25,51.75Z"/></g></g></svg>