<svg xmlns="http://www.w3.org/2000/svg" viewBox="0 0 252.7 242.57"><defs><style>.cls-1{fill:#1d2a37;}.cls-2{fill:#69b42d;}</style></defs><title>rapidez</title><g id="Capa_2" data-name="Capa 2"><g id="Capa_1-2" data-name="Capa 1"><path class="cls-1" d="M252.22,133a99.62,99.62,0,0,0-77.47-87.35V33.07A16.78,16.78,0,0,0,170.7,0H135.16a16.78,16.78,0,0,0-4,33.07V45.64a99.71,99.71,0,0,0-57,36.25l-.38,0H38.58a4.94,4.94,0,1,0,0,9.87H67.41a98.84,98.84,0,0,0-8.76,19H4.94a4.94,4.94,0,1,0,0,9.87H55.86a100.57,100.57,0,0,0-2.45,19H31.59a4.94,4.94,0,0,0,0,9.88h22a101.28,101.28,0,0,0,3.08,19h-32a4.94,4.94,0,1,0,0,9.87H59.8a99.69,99.69,0,0,0,83.35,63.82q4.89.48,9.78.48a99.9,99.9,0,0,0,54.41-16.08,4.93,4.93,0,1,0-5.38-8.27,89.83,89.83,0,1,1,26.45-26.49,4.94,4.94,0,1,0,8.28,5.38A100.08,100.08,0,0,0,252.22,133Zm-124-116.18a6.92,6.92,0,0,1,6.91-6.91H170.7a6.91,6.91,0,1,1,0,13.82H135.16A6.92,6.92,0,0,1,128.25,16.78ZM141,43.94V33.56h23.9V43.93A100.57,100.57,0,0,0,141,43.94Z"/><path class="cls-2" d="M220,205a4.92,4.92,0,1,0,3.49,1.44A5,5,0,0,0,220,205Z"/><path class="cls-1" d="M153,66.31a76.57,76.57,0,1,0,76.57,76.57A76.66,76.66,0,0,0,153,66.31Zm0,143.26a66.7,66.7,0,1,1,66.7-66.69A66.77,66.77,0,0,1,153,209.57Z"/><path class="cls-1" d="M184.23,104.68l-24.45,24.44a15.32,15.32,0,0,0-13.55,0l-10.94-10.94a4.94,4.94,0,0,0-7,7l10.94,10.94a15.34,15.34,0,1,0,27.51,0l23.73-23.73.72-.71a4.94,4.94,0,0,0-7-7ZM153,148.34a5.47,5.47,0,1,1,5.46-5.46A5.47,5.47,0,0,1,153,148.34Z"/><path class="cls-1" d="M205.78,138H201.2a4.94,4.94,0,0,0,0,9.87h4.58a4.94,4.94,0,0,0,0-9.87Z"/><path class="cls-1" d="M104.81,137.88h-4.57a4.94,4.94,0,1,0,0,9.87h4.57a4.94,4.94,0,1,0,0-9.87Z"/><path class="cls-1" d="M153.07,99.61A4.93,4.93,0,0,0,158,94.68V90.1a4.94,4.94,0,0,0-9.87,0v4.58A4.94,4.94,0,0,0,153.07,99.61Z"/><path class="cls-1" d="M152.94,186.14a4.94,4.94,0,0,0-4.93,4.94v4.57a4.94,4.94,0,0,0,9.87,0v-4.57A4.94,4.94,0,0,0,152.94,186.14Z"/><path class="cls-2" d="M4.94,168.39a4.94,4.94,0,1,0,3.48,8.43,4.94,4.94,0,0,0-3.48-8.43Z"/></g></g></svg>