<svg xmlns="http://www.w3.org/2000/svg" viewBox="0 0 174.89 227.42"><defs><style>.cls-1{fill:#fff;}</style></defs><title>Registrados en la SBS</title><g id="Capa_2" data-name="Capa 2"><g id="Capa_1-2" data-name="Capa 1"><path class="cls-1" d="M43.83,227.42c-3.79-1.84-4.92-4.91-4.89-9,.13-20.42,0-40.85.1-61.28,0-1.7-.34-2.37-2.22-2.62-9.76-1.25-15.78-7.62-16.52-17.61-.37-5-.37-10-.29-15.08a14.1,14.1,0,0,0-4.75-11c-3.12-3-6.2-6-9.08-9.14-8.24-9.14-8.24-19.09,0-28.22,3-3.34,6.3-6.47,9.53-9.62A13.1,13.1,0,0,0,20,53.93c0-5-.07-10.07.26-15.08.73-11,6.85-17.35,17.91-18.4A147.75,147.75,0,0,1,53,20.09a13.84,13.84,0,0,0,10.72-4.42C66.93,12.35,70.13,9,73.58,6c9-8,18.43-8,27.57-.14,3.52,3,6.76,6.43,10,9.8a14,14,0,0,0,10.73,4.43c5.18,0,10.39-.05,15.55.41,10.08.91,16.51,7.55,17.19,17.67.34,5,.35,10.06.27,15.08a14.08,14.08,0,0,0,4.76,11c3.07,2.89,6.09,5.85,8.93,9,8.44,9.3,8.45,19.25,0,28.55-3,3.34-6.31,6.47-9.54,9.63a12.75,12.75,0,0,0-4.1,9.49c0,5.1,0,10.21-.26,15.3-.61,10.57-6.58,17-17,18.32-2,.25-1.74,1.31-1.74,2.57,0,20.43-.07,40.85.06,61.28,0,4.1-1.1,7.18-4.89,9H127.5Q108,219.05,88.39,210.74a3.73,3.73,0,0,0-2.5.25c-3.57,1.43-7.09,3-10.63,4.47l-27.87,12ZM141.39,49.27h-.09c0-3.4.17-6.81-.05-10.2-.23-3.63-1.47-5-5.07-5.26a104.74,104.74,0,0,0-12.65-.34,28.38,28.38,0,0,1-23.33-9.81,94.5,94.5,0,0,0-8.08-7.93c-3.63-3.16-5.74-3.15-9.36,0a96.12,96.12,0,0,0-8.08,7.94,28.39,28.39,0,0,1-23.55,9.79,90.56,90.56,0,0,0-12,.3c-4.17.37-5.33,1.59-5.55,5.76-.28,5.32-.24,10.65-.36,16a23.82,23.82,0,0,1-7,16.55c-2.89,3-5.92,5.82-8.79,8.81-5.33,5.52-5.33,7.88,0,13.42,3,3.09,6.12,6,9.09,9.13a23.39,23.39,0,0,1,6.68,16c.16,5.55.12,11.1.42,16.63.2,3.63,1.47,5,5.08,5.26a114.46,114.46,0,0,0,13.09.36c9.23-.34,16.73,3,22.89,9.79a99.15,99.15,0,0,0,8.07,7.94c3.62,3.15,5.76,3.15,9.37,0a97.54,97.54,0,0,0,8.07-7.94,28.3,28.3,0,0,1,23.33-9.79,99.14,99.14,0,0,0,12.43-.33c3.9-.34,5.08-1.62,5.32-5.51s.33-8,.18-12c-.37-9.38,2.69-17.23,9.8-23.5,2.27-2,4.41-4.19,6.49-6.39,4.93-5.23,4.94-7.56,0-12.77-3.06-3.23-6.32-6.26-9.39-9.47a22.61,22.61,0,0,1-6.45-13.35C141.57,55.34,141.55,52.29,141.39,49.27Zm-19,105.84c-3.72-.22-7.07.34-9.76,3s-5.46,5.65-8.37,8.28a51.26,51.26,0,0,1-7.83,6.14c-5.62,3.36-11.62,3.59-17.35.32a50,50,0,0,1-8.27-6.27c-3-2.7-5.77-5.75-8.71-8.57-2.69-2.59-6-3.1-9.59-2.85v55.44c.88-.35,1.57-.6,2.24-.88,9.68-4.11,19.37-8.17,29-12.35a8.56,8.56,0,0,1,7.27,0c7,3,14,6,21,9l10.32,4.37Z"/><path class="cls-1" d="M87.46,135A48,48,0,1,1,135.4,87.05,48.16,48.16,0,0,1,87.46,135Zm0-13.32A34.64,34.64,0,1,0,52.84,87,34.79,34.79,0,0,0,87.46,121.68Z"/><path class="cls-1" d="M83,86.83c4.39-4.41,8.28-8.38,12.23-12.27A6.46,6.46,0,0,1,103,73.22,6.23,6.23,0,0,1,106.51,80a8.51,8.51,0,0,1-2.05,4c-5.35,5.54-10.83,11-16.32,16.35-3.06,3-6.8,3-9.87,0q-4.08-3.93-8-8a6.64,6.64,0,1,1,9.44-9.33C80.8,84.16,81.74,85.42,83,86.83Z"/></g></g></svg>