<svg xmlns="http://www.w3.org/2000/svg" viewBox="0 0 190.53 227.13"><defs><style>.cls-1{fill:#fff;}</style></defs><title>Seguridad al cambiar</title><g id="Capa_2" data-name="Capa 2"><g id="Capa_1-2" data-name="Capa 1"><path class="cls-1" d="M96.91,0a73.46,73.46,0,0,1,6.33,4.69A103.24,103.24,0,0,0,161,31.5c6.52.84,13.11,1.12,19.68,1.44s9.42,3.08,9.48,9.6c.13,14.79.47,29.59.33,44.39-.18,17.86-1.9,35.57-6.54,52.91-9.44,35.3-30.83,60.88-63.32,77.23-7.17,3.61-14.72,6.5-22.2,9.43a9.4,9.4,0,0,1-6,.25c-16.88-5.81-32.69-13.67-46.67-25-19.07-15.42-31.57-35.14-38.51-58.53a174.48,174.48,0,0,1-7-45.68C-.19,78.79.09,60,.14,41.21.15,36.27,3.4,33.28,8.7,33c5.68-.31,11.39-.41,17-1C49,29.52,69.5,20.69,86.87,4.84A77.55,77.55,0,0,1,93.36,0ZM16.05,49.1c0,.72-.1,1.45-.11,2.18-.13,9.62-.31,19.23-.34,28.85,0,16.74.89,33.39,4.48,49.82,4.33,19.8,12.81,37.39,27.2,51.88,13.34,13.44,29.51,22.28,47.11,28.75a3,3,0,0,0,2.08-.2c8.28-3.87,16.84-7.29,24.75-11.83a97.57,97.57,0,0,0,39.64-41.64c8.73-17.46,12.28-36.24,13.13-55.46.74-16.76.28-33.57.34-50.36,0-.71-.1-1.43-.15-2.12-5.73-.65-11.32-1.16-16.87-1.92a115.75,115.75,0,0,1-60-26.52c-1.67-1.41-2.63-1.47-4.34,0A114.35,114.35,0,0,1,37.81,46.26C30.69,47.5,23.47,48.15,16.05,49.1Z"/><path class="cls-1" d="M84.19,124.4c12.62-12.63,25.07-25.07,37.49-37.53,1.67-1.67,3.46-3,5.93-3.09a7.89,7.89,0,0,1,6.82,12.67,19.62,19.62,0,0,1-2,2.13L91.08,140c-5,4.95-8.93,4.94-13.9,0Q67,129.79,56.79,119.58a7.83,7.83,0,0,1-2.26-8.11,7.54,7.54,0,0,1,6-5.57c3-.66,5.5.46,7.62,2.58q7.13,7.14,14.28,14.27C83,123.26,83.51,123.75,84.19,124.4Z"/></g></g></svg>