<svg xmlns="http://www.w3.org/2000/svg" viewBox="0 0 211.43 195.17"><defs><style>.cls-1{fill:#69b42d;}.cls-2{fill:#1d2a37;}</style></defs><title>0% comisiones</title><g id="Capa_2" data-name="Capa 2"><g id="Capa_1-2" data-name="Capa 1"><path class="cls-1" d="M154.51,32.53a16.27,16.27,0,1,1,16.26-16.27A16.29,16.29,0,0,1,154.51,32.53Zm0-24.4a8.14,8.14,0,1,0,8.13,8.13A8.14,8.14,0,0,0,154.51,8.13Z"/><path class="cls-1" d="M195.17,89.45a16.27,16.27,0,1,1,16.26-16.26A16.28,16.28,0,0,1,195.17,89.45Zm0-24.39a8.13,8.13,0,1,0,8.13,8.13A8.14,8.14,0,0,0,195.17,65.06Z"/><path class="cls-1" d="M150.44,89.45a4.1,4.1,0,0,1-2.09-.58A4.06,4.06,0,0,1,147,83.3L195.75,2a4.06,4.06,0,0,1,7,4.18L153.93,87.48A4.06,4.06,0,0,1,150.44,89.45Z"/><path class="cls-1" d="M97.58,89.45A24.42,24.42,0,0,1,73.19,65.06V24.4a24.4,24.4,0,1,1,48.79,0V65.06A24.42,24.42,0,0,1,97.58,89.45Zm0-81.32A16.28,16.28,0,0,0,81.32,24.4V65.06a16.27,16.27,0,0,0,32.53,0V24.4A16.29,16.29,0,0,0,97.58,8.13Z"/><path class="cls-2" d="M32.53,97.58C16.36,97.58,0,92,0,81.32,0,60,65.06,60,65.06,81.32,65.06,92,48.69,97.58,32.53,97.58Zm0-24.39c-15.14,0-24.4,5.26-24.4,8.13s9.26,8.13,24.4,8.13,24.39-5.26,24.39-8.13S47.66,73.19,32.53,73.19Z"/><path class="cls-2" d="M32.53,122C16.36,122,0,116.39,0,105.72a4.07,4.07,0,1,1,8.13,0c0,2.87,9.26,8.13,24.4,8.13s24.39-5.26,24.39-8.13a4.07,4.07,0,0,1,8.14,0C65.06,116.39,48.69,122,32.53,122Z"/><path class="cls-2" d="M32.53,146.38C16.36,146.38,0,140.79,0,130.11a4.07,4.07,0,0,1,8.13,0c0,2.87,9.26,8.13,24.4,8.13s24.39-5.26,24.39-8.13a4.07,4.07,0,0,1,8.14,0C65.06,140.79,48.69,146.38,32.53,146.38Z"/><path class="cls-2" d="M32.53,170.77C16.36,170.77,0,165.19,0,154.51a4.07,4.07,0,1,1,8.13,0c0,2.87,9.26,8.13,24.4,8.13s24.39-5.26,24.39-8.13a4.07,4.07,0,0,1,8.14,0C65.06,165.19,48.69,170.77,32.53,170.77Z"/><path class="cls-2" d="M105.72,146.38c-16.17,0-32.53-5.59-32.53-16.27,0-21.35,65.05-21.35,65.05,0C138.24,140.79,121.88,146.38,105.72,146.38Zm0-24.4c-15.14,0-24.4,5.26-24.4,8.13s9.26,8.13,24.4,8.13,24.39-5.26,24.39-8.13S120.85,122,105.72,122Z"/><path class="cls-2" d="M105.72,170.77c-16.17,0-32.53-5.58-32.53-16.26a4.07,4.07,0,1,1,8.13,0c0,2.87,9.26,8.13,24.4,8.13s24.39-5.26,24.39-8.13a4.07,4.07,0,1,1,8.13,0C138.24,165.19,121.88,170.77,105.72,170.77Z"/><path class="cls-2" d="M178.9,170.77c-16.16,0-32.52-5.58-32.52-16.26,0-21.36,65.05-21.36,65.05,0C211.43,165.19,195.07,170.77,178.9,170.77Zm0-24.39c-15.13,0-24.39,5.26-24.39,8.13s9.26,8.13,24.39,8.13,24.4-5.26,24.4-8.13S194,146.38,178.9,146.38Z"/><path class="cls-2" d="M178.9,195.17c-16.16,0-32.52-5.59-32.52-16.27V154.51a4.07,4.07,0,1,1,8.13,0V178.9c0,2.87,9.26,8.14,24.39,8.14s24.4-5.27,24.4-8.14V154.51a4.07,4.07,0,1,1,8.13,0V178.9C211.43,189.58,195.07,195.17,178.9,195.17Z"/><path class="cls-2" d="M105.72,195.17c-16.17,0-32.53-5.59-32.53-16.27V130.11a4.07,4.07,0,0,1,8.13,0V178.9c0,2.87,9.26,8.14,24.4,8.14s24.39-5.27,24.39-8.14V130.11a4.07,4.07,0,0,1,8.13,0V178.9C138.24,189.58,121.88,195.17,105.72,195.17Z"/><path class="cls-2" d="M32.53,195.17C16.36,195.17,0,189.58,0,178.9V81.32a4.07,4.07,0,1,1,8.13,0V178.9c0,2.87,9.26,8.14,24.4,8.14s24.39-5.27,24.39-8.14V81.32a4.07,4.07,0,0,1,8.14,0V178.9C65.06,189.58,48.69,195.17,32.53,195.17Z"/></g></g></svg>