<svg xmlns="http://www.w3.org/2000/svg" xmlns:xlink="http://www.w3.org/1999/xlink" viewBox="0 0 242.11 241.64"><defs><style>.cls-1{fill:none;}.cls-2{clip-path:url(#clip-path);}.cls-3{fill:#1d2a37;}.cls-4{fill:#69b42d;}</style><clipPath id="clip-path" transform="translate(0 -0.24)"><rect class="cls-1" width="242.11" height="242.11"/></clipPath></defs><title>transacciones</title><g id="Capa_2" data-name="Capa 2"><g id="Capa_1-2" data-name="Capa 1"><g class="cls-2"><path class="cls-3" d="M85.14,234.78H0v7.09H85.14Z" transform="translate(0 -0.24)"/><path class="cls-3" d="M79.89,179.45l3.4-6.23L42.57,151,1.85,173.22l3.4,6.23,5.39-2.95v45.06H7.09v7.1H78v-7.1H74.5V176.5ZM46.12,221.56H39V200.28h7.1Zm21.28,0H63.85V196.73H56.76v24.83H53.21V193.18H31.93v28.38H28.38V196.73h-7.1v24.83H17.74V186.09h3.54v3.54h7.1v-3.54H56.76v3.54h7.09v-3.54H67.4v35.47Zm0-42.57H46.12V171.9H39V179H17.74v-6.36l24.83-13.54L67.4,172.63Z" transform="translate(0 -0.24)"/><path class="cls-3" d="M241.23,84H156.09v7.1h85.14Z" transform="translate(0 -0.24)"/><path class="cls-3" d="M236,28.68l3.4-6.23L198.66.24,157.94,22.45l3.4,6.23,5.39-2.94V70.79h-3.55v7.1h70.95v-7.1h-3.54V25.74ZM202.21,70.79h-7.1V49.51h7.1Zm21.28,0h-3.55V46h-7.09V70.79H209.3V42.42H188V70.79h-3.55V46h-7.1V70.79h-3.54V35.32h3.54v3.55h7.1V35.32h28.38v3.55h7.09V35.32h3.55V70.79Zm0-42.56H202.21v-7.1h-7.1v7.1H173.83V21.87L198.66,8.32l24.83,13.55v6.36Z" transform="translate(0 -0.24)"/><path class="cls-4" d="M162.73,98.29H78.49A11.1,11.1,0,0,0,67.4,109.38v33.69a11.11,11.11,0,0,0,11.09,11.09h84.24a11.11,11.11,0,0,0,11.1-11.09V109.38A11.11,11.11,0,0,0,162.73,98.29Zm4,44.78a4,4,0,0,1-4,4H78.49a4,4,0,0,1-4-4V109.38a4,4,0,0,1,4-4h84.24a4,4,0,0,1,4,4v33.69Z" transform="translate(0 -0.24)"/><path class="cls-3" d="M95.78,189.64h-7.1v7.09h7.1Z" transform="translate(0 -0.24)"/><path class="cls-3" d="M141.9,189.64h-39v7.09h39Z" transform="translate(0 -0.24)"/><path class="cls-3" d="M204.86,122.23H188v7.1h16.85a30.15,30.15,0,1,1,0,60.3H149v7.1h55.87a37.25,37.25,0,1,0,0-74.5Z" transform="translate(0 -0.24)"/><path class="cls-3" d="M159.64,54.65h-7.1v7.1h7.1Z" transform="translate(0 -0.24)"/><path class="cls-3" d="M145.44,54.65h-39v7.1h39Z" transform="translate(0 -0.24)"/><path class="cls-3" d="M37.25,61.75H99.33v-7.1H37.25a37.25,37.25,0,0,0,0,74.5H60.31v-7.1H37.25a30.15,30.15,0,1,1,0-60.3Z" transform="translate(0 -0.24)"/><path class="cls-4" d="M88.69,132.88h-7.1V140h7.1Z" transform="translate(0 -0.24)"/><path class="cls-4" d="M102.88,132.88h-7.1V140h7.1Z" transform="translate(0 -0.24)"/><path class="cls-4" d="M117.07,132.88H110V140h7.1Z" transform="translate(0 -0.24)"/><path class="cls-4" d="M131.26,132.88h-7.1V140h7.1Z" transform="translate(0 -0.24)"/><path class="cls-4" d="M145.45,132.88h-7.1V140h7.1Z" transform="translate(0 -0.24)"/><path class="cls-4" d="M124.16,118.69H81.59v7.09h42.57Z" transform="translate(0 -0.24)"/><path class="cls-4" d="M159.64,111.59h-7.1v7.1h7.1Z" transform="translate(0 -0.24)"/></g></g></g></svg>